<svg width="32" height="32" viewBox="0 0 32 32" fill="none" xmlns="http://www.w3.org/2000/svg">
<g clip-path="url(#clip0_601_867)">
<path d="M19.0625 16C19.0625 17.6914 17.6914 19.0625 16 19.0625C14.3086 19.0625 12.9375 17.6914 12.9375 16C12.9375 14.3086 14.3086 12.9375 16 12.9375C17.6914 12.9375 19.0625 14.3086 19.0625 16Z" fill="black"/>
<path d="M29.6921 0H2.30786C1.0332 0 0 1.0332 0 2.30786V29.6921C0 30.9668 1.0332 32 2.30786 32H29.6921C30.9668 32 32 30.9668 32 29.6921V2.30786C32 1.0332 30.9668 0 29.6921 0ZM25.1321 19.7878C25.0876 20.7659 24.9321 21.4336 24.7051 22.0181C24.2278 23.2522 23.2522 24.2278 22.0181 24.7051C21.4338 24.9321 20.7659 25.0874 19.7881 25.1321C18.8083 25.1768 18.4954 25.1875 16.0002 25.1875C13.5049 25.1875 13.1921 25.1768 12.2122 25.1321C11.2344 25.0874 10.5664 24.9321 9.98218 24.7051C9.3689 24.4744 8.81372 24.1128 8.35474 23.6453C7.88745 23.1865 7.52588 22.6311 7.29517 22.0181C7.06812 21.4338 6.9126 20.7659 6.86816 19.7881C6.823 18.8081 6.8125 18.4951 6.8125 16C6.8125 13.5049 6.823 13.1919 6.86792 12.2122C6.91235 11.2341 7.06763 10.5664 7.29468 9.98193C7.52539 9.3689 7.88721 8.81348 8.35474 8.35474C8.81348 7.88721 9.3689 7.52563 9.98193 7.29492C10.5664 7.06787 11.2341 6.9126 12.2122 6.86792C13.1919 6.82324 13.5049 6.8125 16 6.8125C18.4951 6.8125 18.8081 6.82324 19.7878 6.86816C20.7659 6.9126 21.4336 7.06787 22.0181 7.29468C22.6311 7.52539 23.1865 7.88721 23.6455 8.35474C24.1128 8.81372 24.4746 9.3689 24.7051 9.98193C24.9324 10.5664 25.0876 11.2341 25.1323 12.2122C25.177 13.1919 25.1875 13.5049 25.1875 16C25.1875 18.4951 25.177 18.8081 25.1321 19.7878Z" fill="black"/>
<rect x="4.26562" y="5.48438" width="23.7188" height="20.7188" fill="black"/>
<path d="M24.5194 9.95935H19.1523V11.452H24.5406L24.5194 9.95935ZM23.3867 20.2277C22.9796 20.4975 22.4987 20.6343 22.0105 20.6194C21.6874 20.6531 21.3608 20.6197 21.0511 20.5213C20.7414 20.423 20.4554 20.2617 20.2109 20.0477C19.7589 19.5353 19.5236 18.8673 19.5546 18.1846H26.5625C26.613 17.4738 26.5523 16.7595 26.3825 16.0674C26.2183 15.409 25.931 14.7876 25.5357 14.2361C25.1378 13.7011 24.6238 13.2631 24.0325 12.9552C23.3745 12.6308 22.6488 12.4675 21.9153 12.4788C21.2254 12.4737 20.5415 12.6069 19.9039 12.8705C19.3201 13.1166 18.7911 13.4765 18.3478 13.9291C17.9057 14.3907 17.5634 14.9385 17.3421 15.5381C17.1047 16.1855 16.9864 16.8705 16.9928 17.5601C16.9819 18.2594 17.0967 18.955 17.3316 19.6137C17.5311 20.2103 17.8478 20.7609 18.2631 21.2334C18.6928 21.6972 19.2209 22.0589 19.8087 22.292C20.4641 22.5417 21.1611 22.6638 21.8623 22.6519C22.8462 22.6826 23.8176 22.425 24.657 21.9109C25.5049 21.3084 26.1153 20.4284 26.3825 19.4232H24.043C23.9178 19.7557 23.6873 20.0382 23.3867 20.2277ZM19.7557 15.8663C19.8381 15.6024 19.9749 15.3586 20.1572 15.1508C20.3395 14.9429 20.5634 14.7756 20.8143 14.6595C21.1467 14.5099 21.5086 14.4375 21.8729 14.4478C22.1361 14.4253 22.401 14.46 22.6495 14.5496C22.8981 14.6391 23.1242 14.7813 23.3126 14.9665C23.6723 15.4068 23.9031 15.9381 23.9795 16.5015H19.5864C19.6035 16.2863 19.6425 16.0735 19.7028 15.8663H19.7557ZM14.1558 15.3582C14.6946 15.1338 15.1627 14.7681 15.5108 14.2996C15.8307 13.802 15.9896 13.2181 15.966 12.627C15.9867 12.088 15.8816 11.5516 15.659 11.0603C15.4719 10.6346 15.1717 10.2685 14.7909 10.0017C14.3872 9.72431 13.9288 9.53661 13.4465 9.45122C12.8758 9.33151 12.2936 9.27471 11.7104 9.28185H5.39062V22.599H11.848C12.4374 22.5994 13.0243 22.5247 13.5947 22.3767C14.1354 22.2368 14.6476 22.004 15.1085 21.6886C15.555 21.3792 15.9185 20.9647 16.1671 20.4818C16.4422 19.9417 16.5769 19.341 16.5588 18.7351C16.5788 17.9843 16.3682 17.2453 15.9554 16.6179C15.5114 15.9869 14.8529 15.5391 14.1029 15.3582H14.1558ZM8.32293 11.5578H11.0647C11.3166 11.5575 11.568 11.5788 11.8163 11.6213C12.0449 11.6552 12.2644 11.7344 12.462 11.8542C12.6529 11.9622 12.8076 12.1243 12.9066 12.32C13.0292 12.5547 13.0877 12.8177 13.076 13.0822C13.0957 13.31 13.0609 13.5393 12.9744 13.751C12.8879 13.9627 12.7521 14.1508 12.5785 14.2996C12.1996 14.56 11.7463 14.6901 11.287 14.6701H8.32293V11.5578ZM13.4465 19.4338C13.3378 19.6495 13.1733 19.8323 12.9702 19.9631C12.7588 20.0945 12.5258 20.1877 12.2821 20.2383C12.0111 20.2989 11.734 20.3274 11.4564 20.323H8.28059V16.6708H11.4564C12.0013 16.647 12.5395 16.7991 12.9913 17.1049C13.1954 17.288 13.3535 17.5167 13.4529 17.7723C13.5522 18.028 13.5899 18.3034 13.563 18.5763C13.5916 18.8673 13.5517 19.1609 13.4465 19.4338Z" fill="white"/>
</g>
<defs>
<clipPath id="clip0_601_867">
<rect width="32" height="32" fill="white"/>
</clipPath>
</defs>
</svg>
