<svg width="646" height="544" viewBox="0 0 646 544" fill="none" xmlns="http://www.w3.org/2000/svg">
<g clip-path="url(#clip0_200_1684)">
<path d="M437.747 444.228C542.457 383.729 578.344 249.757 517.903 144.993C457.463 40.2286 323.582 4.34462 218.872 64.8435C114.163 125.342 78.2756 259.315 138.716 364.079C199.157 468.843 333.038 504.727 437.747 444.228Z" stroke="url(#paint0_linear_200_1684)" stroke-width="0.6" stroke-linecap="round" stroke-linejoin="round"/>
<path opacity="0.94" d="M383.927 41.0464C416.125 48.7639 445.558 63.553 468.558 84.635C476.24 91.7851 483.533 99.3419 490.407 107.273C502.633 120.863 513.746 135.417 523.637 150.792C537.038 171.933 546.607 195.274 551.906 219.741C558.47 250.179 557.775 283.544 547.64 314.828C534.853 354.181 510.557 383.943 482.072 411.112C457.808 434.254 431.381 456.231 399.64 466.916C374.956 475.272 348.092 475.926 321.423 474.536C303.332 473.653 285.348 471.241 267.664 467.328C253.832 464.292 240.321 459.942 227.316 454.337C200.604 442.598 176.833 425.07 157.719 403.018C138.648 380.966 124.445 355.132 116.04 327.208C107.91 300.23 105.109 271.535 106.624 242.269C107.175 227.153 109.371 212.142 113.175 197.502C120.582 170.36 134.389 146.851 149.664 125.071C162.414 106.928 176.088 90.4618 193.196 76.9714C203.98 68.5707 215.727 61.4883 228.189 55.8746C240.602 50.2944 253.49 45.8407 266.699 42.5669C304.002 33.2095 344.079 31.4693 383.927 41.0464Z" stroke="url(#paint1_linear_200_1684)" stroke-width="0.6" stroke-linecap="round" stroke-linejoin="round"/>
<path opacity="0.88" d="M382.865 39.1281C416.116 46.2158 447.233 61.1161 469.835 84.092C477.314 91.7179 484.28 99.8869 491.321 108.185C503.637 122.687 516.08 137.02 526.749 151.98C541.764 172.652 552.833 195.922 559.399 220.619C567.573 251.597 567.375 286.919 555.459 318.298C540.385 357.813 512.266 383.461 482.278 411.316C457.16 434.801 432.504 461.336 399.898 472.102C374.657 480.459 346.619 477.627 319.626 475.565C300.936 474.18 282.33 471.846 263.877 468.572C249.85 466.173 236.08 462.46 222.748 457.481C195.188 446.686 170.708 429.271 151.465 406.772C132.29 384.237 118.462 357.651 111.017 329.006C103.798 301.468 102.393 272.44 103.619 242.729C104.232 227.595 105.488 212.292 109.689 197.221C117.314 169.824 132.989 147.211 148.114 124.873C160.664 106.309 172.592 88.8982 189.511 74.8402C200.271 66.1261 212.252 59.0415 225.07 53.8134C237.754 48.6306 250.867 44.571 264.259 41.6811C302.055 33.1228 342.517 30.5057 382.865 39.1281Z" stroke="url(#paint2_linear_200_1684)" stroke-width="0.6" stroke-linecap="round" stroke-linejoin="round"/>
<path opacity="0.81" d="M381.788 37.2062C416.113 43.6836 448.896 58.6628 471.099 83.5327C478.425 91.73 485.095 100.446 492.218 109.147C504.666 124.325 518.117 138.601 529.902 153.206C546.502 173.442 559.067 196.678 566.915 221.654C576.684 253.182 576.984 290.448 563.292 321.908C545.862 361.582 513.916 383.087 482.51 411.665C456.442 435.398 433.598 466.543 400.085 477.393C374.296 485.766 345.131 479.42 317.72 476.633C298.772 474.699 279.127 472.578 259.963 469.878C245.759 468.05 231.754 464.916 218.126 460.516C189.73 450.677 164.516 433.353 145.14 410.371C125.874 387.363 112.433 360.048 105.954 330.738C99.6631 302.633 99.5962 273.229 100.577 243.112C101.067 227.727 101.777 212.128 106.162 196.875C113.989 169.232 131.552 147.493 146.409 124.634C158.771 105.652 168.927 87.2902 185.684 72.6713C196.163 63.5155 208.801 56.6537 221.708 51.6874C234.67 46.9086 248.016 43.2453 261.6 40.7373C300.089 33.0452 340.942 29.5258 381.788 37.2062Z" stroke="url(#paint3_linear_200_1684)" stroke-width="0.6" stroke-linecap="round" stroke-linejoin="round"/>
<path opacity="0.75" d="M380.724 35.2881C416.129 41.0883 450.573 56.2133 472.373 82.9899C479.556 91.7206 485.92 101.021 493.117 110.109C505.706 125.978 520.184 140.176 533.062 154.462C551.001 174.378 565.092 196.42 574.413 222.711C585.795 254.766 586.594 294.031 571.106 325.541C551.439 365.391 515.61 382.806 482.736 412.038C455.735 436.107 434.698 471.779 400.273 482.683C373.919 491.082 343.542 481.185 315.805 477.739C296.248 475.288 275.858 473.253 256.045 471.251C241.269 469.741 227.218 467.704 213.45 463.701C184.664 455.332 158.195 437.349 138.776 414.124C119.408 390.626 106.355 362.57 100.855 332.611C95.4879 303.951 96.7426 274.234 97.4829 243.644C97.8527 227.995 98.0002 212.11 102.472 196.635C110.513 168.75 129.964 147.884 144.631 124.416C156.793 105.013 165.19 85.7036 181.775 70.5078C192.147 61.0377 205.18 54.2271 218.323 49.5965C231.466 44.9659 245.02 42.2556 258.903 39.8379C298.123 32.9681 339.388 28.5243 380.724 35.2881Z" stroke="url(#paint4_linear_200_1684)" stroke-width="0.6" stroke-linecap="round" stroke-linejoin="round"/>
<path opacity="0.69" d="M379.66 33.3694C416.145 38.4926 452.269 53.7413 473.655 82.4213C480.602 91.7284 486.74 101.567 494.029 111.02C506.75 127.565 522.247 141.722 536.226 155.65C555.749 175.187 571.303 196.9 581.959 223.589C594.985 256.208 596.205 297.355 578.979 328.957C557.024 368.969 517.383 382.233 483.025 412.129C455.127 436.448 435.798 476.714 400.517 487.716C373.601 496.128 342.017 482.668 313.963 478.525C293.799 475.543 272.666 473.595 252.213 472.252C237.228 471.27 222.961 469.992 208.862 466.513C179.518 459.261 152.11 441.23 132.508 417.466C112.672 393.462 100.445 364.052 95.8357 334.138C91.418 304.928 94.0299 274.867 94.494 243.836C94.744 227.924 94.3451 211.742 98.9613 196.034C107.204 167.904 128.54 147.924 142.993 123.881C154.968 104.061 161.618 83.8067 178.015 68.0434C188.282 58.2047 201.645 51.4826 215.079 47.1886C228.512 42.8945 242.277 40.7171 256.349 38.6087C296.162 32.8777 337.803 27.4867 379.66 33.3694Z" stroke="url(#paint5_linear_200_1684)" stroke-width="0.6" stroke-linecap="round" stroke-linejoin="round"/>
<path opacity="0.63" d="M378.597 31.4508C416.164 35.8841 453.966 51.2694 474.934 81.8653C481.693 91.721 487.554 102.139 494.934 112.011C507.784 129.243 524.325 143.259 539.37 156.914C560.465 176.07 577.477 197.466 589.489 224.627C604.062 257.769 605.794 300.864 586.812 332.621C562.557 372.793 519.094 381.942 483.245 412.582C454.443 437.176 436.929 482.04 400.694 493.099C373.218 501.524 340.53 484.515 312.047 479.685C290.96 476.236 269.665 474.216 248.305 473.64C233.1 473.172 218.635 472.684 204.196 469.713C174.2 463.525 145.944 445.512 126.21 421.277C106.186 396.854 94.486 366.497 90.8096 336.043C87.2975 306.247 91.2285 275.831 91.4926 244.379C91.6227 228.203 90.7121 211.748 95.414 195.872C103.862 167.484 127.082 148.391 141.331 123.79C153.115 103.564 157.997 82.346 174.232 66.0218C184.374 55.8367 198.102 49.1717 211.814 45.2108C225.526 41.2498 239.481 39.6274 253.772 37.8223C294.21 32.8035 336.287 26.4949 378.597 31.4508Z" stroke="url(#paint6_linear_200_1684)" stroke-width="0.6" stroke-linecap="round" stroke-linejoin="round"/>
<path opacity="0.56" d="M377.53 29.5325C416.183 33.2632 455.662 48.7849 476.209 81.3096C482.768 91.7104 488.379 102.701 495.83 112.974C508.811 130.881 526.396 144.808 542.53 158.156C565.196 176.93 583.699 197.991 597.004 225.608C613.187 259.29 615.45 304.364 594.59 336.177C568.059 376.514 520.77 381.562 483.434 412.879C453.735 437.776 437.983 487.182 400.855 498.274C372.814 506.725 338.972 486.153 310.112 480.651C288.43 476.659 266.421 474.716 244.374 474.847C228.963 474.895 214.268 475.162 199.508 472.731C168.893 467.684 139.762 449.586 119.769 424.846C99.6045 399.882 88.347 368.786 85.6338 337.733C83.0459 307.381 88.3087 276.615 88.3347 244.731C88.3322 228.288 86.8499 211.53 91.7238 195.469C100.386 166.839 125.479 148.629 139.577 123.47C151.162 102.823 154.284 80.6576 170.343 63.7692C180.376 53.2283 194.464 46.6458 208.441 43.0146C222.418 39.3834 236.606 38.3133 251.103 36.7541C292.233 32.7099 334.741 25.4009 377.53 29.5325Z" stroke="url(#paint7_linear_200_1684)" stroke-width="0.6" stroke-linecap="round" stroke-linejoin="round"/>
<path opacity="0.5" d="M376.453 27.6106C416.205 30.6421 457.374 46.3037 477.483 80.7664C483.87 91.7065 489.144 103.247 496.731 113.923C509.854 132.521 528.483 146.361 545.681 159.395C569.934 177.778 589.909 198.471 604.532 226.604C622.312 260.824 625.074 307.842 602.488 339.75C573.653 380.259 522.564 381.212 483.719 413.186C453.122 438.388 439.138 492.364 401.097 503.566C372.495 512.029 337.49 487.879 308.261 481.72C285.982 477.171 263.238 475.303 240.515 476.153C224.904 476.692 209.995 477.76 194.904 475.852C163.694 471.911 133.648 453.773 113.479 428.523C93.0933 403.064 82.359 371.182 80.6055 339.543C78.9417 308.636 85.5364 277.519 85.3276 245.191C85.2019 228.497 83.1732 211.443 88.1811 195.186C97.0591 166.26 124.022 148.987 137.87 123.244C149.254 102.176 150.64 79.0275 166.513 61.613C176.439 50.6621 190.887 44.2037 205.114 40.9115C219.34 37.6193 233.755 37.1271 248.491 35.8908C290.268 32.6324 333.21 24.3101 376.453 27.6106Z" stroke="url(#paint8_linear_200_1684)" stroke-width="0.6" stroke-linecap="round" stroke-linejoin="round"/>
<path opacity="0.44" d="M375.391 25.6918C416.223 27.992 459.104 43.8131 478.75 80.2069C484.962 91.699 490.013 103.819 497.632 114.885C510.887 134.158 530.562 147.897 548.836 160.622C574.677 178.613 596.098 199.04 612.064 227.588C631.442 262.344 634.7 311.319 610.334 343.322C579.214 383.981 524.296 380.846 483.964 413.496C452.473 438.989 440.248 497.52 401.304 508.792C372.143 517.31 335.985 489.544 306.372 482.737C283.5 477.625 260.012 475.831 236.629 477.411C220.819 478.441 205.674 480.29 190.264 478.909C158.446 476.071 127.508 457.911 107.166 432.138C86.8243 406.365 76.3563 373.438 75.5388 341.301C74.7966 309.797 82.7129 278.367 82.266 245.608C82.0239 228.638 79.4292 211.31 84.5746 194.845C93.6534 165.728 122.535 149.214 136.162 122.921C147.362 101.423 147.004 77.3719 162.713 59.3551C172.522 48.128 187.334 41.6852 201.838 38.7261C216.342 35.7671 230.981 35.7569 245.877 34.8901C288.32 32.5453 331.662 23.2411 375.391 25.6918Z" stroke="url(#paint9_linear_200_1684)" stroke-width="0.6" stroke-linecap="round" stroke-linejoin="round"/>
<path opacity="0.38" d="M374.322 23.786C416.24 25.3295 460.83 41.3226 480.026 79.651C486.054 91.679 490.853 104.331 498.528 115.847C511.922 135.77 532.624 149.485 551.997 161.864C579.413 179.461 602.305 199.574 619.58 228.568C640.564 263.878 644.309 314.793 618.175 346.894C584.752 387.725 526.037 380.482 484.209 413.794C451.817 439.603 441.351 502.689 401.503 514.032C371.791 522.525 334.466 491.192 304.479 483.754C281.016 478.077 256.77 476.359 232.74 478.67C216.717 480.187 201.361 482.823 185.605 481.975C153.178 480.24 121.355 462.034 100.814 435.785C80.273 409.537 70.3731 375.809 70.4806 343.063C70.6557 311.029 79.9234 279.226 79.2223 246.045C78.8603 228.812 75.7192 211.187 80.9952 194.54C90.2318 165.138 121.032 149.587 134.458 122.724C145.468 100.821 143.316 75.7985 158.811 57.2073C168.511 45.6244 183.685 39.2515 198.451 36.6348C213.217 34.0182 228.084 34.5317 243.182 33.9776C286.353 32.4677 330.123 22.1215 374.322 23.786Z" stroke="url(#paint10_linear_200_1684)" stroke-width="0.6" stroke-linecap="round" stroke-linejoin="round"/>
<path opacity="0.31" d="M373.309 21.8815C416.311 22.6809 462.626 38.8368 481.355 79.1091C487.211 91.6763 491.707 104.954 499.481 116.81C512.997 137.447 534.763 150.998 555.199 163.117C584.205 180.31 608.553 200.119 627.172 229.582C649.756 265.416 653.997 318.288 626.084 350.429C590.385 391.427 527.917 380.17 484.53 414.07C451.293 440.238 442.536 507.811 401.798 519.229C371.509 527.744 333.04 492.811 302.674 484.755C278.592 478.487 253.539 476.844 228.843 479.912C212.596 481.914 197.038 485.353 180.96 485.046C147.939 484.362 115.277 466.19 94.4839 439.411C73.6905 412.632 64.3182 378.052 65.4123 344.822C66.5116 312.232 77.1111 280.079 76.1914 246.444C75.6808 228.953 72.0695 211.053 77.4159 194.193C86.9051 164.56 119.542 149.869 132.765 122.447C143.574 100.123 139.663 74.1527 155.033 55.0109C164.612 43.0688 180.148 36.7657 195.196 34.4695C210.244 32.1733 225.314 33.2451 240.607 33.0291C284.388 32.3905 328.565 21.0369 373.309 21.8815Z" stroke="url(#paint11_linear_200_1684)" stroke-width="0.6" stroke-linecap="round" stroke-linejoin="round"/>
<path opacity="0.25" d="M372.196 19.9493C416.288 19.9793 464.318 36.3361 482.584 78.5396C488.253 91.6554 492.487 105.503 500.331 117.759C513.981 139.112 536.815 152.486 558.3 164.342C588.937 181.087 614.704 200.624 634.628 230.546C658.809 266.971 663.559 321.749 633.857 354.022C595.854 395.192 529.586 379.84 484.698 414.414C450.568 440.873 443.579 513.017 401.886 524.546C371.035 533.074 331.41 494.538 300.707 485.86C276.066 479.002 250.256 477.418 224.961 481.212C208.525 483.612 192.711 487.854 176.321 488.102C142.657 488.499 108.998 470.291 88.1393 443.045C67.2805 415.799 58.2766 380.352 60.3457 346.58C62.4232 313.436 74.3072 280.905 73.1425 246.865C72.4613 229.097 68.2909 210.897 73.8348 193.859C83.5257 163.98 118.048 150.175 131.12 122.196C141.742 99.4543 136.071 72.5363 151.254 52.8269C160.721 40.5416 176.619 34.3084 191.929 32.3546C207.238 30.4008 222.532 32.009 238.05 32.0709C282.429 32.3002 327.014 19.9266 372.196 19.9493Z" stroke="url(#paint12_linear_200_1684)" stroke-width="0.6" stroke-linecap="round" stroke-linejoin="round"/>
<path opacity="0.19" d="M371.118 18.0274C416.3 17.2879 466.06 33.8364 483.861 77.9837C489.34 91.7023 493.301 106.062 501.231 118.708C515.033 140.714 538.887 154.036 561.465 165.572C593.66 181.932 620.911 201.158 642.154 231.542C667.959 268.403 673.169 325.223 641.699 357.594C601.408 398.926 531.314 379.474 484.93 414.708C449.89 441.468 444.672 518.17 402.115 529.726C370.7 538.279 329.934 496.13 298.802 486.82C273.582 479.378 246.981 477.876 221.082 482.432C204.404 485.38 188.421 490.406 171.7 491.179C137.431 492.666 102.931 474.45 81.8324 446.677C60.7338 418.904 52.2947 382.669 55.2684 348.364C58.2227 314.638 71.4859 281.783 70.0992 247.302C69.3523 229.271 64.5687 210.771 70.2592 193.54C80.1646 163.42 116.562 150.485 129.379 121.934C139.801 98.7712 132.371 70.9053 147.382 50.619C156.737 37.9907 173.01 31.8307 188.581 30.2193C204.153 28.608 219.721 30.766 235.381 31.111C280.462 32.2226 325.47 18.7782 371.118 18.0274Z" stroke="url(#paint13_linear_200_1684)" stroke-width="0.6" stroke-linecap="round" stroke-linejoin="round"/>
<path opacity="0.13" d="M370.054 16.109C416.305 14.5806 467.817 31.3401 485.135 77.4407C490.463 91.6223 494.117 106.621 502.129 119.671C516.063 142.352 540.965 155.572 564.615 166.811C598.423 182.786 627.108 201.69 649.684 232.526C677.07 269.987 682.793 328.701 649.53 361.163C606.951 402.658 533.045 379.107 485.186 415.022C449.235 442.136 445.79 523.342 402.329 534.969C370.353 543.535 328.446 497.773 296.923 487.841C271.112 479.794 243.692 478.366 217.182 483.687C200.298 487.097 184.11 492.94 167.055 494.249C132.178 496.838 96.7927 478.576 75.4511 450.289C54.1094 422.002 46.2384 384.966 50.1523 350.096C54.0308 315.815 68.6258 282.609 66.9917 247.681C66.1215 229.399 60.7847 210.628 66.639 193.142C76.7622 162.767 115.044 150.718 127.645 121.606C137.879 98.0248 128.69 69.211 143.538 48.3639C152.784 35.3798 169.403 29.2989 185.24 28.0173C201.077 26.7356 216.818 29.4164 232.743 30.0911C278.5 32.1325 323.924 17.6427 370.054 16.109Z" stroke="url(#paint14_linear_200_1684)" stroke-width="0.6" stroke-linecap="round" stroke-linejoin="round"/>
<path opacity="0.06" d="M368.99 14.1907C416.324 11.7683 469.632 28.8321 486.4 76.8815C491.583 91.6092 494.946 107.183 503.031 120.62C517.106 143.992 543.039 157.122 567.766 168.05C603.136 183.627 633.308 202.208 657.199 233.519C686.186 271.504 692.417 332.178 657.412 364.746C612.545 406.403 534.813 378.751 485.465 415.301C448.633 442.655 446.984 528.48 402.579 540.181C370.055 548.763 327.008 499.334 295.081 488.83C268.682 480.142 240.421 478.782 213.308 484.894C196.194 488.76 179.81 495.435 162.39 497.245C126.901 500.95 90.6268 482.653 69.1436 453.879C47.6604 425.105 40.2466 387.226 45.1101 351.807C49.9161 316.958 65.8522 283.417 63.9673 248.054C63.0051 229.557 57.1219 210.491 63.078 192.827C73.4029 162.207 113.569 151.044 125.969 121.361C136.017 97.3623 125.068 67.6006 139.728 46.1859C148.862 32.8587 165.859 26.8384 181.958 25.8991C198.057 24.9599 214 28.1575 230.136 29.161C276.535 32.0551 322.368 16.3953 368.99 14.1907Z" stroke="url(#paint15_linear_200_1684)" stroke-width="0.6" stroke-linecap="round" stroke-linejoin="round"/>
<path d="M437.748 444.227C542.457 383.728 578.344 249.756 517.904 144.992C457.463 40.2282 323.582 4.34418 218.873 64.8431C114.163 125.342 78.2761 259.314 138.717 364.078C199.157 468.842 333.038 504.726 437.748 444.227Z" stroke="url(#paint16_linear_200_1684)" stroke-width="0.6" stroke-linecap="round" stroke-linejoin="round"/>
<path opacity="0.86" d="M390.059 33.0932C422.723 42.1196 449.938 64.5764 472.574 86.8132C491.053 104.968 505.414 126.716 518.393 149.1C525.244 160.9 531.686 172.903 535.877 185.949C543.047 208.287 543.038 231.832 543.778 255.728C544.37 274.438 545.52 292.536 541.244 311.494C537.951 325.426 532.605 338.792 525.383 351.152C518.271 363.416 509.989 374.962 500.653 385.63C473.658 417.091 440.188 443.115 402.009 458.281C363.454 473.632 318.95 478.392 276.68 464.042C268.786 461.368 261.278 457.913 253.569 454.853C239.914 449.41 226.311 444.893 213.681 439.739C195.762 432.58 179.051 422.707 164.132 410.466C144.853 394.587 128.703 372.714 121.285 349.425C111.793 319.659 114.883 292.08 116.04 259.275C116.934 235.627 116.611 210.428 124.687 187.235C134.817 158.154 151.058 134.495 170.845 113.542C187.925 95.4702 207.072 79.4725 227.891 65.8798C244.355 55.1977 262.323 44.7417 280.984 38.7588C314.685 27.9187 353.356 22.9978 390.059 33.0932Z" stroke="url(#paint17_linear_200_1684)" stroke-width="0.6" stroke-linecap="round" stroke-linejoin="round"/>
<path opacity="0.71" d="M395.116 23.2049C426.89 32.2514 451.671 60.9022 472.488 83.8356C490.032 103.142 502.575 126.295 516.332 148.67C523.585 160.441 531.111 172.054 535.289 185.301C542.458 208.047 538.688 231.972 540.263 256.051C541.546 275.028 546.245 292.471 542.72 311.725C540.156 325.711 533.914 338.806 526.413 350.203C518.779 361.891 509.66 372.118 500.174 382.139C472.308 411.516 440.681 438.483 403.999 455.017C366.858 471.795 322.342 478.525 281.851 461.956C273.526 458.554 265.761 454.078 257.404 450.64C242.702 444.59 227.475 441.462 213.328 437.956C193.223 433.031 174.71 425.565 156.934 413.573C134.632 398.517 115.761 373.955 111.089 348.284C105.105 315.375 118.86 289.675 122.534 254.481C125.292 228.951 122.159 200.685 132.537 176.516C144.291 149.041 162.609 129.206 183.445 110.481C201.508 94.188 220.492 78.9482 240.304 64.8368C255.494 54.0855 272.358 41.3053 289.627 34.6772C321.252 22.5459 359.968 13.295 395.116 23.2049Z" stroke="url(#paint18_linear_200_1684)" stroke-width="0.6" stroke-linecap="round" stroke-linejoin="round"/>
<path opacity="0.57" d="M400.172 13.371C431.044 22.4344 453.304 57.2967 472.392 80.8964C488.976 101.402 499.774 125.938 514.3 148.288C521.939 160.04 530.549 171.263 534.723 184.727C541.879 207.878 534.342 232.154 536.767 256.461C538.715 275.698 546.963 292.486 544.197 312.053C542.259 325.838 535.508 338.648 527.414 349.314C519.239 360.23 509.544 369.405 499.688 378.728C470.955 406.008 441.167 433.93 405.998 451.823C370.305 470.05 325.783 478.48 286.934 459.942C278.205 455.765 270.176 450.292 261.182 446.494C245.381 439.822 228.534 438.07 212.895 436.274C190.647 433.714 170.069 428.268 149.727 416.813C124.426 402.546 102.819 375.399 100.908 347.243C98.4579 311.197 122.906 287.37 129.058 249.778C133.685 222.353 127.572 191.042 140.358 165.858C153.517 139.944 174.131 123.977 196 107.489C214.496 93.5398 233.864 78.3682 252.675 63.8507C266.649 53.0726 282.35 37.9258 298.225 30.6653C327.827 17.1479 366.594 3.59578 400.172 13.371Z" stroke="url(#paint19_linear_200_1684)" stroke-width="0.6" stroke-linecap="round" stroke-linejoin="round"/>
<path opacity="0.43" d="M405.223 3.50871C435.214 12.6084 454.927 53.7298 472.337 77.9551C487.929 99.6785 496.976 125.569 512.287 147.884C520.338 159.57 530.018 170.453 534.176 184.131C541.335 207.677 530.037 232.334 533.294 256.836C535.932 276.34 547.691 292.463 545.726 312.34C544.375 325.915 537.151 338.461 528.523 348.426C519.895 358.391 509.489 366.668 499.3 375.303C469.701 400.486 441.751 429.364 408.08 448.624C373.826 468.285 329.415 478.228 292.133 457.906C282.993 452.924 274.69 446.493 265.021 442.323C248.123 435.072 229.666 434.658 212.556 434.496C188.13 434.278 165.529 430.848 142.586 419.963C114.271 406.535 89.8725 376.761 90.7085 346.17C91.7917 306.988 126.916 285.096 135.574 245.058C141.992 215.718 132.805 181.31 148.179 155.2C162.578 130.748 185.672 118.726 208.571 104.488C228.36 91.9685 247.237 78.0605 265.059 62.8683C277.821 52.0924 292.35 34.5213 306.835 26.6571C334.4 11.7089 373.222 -6.1157 405.223 3.50871Z" stroke="url(#paint20_linear_200_1684)" stroke-width="0.6" stroke-linecap="round" stroke-linejoin="round"/>
<path opacity="0.29" d="M410.285 -6.35038C439.364 2.8042 456.504 50.1777 472.206 74.9932C486.76 97.9494 494.13 125.173 510.193 147.472C518.633 159.18 529.411 169.623 533.565 183.517C540.749 207.479 525.646 232.478 529.757 257.195C533.072 276.962 548.313 292.426 547.162 312.616C546.388 326.019 538.716 338.255 529.508 347.492C520.3 356.73 509.33 363.862 498.798 371.847C468.319 394.984 442.228 424.741 410.047 445.394C377.18 466.53 333.03 477.836 297.204 455.834C287.693 450.005 279.09 442.663 268.808 438.138C250.863 430.226 230.744 431.244 212.159 432.729C185.624 434.9 160.94 433.456 135.397 423.14C104.098 410.491 76.9253 378.123 80.5143 345.125C85.1014 302.867 130.943 282.758 142.07 240.361C150.33 209.119 137.879 171.509 156.005 144.571C171.515 121.506 197.197 113.485 221.123 101.508C241.652 91.0092 260.607 77.6802 277.436 61.9112C289.012 51.1441 302.336 31.1132 315.442 22.6615C340.928 6.23058 379.847 -15.8147 410.285 -6.35038Z" stroke="url(#paint21_linear_200_1684)" stroke-width="0.6" stroke-linecap="round" stroke-linejoin="round"/>
<path opacity="0.14" d="M415.334 -16.2127C443.534 -7.07607 458.02 46.6503 472.115 72.0289C485.573 96.2838 491.316 124.814 508.151 147.02C516.999 158.729 528.855 168.753 532.993 182.86C540.147 207.236 521.315 232.596 526.254 257.522C530.247 277.552 548.958 292.353 548.646 312.863C548.456 326.015 540.317 338.017 530.55 346.547C520.783 355.077 509.198 361.105 498.347 368.35C467.011 389.352 442.739 420.141 412.079 442.127C380.685 464.665 336.803 477.255 302.332 453.752C292.476 447.027 283.537 438.806 272.621 433.906C253.587 425.389 231.848 427.783 211.781 430.94C183.095 435.501 156.371 435.988 128.227 426.24C93.9542 414.333 63.9945 379.421 70.3205 344.026C78.3996 298.634 134.976 280.396 148.582 235.6C158.681 202.469 142.832 161.498 163.835 133.875C180.401 112.1 208.723 108.135 233.703 98.469C254.857 90.0482 273.987 77.2362 289.832 60.878C300.254 50.1553 312.342 27.6291 324.064 18.6025C347.44 0.707516 386.472 -25.5136 415.334 -16.2127Z" stroke="url(#paint22_linear_200_1684)" stroke-width="0.6" stroke-linecap="round" stroke-linejoin="round"/>
<path opacity="0.08" d="M313.365 1.92465C353.619 28.0119 391.498 30.1607 435.539 30.5852C470.673 30.8958 536.471 23.3769 563.644 46.0945C590.43 68.4771 594.486 102.339 586.544 136.199C583.934 147.313 561.265 178.314 560.486 189.852C559.041 211.242 572.895 230.309 577.712 251.173C580.286 262.844 580.025 274.962 576.952 286.513C573.879 298.063 568.084 308.709 560.051 317.557C551.91 326.264 541.387 333.352 536.368 344.271C527.505 363.592 562.109 391.526 564.814 412.301C565.514 417.66 565.61 423.294 563.537 428.291C560.871 434.737 555.045 439.273 549.224 443.076C533.204 453.523 491.677 454.48 472.931 457.581C441.43 462.75 406.677 457.056 379.226 473.763C359.881 485.552 343.814 508.155 321.325 505.884C301.634 503.832 290.403 483.754 274.573 472.216C260.535 460.587 234.78 470.357 218.591 472.293C196.234 475.012 173.87 477.639 151.499 480.173C117.722 483.887 81.7373 487.106 51.5471 471.487C38.9926 464.858 28.204 455.322 20.0803 443.674C11.9566 432.027 6.73305 418.605 4.84489 404.527C1.08208 374.853 15.9015 333.65 44.9589 323.335C59.3559 318.237 75.3451 319.637 89.422 313.297C107.224 305.287 117.82 283.763 116.015 263.789C113.788 238.692 96.7595 222.232 80.7281 205.046C58.9589 181.822 41.3699 155.004 28.7391 125.779C22.628 111.524 17.7671 96.4601 17.3996 80.8722C17.0321 65.2844 21.7423 48.9204 32.7269 37.7225C58.309 11.64 106.89 33.099 135.945 40.4641C153.984 45.0266 173.889 53.8458 192.983 54.2674C201.095 54.4542 209.736 51.802 214.842 45.589C220.898 38.2153 220.67 28.0958 222.823 19.145C226.117 6.14468 234.42 -5.02353 245.918 -11.9189C272.85 -28.1119 291.057 -12.5475 313.365 1.92465Z" stroke="url(#paint23_linear_200_1684)" stroke-width="0.6" stroke-linecap="round" stroke-linejoin="round"/>
<path opacity="0.15" d="M319.358 5.3544C358.512 29.7586 395.14 32.5657 437.296 34.3905C471.4 35.8542 533.225 30.8776 559.427 53.5119C584.821 75.5077 589.005 107.975 582.539 140.692C580.333 151.874 559.914 181.328 559.281 192.986C558.163 213.661 570.833 232.274 575.179 252.508C577.499 263.826 577.192 275.526 574.282 286.708C571.371 297.889 565.935 308.254 558.392 317.003C550.765 325.617 540.958 332.625 536.142 343.189C527.56 362.122 558.646 388.87 560.511 408.969C560.986 414.105 560.942 419.497 558.884 424.336C556.233 430.526 550.683 434.946 545.13 438.712C529.596 449.275 490.675 451.217 472.457 454.786C442.374 460.702 409.134 456.163 382.518 472.141C363.752 483.445 348.005 504.5 326.28 502.625C307.296 500.981 296.022 482.742 280.49 472.223C266.673 461.646 242.114 470.608 226.318 472.295C204.731 474.676 183.131 476.891 161.517 478.938C128.821 481.962 94.24 484.209 65.0657 469.013C52.9893 462.582 42.5445 453.471 34.5314 442.377C26.5183 431.283 21.1496 418.501 18.8362 405.01C14.3067 376.574 26.7544 337.47 52.5742 326.546C65.3762 321.157 79.7159 321.707 92.2672 315.121C108.216 306.819 117.631 286.094 115.775 266.773C113.48 242.638 97.7464 226.321 83.0529 209.371C62.9867 186.456 47.0743 160.21 36.0326 131.817C30.6321 117.752 26.6021 102.938 26.6937 87.7185C26.7853 72.4987 31.638 56.5677 42.2865 45.4566C67.1236 19.5148 113.467 37.3932 142.138 42.9405C159.802 46.3136 179.209 53.8966 197.961 53.8182C205.891 53.8202 214.339 51.2254 219.538 45.3775C225.692 38.4518 226.108 29.0766 228.746 20.7048C232.796 8.47827 241.313 -1.76715 252.59 -7.98029C278.984 -22.7248 297.293 -8.45355 319.358 5.3544Z" stroke="url(#paint24_linear_200_1684)" stroke-width="0.6" stroke-linecap="round" stroke-linejoin="round"/>
<path opacity="0.23" d="M325.326 8.76411C363.374 31.5106 398.82 35.0218 439.015 38.2266C472.083 40.8689 529.941 38.409 555.136 61.0456C579.195 82.6427 583.507 113.77 578.47 145.318C576.67 156.555 558.468 184.438 558.054 196.141C557.257 216.127 568.74 234.244 572.625 253.865C574.691 264.829 574.336 276.113 571.588 286.927C568.839 297.742 563.761 307.825 556.71 316.471C549.616 324.927 540.491 331.928 535.894 342.129C527.584 360.659 555.165 386.221 556.175 405.656C556.436 410.572 556.202 415.709 554.205 420.373C551.583 426.299 546.293 430.611 541.034 434.347C525.938 445.001 489.653 447.921 471.984 451.978C443.308 458.584 411.594 455.257 385.816 470.493C367.652 481.223 352.136 500.803 331.219 499.416C312.917 498.172 301.615 481.764 286.425 472.303C272.891 462.754 249.449 470.845 234.042 472.351C213.204 474.375 192.366 476.249 171.528 477.769C139.93 479.998 106.748 481.286 78.6502 466.488C67.0342 460.257 56.9218 451.559 49.0225 441.003C41.1232 430.447 35.6282 418.289 32.9231 405.382C27.5337 378.226 37.696 341.206 60.2622 329.682C71.4564 323.998 84.0706 323.677 95.2011 316.86C109.281 308.275 117.529 288.353 115.607 269.681C113.252 246.483 98.8152 230.35 85.4376 213.617C67.102 191.004 52.8654 165.353 43.3723 137.826C38.6987 123.943 35.4835 109.388 36.0342 94.5364C36.5849 79.6846 41.5801 64.1865 51.9051 53.1657C76.0133 27.3551 120.094 41.6463 148.397 45.3665C165.663 47.639 184.6 53.9259 203.003 53.3728C210.758 53.1646 219.002 50.6237 224.248 45.1562C230.516 38.6693 231.574 29.9968 234.659 22.2895C239.469 10.872 248.184 1.54059 259.244 -4.03292C285.104 -17.3418 303.516 -4.26783 325.326 8.76411Z" stroke="url(#paint25_linear_200_1684)" stroke-width="0.6" stroke-linecap="round" stroke-linejoin="round"/>
<path opacity="0.31" d="M331.29 12.187C368.206 33.269 402.509 37.4945 440.729 42.0759C472.783 45.9162 526.66 45.9281 550.871 68.5323C573.566 89.7367 578.094 119.547 574.409 149.906C573.042 161.204 557.107 187.531 556.796 199.303C556.295 218.592 566.626 236.237 570.037 255.241C571.862 265.849 571.468 276.721 568.88 287.169C566.291 297.618 561.565 307.416 554.999 315.945C548.443 324.273 540.022 331.231 535.617 341.075C527.587 359.217 551.666 383.583 551.846 402.36C552.115 407.157 551.322 411.955 549.524 416.41C546.929 422.085 541.902 426.277 536.925 429.979C522.374 440.78 488.632 444.613 471.49 449.192C444.253 456.47 414.032 454.373 389.092 468.867C371.516 479.129 356.282 497.15 336.158 496.208C318.546 495.38 307.204 480.798 292.35 472.367C278.983 463.871 256.791 471.153 241.774 472.423C221.713 474.138 201.634 475.616 181.559 476.62C151.052 478.08 119.269 478.409 92.2385 464.046C81.0819 458.01 71.3008 449.72 63.5151 439.702C55.7295 429.684 50.1091 418.157 47.0104 405.851C40.7679 379.95 48.6252 345.034 67.9261 332.853C77.5286 326.865 88.4554 325.683 98.1142 318.621C110.341 309.743 117.392 290.631 115.418 272.612C113.006 250.338 99.8092 234.401 87.8177 217.876C71.5617 195.688 58.4537 170.738 50.7109 143.836C46.7675 130.121 44.3636 115.838 45.3734 101.355C46.3833 86.8709 51.5048 71.815 61.4971 60.8684C84.8857 35.2052 126.713 45.9252 154.623 47.8115C171.5 48.9454 189.978 53.9521 208.035 52.9118C215.612 52.506 223.647 50.0318 229.041 44.9303C235.415 38.9076 237.127 30.9413 240.663 23.8857C245.593 13.9641 254.712 5.26074 266.006 -0.0832662C291.24 -11.9675 309.723 -0.126544 331.29 12.187Z" stroke="url(#paint26_linear_200_1684)" stroke-width="0.6" stroke-linecap="round" stroke-linejoin="round"/>
<path opacity="0.38" d="M337.256 15.6097C373.046 35.0559 406.202 40.0086 442.462 45.9156C473.494 50.9794 523.422 53.4446 546.604 76.0316C567.941 96.8178 572.756 125.358 570.372 154.568C569.45 165.931 555.728 190.7 555.588 202.545C555.369 221.134 564.548 238.307 567.476 256.677C570.662 277.381 565.579 298.509 553.324 315.496C547.296 323.68 539.545 330.627 535.359 340.108C527.626 357.853 548.204 381.021 547.492 399.165C547.517 403.766 546.606 408.324 544.814 412.562C542.246 417.985 537.492 422.074 532.783 425.739C518.723 436.534 487.563 441.345 470.967 446.425C445.153 454.329 416.431 453.491 392.326 467.257C375.352 476.945 360.401 493.504 341.047 492.986C324.15 492.54 312.76 479.81 298.243 472.408C285.11 464.968 264.105 471.425 249.474 472.472C230.183 473.849 210.863 474.932 191.549 475.431C162.132 476.122 131.752 475.48 105.792 461.54C84.1862 449.721 68.1101 429.855 61.0499 406.252C53.9542 381.606 59.5119 348.673 75.6276 335.992C83.613 329.693 92.827 327.644 101.046 320.373C111.397 311.183 117.303 292.894 115.264 275.524C112.82 254.18 100.94 238.406 90.2286 222.129C75.7513 200.309 64.2591 175.928 58.0676 149.836C54.6211 136.216 53.5018 122.111 54.7571 108.116C56.2821 93.8929 61.4774 79.374 71.1429 68.5303C93.8026 42.9984 133.331 50.1625 160.91 50.1903C177.378 50.2076 195.394 53.8927 213.096 52.4031C220.514 51.7778 228.341 49.3703 233.816 44.672C240.317 39.0915 242.696 31.8348 246.645 25.4207C252.197 16.428 261.52 8.63691 272.751 3.83399C297.304 -6.62658 315.941 4.03063 337.256 15.6097Z" stroke="url(#paint27_linear_200_1684)" stroke-width="0.6" stroke-linecap="round" stroke-linejoin="round"/>
<path opacity="0.46" d="M343.222 19.0322C377.894 36.859 409.897 42.564 444.178 49.7646C474.211 56.0713 520.086 60.9211 542.323 83.5274C562.34 103.864 567.434 131.158 566.305 159.085C565.837 170.529 554.309 193.709 554.324 205.636C554.372 223.534 562.418 240.214 564.885 257.97C567.552 277.926 562.83 298.17 551.61 314.886C546.106 322.939 539.048 329.84 535.078 338.971C527.626 356.329 544.714 378.303 543.145 395.74C542.925 400.134 541.898 404.45 540.115 408.471C537.573 413.643 533.092 417.628 528.667 421.247C515.106 432.312 486.548 437.97 470.476 443.585C446.089 452.103 418.872 452.553 395.605 465.577C379.219 474.796 364.553 489.785 345.975 489.774C329.755 489.741 318.341 478.829 304.154 472.481C291.248 466.069 271.44 471.717 257.198 472.528C238.672 473.592 220.113 474.267 201.557 474.275C173.237 474.171 144.267 472.532 119.366 459.053C98.6932 447.619 82.9461 428.977 75.1235 406.675C67.146 383.29 70.4207 352.481 83.3125 339.14C89.6868 332.56 97.2421 329.644 103.976 322.125C112.459 312.652 117.185 295.163 115.08 278.442C112.579 258.022 102.006 242.448 92.6137 226.375C79.9481 204.85 70.0709 181.092 65.3731 155.823C62.7429 142.365 62.3046 128.568 64.075 114.969C66.0693 101.076 71.4071 86.9896 80.717 76.2548C102.667 50.8322 139.896 54.4944 167.121 52.6444C183.204 51.5104 200.776 53.9602 218.11 51.9638C225.339 51.1791 232.968 48.8002 238.549 44.4703C245.147 39.338 248.139 32.7899 252.578 27.0378C258.754 18.9612 268.257 12.0756 279.488 7.83076C303.346 -1.30524 322.146 8.18433 343.222 19.0322Z" stroke="url(#paint28_linear_200_1684)" stroke-width="0.6" stroke-linecap="round" stroke-linejoin="round"/>
<path opacity="0.54" d="M349.194 22.4423C382.679 38.6578 414.081 43.5077 445.897 53.6137C474.507 62.6424 516.879 68.4317 538.059 91.0267C556.717 111 562.206 136.971 562.249 163.673C562.261 175.205 552.873 196.794 553.071 208.852C553.389 226.047 560.308 242.261 562.304 259.387C564.46 278.601 560.096 297.983 549.915 314.418C544.934 322.298 538.542 329.2 534.804 337.971C527.548 354.905 541.239 375.697 538.781 392.488C538.336 396.67 537.198 400.749 535.412 404.556C532.881 409.486 528.688 413.357 524.536 416.926C511.492 428.144 485.5 434.68 469.976 440.837C447.011 449.94 421.295 451.691 398.866 463.973C383.153 472.611 368.656 486.106 350.854 486.548C335.325 486.933 323.871 477.847 310.033 472.532C297.349 467.172 278.727 471.995 264.875 472.57C247.129 473.258 229.3 473.598 211.521 473.093C184.291 472.22 156.672 469.649 132.88 456.549C113.141 445.489 97.7408 428.05 89.2035 407.086C80.3441 384.962 81.33 356.248 90.9969 342.302C95.7668 335.413 101.644 331.653 106.894 323.886C113.51 314.117 117.082 297.435 114.912 281.364C112.35 261.88 103.065 246.475 95.011 230.637C84.1216 209.439 75.911 186.264 72.7669 161.847C70.9501 148.535 71.1796 135.024 73.4475 121.781C75.917 108.247 81.3676 94.6536 90.3769 83.9744C111.575 58.7178 146.544 58.8343 173.419 55.0936C189.076 52.9065 206.187 53.9805 223.185 51.5128C230.262 50.4832 237.676 48.1964 243.346 44.2443C250.038 39.5728 253.697 33.7342 258.59 28.6211C266.316 20.8404 275.807 15.0439 286.254 11.7261C309.461 4.00787 328.351 12.3509 349.194 22.4423Z" stroke="url(#paint29_linear_200_1684)" stroke-width="0.6" stroke-linecap="round" stroke-linejoin="round"/>
<path opacity="0.62" d="M355.159 25.8647C387.479 40.4885 417.297 47.7993 447.617 57.4498C475.642 66.322 513.625 75.903 533.778 98.5223C551.142 117.998 557.022 142.863 558.193 168.248C558.723 179.878 551.446 199.882 551.854 211.969C552.404 228.45 558.187 244.183 559.744 260.716C561.388 279.183 557.372 297.714 548.232 313.844C543.766 321.576 538.075 328.449 534.551 336.882C527.633 353.417 537.813 372.996 534.455 389.137C533.776 393.102 532.526 396.949 530.743 400.555C528.229 405.217 524.305 408.997 520.424 412.517C507.859 423.877 484.471 431.26 469.501 437.987C447.872 447.639 423.739 450.74 402.141 462.305C386.946 470.483 372.835 482.435 355.831 483.35C340.985 484.135 329.503 476.879 315.98 472.669C303.533 468.353 286.136 472.361 272.633 472.703C255.637 473.129 238.55 472.987 221.569 471.988C195.429 470.346 169.248 466.827 146.492 454.127C127.605 443.437 112.484 427.167 103.2 407.543C93.5227 386.643 92.2833 360.041 98.6814 345.45C101.84 338.28 106.033 333.646 109.824 325.638C114.584 315.589 116.963 299.703 114.74 284.285C112.122 265.725 104.134 250.504 97.3922 234.896C88.3077 214.018 81.8273 191.443 80.1226 167.847C79.1303 154.705 80.0321 141.488 82.8006 128.602C85.7394 115.398 91.3028 102.298 99.9735 91.6639C120.452 66.5548 153.131 63.1855 179.665 57.5162C194.914 54.2666 211.565 54.0063 228.221 51.0386C235.22 49.9375 241.958 47.5586 248.098 44.0205C254.917 39.7911 259.204 34.6519 264.545 30.2033C272.889 23.4506 282.551 18.5158 292.911 15.7149C315.474 9.28073 334.555 16.5044 355.159 25.8647Z" stroke="url(#paint30_linear_200_1684)" stroke-width="0.6" stroke-linecap="round" stroke-linejoin="round"/>
<path opacity="0.69" d="M361.125 29.2873C392.26 42.3414 420.958 50.4818 449.346 61.3023C476.315 71.5791 510.401 83.3687 529.514 106.009C545.559 125.023 551.927 148.629 554.134 172.836C555.202 184.542 550.007 202.968 550.611 215.134C551.396 230.943 556.113 246.186 557.174 262.082C558.307 279.804 554.632 297.503 546.538 313.309C542.601 320.896 537.593 327.762 534.275 335.883C527.637 352.03 534.37 370.412 530.101 385.888C529.187 389.623 527.823 393.234 526.038 396.64C523.369 400.95 520.089 404.848 516.299 408.213C504.286 419.748 483.404 427.98 468.983 435.249C448.823 445.458 426.153 449.903 405.393 460.727C390.81 468.347 376.956 478.831 360.726 480.211C346.589 481.39 335.063 475.974 321.916 472.75C309.694 469.474 293.465 472.678 280.366 472.775C264.087 472.918 247.811 472.24 231.6 470.744C206.558 468.306 181.763 463.825 160.084 451.576C142.106 441.224 127.328 426.117 117.37 407.911C106.718 388.315 103.206 363.799 106.395 348.593C107.959 341.131 110.468 335.624 112.784 327.384C115.674 317.052 116.873 301.966 114.598 287.2C111.926 269.552 105.219 254.525 99.8221 239.127C92.5265 218.579 87.7195 196.561 87.4983 173.825C87.3471 160.863 88.9248 147.938 92.1896 135.393C95.4816 122.316 101.415 110.051 109.625 99.3547C129.375 74.3768 159.782 67.5541 185.944 59.9204C200.8 55.5991 216.996 53.9918 233.341 50.5597C240.16 49.2275 246.758 46.9406 252.94 43.7665C259.869 39.9886 264.795 35.5649 270.587 31.768C279.496 26.0437 289.346 21.9377 299.681 19.639C321.568 14.5615 340.74 20.7343 361.125 29.2873Z" stroke="url(#paint31_linear_200_1684)" stroke-width="0.6" stroke-linecap="round" stroke-linejoin="round"/>
<path opacity="0.77" d="M367.093 32.6975C397.047 44.2234 424.605 53.2154 451.062 65.1515C476.987 76.8364 507.192 90.8253 525.234 113.505C539.99 132.051 546.913 154.445 550.075 177.424C551.721 189.204 548.555 206.05 549.368 218.3C550.381 233.407 554.014 248.128 554.603 263.449C555.228 280.429 551.885 297.323 544.841 312.786C541.423 320.213 537.142 327.056 534.025 334.782C527.709 350.538 530.982 367.722 525.762 382.534C524.633 386.035 523.158 389.415 521.359 392.623C518.762 396.696 515.685 400.441 512.195 403.778C500.721 415.485 482.373 424.464 468.514 432.374C449.729 443.087 428.611 448.902 408.695 459.013C394.678 466.145 381.127 475.09 365.673 476.923C352.215 478.516 340.665 474.916 327.822 472.74C315.824 470.505 300.791 472.9 288.082 472.761C272.541 472.62 257.022 471.565 241.605 469.601C217.653 466.393 194.26 460.995 173.642 449.099C156.5 439.09 142.01 425.11 131.389 408.334C119.826 390.005 114.108 367.579 114.038 351.744C114.173 344.184 114.714 336.637 115.66 329.135C116.879 316.13 116.45 303.022 114.385 290.124C111.653 273.413 106.247 258.557 102.162 243.388C96.3287 222.737 93.8462 201.281 94.8094 179.841C95.4935 167.056 97.7456 154.402 101.515 142.166C105.322 129.521 111.322 117.644 119.24 107.077C138.274 82.2338 166.419 71.9736 192.206 62.3883C206.662 57.0207 222.383 54.1426 238.342 50.1172C244.975 48.5724 251.439 46.3798 257.644 43.571C264.696 40.248 270.263 36.5271 276.509 33.3692C285.927 28.7161 295.965 25.447 306.315 23.663C327.621 19.7909 346.915 24.9484 367.093 32.6975Z" stroke="url(#paint32_linear_200_1684)" stroke-width="0.6" stroke-linecap="round" stroke-linejoin="round"/>
<path opacity="0.85" d="M373.06 36.12C401.815 46.127 428.218 55.9798 452.782 68.9877C477.618 82.1501 504.003 98.2595 520.967 121.004C534.437 139.069 541.873 160.213 546.03 182.016C548.3 193.853 547.088 209.14 548.126 221.464C549.352 235.88 551.905 250.162 552.034 264.815C552.127 281.054 549.092 297.159 543.095 312.249C540.205 319.533 536.593 326.364 533.699 333.714C527.676 349.087 527.54 365.084 521.376 379.207C520.026 382.467 518.435 385.621 516.617 388.644C514.091 392.49 511.213 396.093 508.021 399.406C497.104 411.317 481.235 421.042 467.977 429.507C450.544 440.706 430.998 447.962 411.924 457.319C398.518 463.894 385.232 471.344 370.564 473.647C357.78 475.665 346.196 473.921 333.712 472.74C321.939 471.544 308.086 473.14 295.77 472.752C280.956 472.314 266.191 470.849 251.58 468.367C228.721 464.378 206.751 457.986 187.193 446.551C170.863 436.88 156.66 423.998 145.442 408.684C133.862 392.586 125.775 374.243 121.7 354.832C120.142 346.918 119.106 338.911 118.599 330.862C117.786 318.177 116.326 305.543 114.225 293.008C111.448 277.223 107.307 262.57 104.621 247.613C100.672 227.276 99.86 206.452 102.214 185.868C103.748 173.313 106.663 160.966 110.906 149.052C115.185 136.813 121.239 125.268 128.872 114.79C147.164 90.0743 173.082 76.3996 198.463 64.8271C212.548 58.4073 227.789 54.1211 243.342 49.6329C249.793 47.8585 256.146 45.7497 262.378 43.315C269.528 40.4402 275.763 37.3746 282.443 34.932C292.33 31.2823 302.609 28.8021 313.071 27.542C333.668 24.9911 353.101 29.1782 373.06 36.12Z" stroke="url(#paint33_linear_200_1684)" stroke-width="0.6" stroke-linecap="round" stroke-linejoin="round"/>
<path opacity="0.92" d="M379.027 39.5425C406.59 48.0594 431.792 58.7882 454.449 72.823C478.15 87.478 500.785 105.658 516.65 128.49C528.863 146.068 536.868 165.949 541.896 186.583C544.809 198.457 545.533 212.208 546.811 224.65C548.22 238.38 549.708 252.173 549.373 266.17C548.972 281.647 546.281 296.98 541.388 311.669C539.001 318.801 536.122 325.638 533.408 332.669C527.67 347.642 524.143 362.485 517.009 375.913C515.425 378.878 513.785 381.854 511.932 384.706C509.477 388.316 506.802 391.772 503.923 395.055C493.592 407.163 480.189 417.59 467.523 426.786C451.422 438.45 433.502 447.149 415.228 455.754C402.414 461.847 389.406 467.753 375.526 470.512C363.444 472.908 351.822 472.979 339.661 472.877C328.122 472.738 315.462 473.537 303.53 472.885C289.435 472.137 275.422 470.262 261.626 467.276C239.858 462.517 219.275 455.163 200.796 444.167C185.245 434.833 171.311 423.036 159.538 409.235C146.732 393.985 136.548 376.712 129.403 358.121C126.196 349.844 123.561 341.357 121.517 332.718C118.869 321.528 116.499 308.847 114.041 296.034C111.22 281.177 108.37 266.679 106.959 251.941C104.91 231.907 105.77 211.681 109.51 191.892C111.892 179.565 115.475 167.501 120.207 155.872C124.961 144.073 131.08 132.872 138.439 122.498C155.998 97.9265 179.685 80.85 204.667 67.2649C218.655 59.9205 233.287 53.8777 248.38 49.2129C254.603 47.2059 260.964 45.1948 267.118 43.142C274.394 40.7094 281.254 38.4101 288.38 36.5904C298.665 33.9479 309.174 32.2713 319.77 31.5827C339.807 30.1608 359.331 33.447 379.027 39.5425Z" stroke="url(#paint34_linear_200_1684)" stroke-width="0.6" stroke-linecap="round" stroke-linejoin="round"/>
<path d="M271.491 466.034C388.301 497.333 508.432 428.015 539.811 311.207C571.19 194.4 501.934 74.336 385.124 43.0369C268.314 11.7377 148.184 81.0558 116.805 197.863C85.4258 314.67 154.681 434.734 271.491 466.034Z" stroke="url(#paint35_linear_200_1684)" stroke-width="0.6" stroke-linecap="round" stroke-linejoin="round"/>
</g>
<defs>
<linearGradient id="paint0_linear_200_1684" x1="92.7935" y1="196.219" x2="510.343" y2="270.63" gradientUnits="userSpaceOnUse">
<stop stop-color="#00F0FF"/>
<stop offset="1" stop-color="#0057E8"/>
</linearGradient>
<linearGradient id="paint1_linear_200_1684" x1="200.999" y1="44.9062" x2="445.457" y2="402.169" gradientUnits="userSpaceOnUse">
<stop stop-color="#00F0FF"/>
<stop offset="1" stop-color="#0057E8"/>
</linearGradient>
<linearGradient id="paint2_linear_200_1684" x1="199.196" y1="43.1374" x2="445.612" y2="409.667" gradientUnits="userSpaceOnUse">
<stop stop-color="#00F0FF"/>
<stop offset="1" stop-color="#0057E8"/>
</linearGradient>
<linearGradient id="paint3_linear_200_1684" x1="197.366" y1="41.3298" x2="446.01" y2="417.261" gradientUnits="userSpaceOnUse">
<stop stop-color="#00F0FF"/>
<stop offset="1" stop-color="#0057E8"/>
</linearGradient>
<linearGradient id="paint4_linear_200_1684" x1="195.443" y1="39.4825" x2="446.718" y2="424.948" gradientUnits="userSpaceOnUse">
<stop stop-color="#00F0FF"/>
<stop offset="1" stop-color="#0057E8"/>
</linearGradient>
<linearGradient id="paint5_linear_200_1684" x1="193.605" y1="37.5825" x2="447.421" y2="432.481" gradientUnits="userSpaceOnUse">
<stop stop-color="#00F0FF"/>
<stop offset="1" stop-color="#0057E8"/>
</linearGradient>
<linearGradient id="paint6_linear_200_1684" x1="191.837" y1="35.7233" x2="448.586" y2="440.048" gradientUnits="userSpaceOnUse">
<stop stop-color="#00F0FF"/>
<stop offset="1" stop-color="#0057E8"/>
</linearGradient>
<linearGradient id="paint7_linear_200_1684" x1="189.9" y1="33.7779" x2="449.542" y2="447.639" gradientUnits="userSpaceOnUse">
<stop stop-color="#00F0FF"/>
<stop offset="1" stop-color="#0057E8"/>
</linearGradient>
<linearGradient id="paint8_linear_200_1684" x1="188.123" y1="31.8708" x2="450.791" y2="455.171" gradientUnits="userSpaceOnUse">
<stop stop-color="#00F0FF"/>
<stop offset="1" stop-color="#0057E8"/>
</linearGradient>
<linearGradient id="paint9_linear_200_1684" x1="186.286" y1="29.918" x2="452" y2="462.676" gradientUnits="userSpaceOnUse">
<stop stop-color="#00F0FF"/>
<stop offset="1" stop-color="#0057E8"/>
</linearGradient>
<linearGradient id="paint10_linear_200_1684" x1="184.482" y1="27.9673" x2="453.297" y2="470.141" gradientUnits="userSpaceOnUse">
<stop stop-color="#00F0FF"/>
<stop offset="1" stop-color="#0057E8"/>
</linearGradient>
<linearGradient id="paint11_linear_200_1684" x1="182.687" y1="26.0033" x2="454.617" y2="477.621" gradientUnits="userSpaceOnUse">
<stop stop-color="#00F0FF"/>
<stop offset="1" stop-color="#0057E8"/>
</linearGradient>
<linearGradient id="paint12_linear_200_1684" x1="180.87" y1="24.02" x2="455.966" y2="484.999" gradientUnits="userSpaceOnUse">
<stop stop-color="#00F0FF"/>
<stop offset="1" stop-color="#0057E8"/>
</linearGradient>
<linearGradient id="paint13_linear_200_1684" x1="179.075" y1="22.0382" x2="457.364" y2="492.392" gradientUnits="userSpaceOnUse">
<stop stop-color="#00F0FF"/>
<stop offset="1" stop-color="#0057E8"/>
</linearGradient>
<linearGradient id="paint14_linear_200_1684" x1="177.226" y1="20.0341" x2="458.721" y2="499.791" gradientUnits="userSpaceOnUse">
<stop stop-color="#00F0FF"/>
<stop offset="1" stop-color="#0057E8"/>
</linearGradient>
<linearGradient id="paint15_linear_200_1684" x1="175.468" y1="17.9962" x2="460.193" y2="507.099" gradientUnits="userSpaceOnUse">
<stop stop-color="#00F0FF"/>
<stop offset="1" stop-color="#0057E8"/>
</linearGradient>
<linearGradient id="paint16_linear_200_1684" x1="92.794" y1="196.218" x2="510.343" y2="270.629" gradientUnits="userSpaceOnUse">
<stop stop-color="#00F0FF"/>
<stop offset="1" stop-color="#0057E8"/>
</linearGradient>
<linearGradient id="paint17_linear_200_1684" x1="209.66" y1="38.1618" x2="457.466" y2="384.253" gradientUnits="userSpaceOnUse">
<stop stop-color="#00F0FF"/>
<stop offset="1" stop-color="#0057E8"/>
</linearGradient>
<linearGradient id="paint18_linear_200_1684" x1="216.118" y1="29.622" x2="468.903" y2="373.994" gradientUnits="userSpaceOnUse">
<stop stop-color="#00F0FF"/>
<stop offset="1" stop-color="#0057E8"/>
</linearGradient>
<linearGradient id="paint19_linear_200_1684" x1="222.484" y1="21.1239" x2="480.14" y2="363.7" gradientUnits="userSpaceOnUse">
<stop stop-color="#00F0FF"/>
<stop offset="1" stop-color="#0057E8"/>
</linearGradient>
<linearGradient id="paint20_linear_200_1684" x1="223.677" y1="11.4389" x2="487.073" y2="356.801" gradientUnits="userSpaceOnUse">
<stop stop-color="#00F0FF"/>
<stop offset="1" stop-color="#0057E8"/>
</linearGradient>
<linearGradient id="paint21_linear_200_1684" x1="218.358" y1="0.522" x2="489.83" y2="354.412" gradientUnits="userSpaceOnUse">
<stop stop-color="#00F0FF"/>
<stop offset="1" stop-color="#0057E8"/>
</linearGradient>
<linearGradient id="paint22_linear_200_1684" x1="212.52" y1="-10.4703" x2="492.354" y2="352.432" gradientUnits="userSpaceOnUse">
<stop stop-color="#00F0FF"/>
<stop offset="1" stop-color="#0057E8"/>
</linearGradient>
<linearGradient id="paint23_linear_200_1684" x1="105.044" y1="-15.7878" x2="402.673" y2="470.216" gradientUnits="userSpaceOnUse">
<stop stop-color="#00F0FF"/>
<stop offset="1" stop-color="#0057E8"/>
</linearGradient>
<linearGradient id="paint24_linear_200_1684" x1="112.704" y1="-7.4386" x2="403.282" y2="465.665" gradientUnits="userSpaceOnUse">
<stop stop-color="#00F0FF"/>
<stop offset="1" stop-color="#0057E8"/>
</linearGradient>
<linearGradient id="paint25_linear_200_1684" x1="120.392" y1="0.850273" x2="403.955" y2="461.023" gradientUnits="userSpaceOnUse">
<stop stop-color="#00F0FF"/>
<stop offset="1" stop-color="#0057E8"/>
</linearGradient>
<linearGradient id="paint26_linear_200_1684" x1="128.102" y1="8.94382" x2="404.859" y2="456.24" gradientUnits="userSpaceOnUse">
<stop stop-color="#00F0FF"/>
<stop offset="1" stop-color="#0057E8"/>
</linearGradient>
<linearGradient id="paint27_linear_200_1684" x1="136.196" y1="15.6578" x2="407.239" y2="450.33" gradientUnits="userSpaceOnUse">
<stop stop-color="#00F0FF"/>
<stop offset="1" stop-color="#0057E8"/>
</linearGradient>
<linearGradient id="paint28_linear_200_1684" x1="144.892" y1="19.7912" x2="412.265" y2="442.249" gradientUnits="userSpaceOnUse">
<stop stop-color="#00F0FF"/>
<stop offset="1" stop-color="#0057E8"/>
</linearGradient>
<linearGradient id="paint29_linear_200_1684" x1="153.591" y1="23.8972" x2="417.321" y2="434.151" gradientUnits="userSpaceOnUse">
<stop stop-color="#00F0FF"/>
<stop offset="1" stop-color="#0057E8"/>
</linearGradient>
<linearGradient id="paint30_linear_200_1684" x1="162.206" y1="27.9654" x2="422.308" y2="426.075" gradientUnits="userSpaceOnUse">
<stop stop-color="#00F0FF"/>
<stop offset="1" stop-color="#0057E8"/>
</linearGradient>
<linearGradient id="paint31_linear_200_1684" x1="170.745" y1="31.9821" x2="427.129" y2="418.023" gradientUnits="userSpaceOnUse">
<stop stop-color="#00F0FF"/>
<stop offset="1" stop-color="#0057E8"/>
</linearGradient>
<linearGradient id="paint32_linear_200_1684" x1="179.277" y1="35.9506" x2="431.933" y2="411.493" gradientUnits="userSpaceOnUse">
<stop stop-color="#00F0FF"/>
<stop offset="1" stop-color="#0057E8"/>
</linearGradient>
<linearGradient id="paint33_linear_200_1684" x1="187.68" y1="39.7881" x2="436.673" y2="405.515" gradientUnits="userSpaceOnUse">
<stop stop-color="#00F0FF"/>
<stop offset="1" stop-color="#0057E8"/>
</linearGradient>
<linearGradient id="paint34_linear_200_1684" x1="195.599" y1="43.393" x2="441.318" y2="399.811" gradientUnits="userSpaceOnUse">
<stop stop-color="#00F0FF"/>
<stop offset="1" stop-color="#0057E8"/>
</linearGradient>
<linearGradient id="paint35_linear_200_1684" x1="203.076" y1="46.7235" x2="445.6" y2="394.67" gradientUnits="userSpaceOnUse">
<stop stop-color="#00F0FF"/>
<stop offset="1" stop-color="#0057E8"/>
</linearGradient>
<clipPath id="clip0_200_1684">
<rect width="646" height="544" fill="white"/>
</clipPath>
</defs>
</svg>
