<svg width="926" height="661" viewBox="0 0 926 661" fill="none" xmlns="http://www.w3.org/2000/svg">
<g clip-path="url(#clip0_200_1439)">
<path d="M606.573 494.668C744.056 415.286 791.215 239.568 711.906 102.19C632.598 -35.1875 456.853 -82.2022 319.37 -2.8203C181.887 76.5616 134.728 252.28 214.037 389.657C293.345 527.035 469.09 574.05 606.573 494.668Z" stroke="url(#paint0_linear_200_1439)" stroke-width="0.8" stroke-linecap="round" stroke-linejoin="round"/>
<path opacity="0.94" d="M536.047 -34.1531C578.304 -24.0407 616.929 -4.65046 647.109 22.997C657.188 32.3738 666.758 42.2844 675.777 52.6861C691.819 70.5099 706.399 89.5973 719.376 109.763C736.957 137.492 749.508 168.106 756.454 200.201C765.059 240.128 764.135 283.897 750.822 324.939C734.025 376.567 702.126 415.618 664.73 451.269C632.876 481.635 598.182 510.474 556.518 524.502C524.119 535.473 488.86 536.34 453.856 534.526C430.113 533.373 406.51 530.217 383.301 525.09C365.147 521.112 347.416 515.41 330.349 508.062C295.294 492.673 264.101 469.687 239.022 440.765C213.999 411.844 195.367 377.961 184.345 341.332C173.684 305.944 170.018 268.304 172.016 229.911C172.745 210.082 175.633 190.39 180.631 171.183C190.362 135.575 208.491 104.731 228.547 76.1538C245.288 52.3492 263.242 30.7442 285.7 13.0412C299.857 2.01727 315.278 -7.27769 331.636 -14.6462C347.93 -21.9707 364.847 -27.8178 382.185 -32.117C431.148 -44.4054 483.75 -46.7024 536.047 -34.1531Z" stroke="url(#paint1_linear_200_1439)" stroke-width="0.8" stroke-linecap="round" stroke-linejoin="round"/>
<path opacity="0.88" d="M534.654 -36.669C578.293 -27.383 619.129 -7.84763 648.785 22.2846C658.599 32.2857 667.739 42.9994 676.977 53.8821C693.136 72.9026 709.463 91.6999 723.461 111.321C743.161 138.434 757.681 168.956 766.29 201.351C777.008 241.986 776.734 288.322 761.084 329.489C741.285 381.332 704.37 414.987 665.001 451.538C632.026 482.355 599.656 517.173 556.856 531.307C523.725 542.279 486.925 538.574 451.498 535.878C426.969 534.068 402.548 531.013 378.331 526.725C359.921 523.582 341.849 518.716 324.353 512.19C288.184 498.038 256.06 475.201 230.812 445.694C205.652 416.139 187.512 381.267 177.752 343.693C168.287 307.572 166.452 269.493 168.071 230.517C168.881 210.663 170.536 190.589 176.054 170.816C186.072 134.873 206.653 105.204 226.513 75.8951C242.991 51.5381 258.653 28.6947 280.865 10.2471C294.99 -1.18798 310.717 -10.4859 327.543 -17.3487C344.192 -24.1521 361.404 -29.4822 378.983 -33.2779C428.593 -44.5182 481.7 -47.9657 534.654 -36.669Z" stroke="url(#paint2_linear_200_1439)" stroke-width="0.8" stroke-linecap="round" stroke-linejoin="round"/>
<path opacity="0.81" d="M533.241 -39.1903C578.291 -30.7052 621.313 -11.0669 650.446 21.5502C660.058 32.301 668.81 43.7321 678.156 55.1437C694.488 75.0498 712.138 93.7727 727.6 112.928C749.381 139.469 765.864 169.946 776.156 202.706C788.966 244.062 789.347 292.948 771.365 334.223C748.474 386.274 706.537 414.496 665.307 451.996C631.084 483.139 601.09 524.004 557.101 538.248C523.249 549.242 484.973 540.927 448.996 537.281C424.128 534.751 398.344 531.975 373.193 528.44C354.551 526.047 336.17 521.941 318.285 516.174C281.019 503.276 247.931 480.56 222.509 450.419C197.23 420.243 179.598 384.416 171.106 345.969C162.858 309.102 162.781 270.529 164.079 231.02C164.727 210.837 165.665 190.375 171.426 170.364C181.708 134.099 204.767 105.574 224.275 75.5819C240.507 50.677 253.844 26.5862 275.843 7.40295C289.599 -4.61156 306.19 -13.6175 323.131 -20.1369C340.145 -26.4104 357.663 -31.2208 375.493 -34.5156C426.013 -44.6198 479.634 -49.2511 533.241 -39.1903Z" stroke="url(#paint3_linear_200_1439)" stroke-width="0.8" stroke-linecap="round" stroke-linejoin="round"/>
<path opacity="0.75" d="M531.848 -41.7066C578.315 -34.1102 623.517 -14.2811 652.121 20.8374C661.546 32.288 669.896 44.4864 679.337 56.4058C695.855 77.2186 714.853 95.8383 731.75 114.574C755.288 140.694 773.775 169.605 785.999 204.09C800.926 246.137 801.961 297.645 781.623 338.986C755.796 391.269 708.764 414.128 665.606 452.487C630.158 484.071 602.535 530.873 557.348 545.19C522.755 556.217 482.89 543.245 446.485 538.734C420.817 535.525 394.056 532.864 368.052 530.244C348.659 528.268 330.219 525.6 312.149 520.354C274.37 509.386 239.636 485.806 214.156 455.344C188.744 424.527 171.622 387.726 164.414 348.428C157.38 310.832 159.037 271.848 160.019 231.72C160.51 211.191 160.709 190.352 166.584 170.05C177.149 133.468 202.685 106.088 221.943 75.2969C237.913 49.8396 248.941 24.5059 270.714 4.56587C284.331 -7.86093 301.44 -16.7998 318.691 -22.879C335.943 -28.9582 353.733 -32.5184 371.956 -35.695C423.435 -44.7208 477.596 -50.5649 531.848 -41.7066Z" stroke="url(#paint4_linear_200_1439)" stroke-width="0.8" stroke-linecap="round" stroke-linejoin="round"/>
<path opacity="0.69" d="M530.452 -44.2233C578.336 -37.5156 625.745 -17.5247 653.804 20.0909C662.919 32.2978 670.971 45.2026 680.535 57.6009C697.225 79.2993 717.559 97.8658 735.903 116.132C761.52 141.755 781.926 170.233 795.903 205.241C812.989 248.026 814.575 302.003 791.955 343.466C763.125 395.963 711.091 413.376 665.986 452.607C629.36 484.518 603.976 537.348 557.666 551.793C522.336 562.838 480.886 545.192 444.066 539.766C417.603 535.862 389.865 533.314 363.022 531.559C343.353 530.277 324.628 528.605 306.124 524.046C267.613 514.543 231.646 490.9 205.927 459.732C179.9 428.25 163.864 389.673 157.824 350.433C152.036 312.117 155.475 272.681 156.095 231.973C156.429 211.099 155.911 189.872 161.975 169.263C172.804 132.359 200.814 106.141 219.792 74.5962C235.517 48.591 244.252 22.0188 265.779 1.33424C279.258 -11.576 296.799 -20.3989 314.433 -26.0368C332.066 -31.6746 350.132 -34.5358 368.603 -37.3067C420.861 -44.8388 475.516 -51.9256 530.452 -44.2233Z" stroke="url(#paint5_linear_200_1439)" stroke-width="0.8" stroke-linecap="round" stroke-linejoin="round"/>
<path opacity="0.63" d="M529.058 -46.74C578.363 -40.9376 627.973 -20.7682 655.483 19.3611C664.351 32.2877 672.039 45.952 681.723 58.9004C698.582 81.5011 720.287 99.881 740.03 117.789C767.71 142.911 790.03 170.973 805.787 206.6C824.902 250.072 827.16 306.603 802.235 348.271C770.386 400.977 713.337 412.995 666.274 453.202C628.463 485.475 605.459 544.335 557.897 558.855C521.831 569.917 478.934 547.616 441.552 541.29C413.876 536.773 385.926 534.131 357.892 533.383C337.935 532.774 318.95 532.139 300 528.246C260.632 520.139 223.551 496.52 197.659 464.734C171.386 432.703 156.04 392.883 151.226 352.935C146.627 313.848 151.797 273.947 152.155 232.687C152.331 211.467 151.142 189.881 157.319 169.053C168.417 131.809 198.901 106.754 217.611 74.4765C233.085 47.9399 239.5 20.1038 260.814 -1.31645C274.129 -14.6812 292.15 -23.4294 310.148 -28.6303C328.146 -33.8312 346.464 -35.9646 365.221 -38.3375C418.299 -44.9357 473.527 -53.2264 529.058 -46.74Z" stroke="url(#paint6_linear_200_1439)" stroke-width="0.8" stroke-linecap="round" stroke-linejoin="round"/>
<path opacity="0.56" d="M527.663 -49.2561C578.394 -44.3757 630.206 -24.0278 657.162 18.6318C665.767 32.2737 673.128 46.6899 682.903 60.1628C699.935 83.6491 723.01 101.913 744.182 119.419C773.925 144.039 798.203 171.66 815.656 207.884C836.885 252.064 839.838 311.193 812.448 352.933C777.612 405.858 715.543 412.497 666.528 453.592C627.539 486.264 606.847 551.082 558.112 565.646C521.305 576.741 476.894 549.767 439.017 542.559C410.56 537.33 381.673 534.788 352.737 534.968C332.51 535.037 313.223 535.393 293.85 532.209C253.67 525.598 215.441 501.868 189.209 469.42C162.752 436.679 147.987 395.889 144.437 355.154C141.051 315.338 147.969 274.977 148.015 233.151C148.017 211.58 146.078 189.598 152.48 168.526C163.86 130.965 196.8 107.067 215.314 74.0585C230.526 46.9695 234.632 17.8904 255.716 -4.26992C268.888 -18.1014 287.38 -26.7414 305.727 -31.5099C324.073 -36.2784 342.696 -37.6872 361.724 -39.7377C415.708 -45.0576 471.503 -54.6609 527.663 -49.2561Z" stroke="url(#paint7_linear_200_1439)" stroke-width="0.8" stroke-linecap="round" stroke-linejoin="round"/>
<path opacity="0.5" d="M526.251 -51.777C578.424 -47.8142 632.454 -27.2833 658.836 17.9188C667.215 32.2682 674.133 47.4051 684.087 61.4081C701.305 85.8011 725.75 103.95 748.318 121.043C780.144 145.149 806.355 172.288 825.537 209.189C848.861 254.073 852.47 315.752 822.814 357.618C784.954 410.77 717.899 412.038 666.903 453.997C626.735 487.067 608.362 557.881 558.428 572.588C520.885 583.701 474.948 552.033 436.588 543.963C407.347 538.004 377.497 535.561 347.671 536.685C327.182 537.398 307.613 538.803 287.806 536.306C246.844 531.147 207.415 507.363 180.952 474.246C154.205 440.856 140.127 399.036 137.837 357.531C135.664 316.986 144.331 276.164 144.068 233.755C143.909 211.856 141.252 189.485 147.831 168.157C159.494 130.207 194.889 107.538 213.073 73.7623C228.022 46.1209 229.85 15.7534 250.69 -7.0971C263.721 -21.4664 282.688 -29.9439 301.361 -34.2677C320.034 -38.5916 338.954 -39.2424 358.296 -40.8694C413.13 -45.1587 469.495 -56.0914 526.251 -51.777Z" stroke="url(#paint8_linear_200_1439)" stroke-width="0.8" stroke-linecap="round" stroke-linejoin="round"/>
<path opacity="0.44" d="M524.857 -54.2938C578.448 -51.2908 634.725 -30.5513 660.498 17.1845C668.647 32.258 675.272 48.1557 685.268 62.6697C702.658 87.9484 728.478 105.965 752.458 122.65C786.369 146.243 814.476 173.033 835.423 210.477C860.843 256.065 865.102 320.311 833.11 362.301C792.251 415.651 720.172 411.557 667.223 454.404C625.882 487.857 609.816 564.645 558.697 579.446C520.419 590.63 472.971 554.218 434.106 545.299C404.089 538.601 373.261 536.257 342.569 538.337C321.818 539.694 301.939 542.124 281.714 540.319C239.953 536.607 199.353 512.795 172.663 478.992C145.973 445.189 132.246 401.998 131.184 359.84C130.221 318.512 140.622 277.279 140.047 234.304C139.736 212.043 136.336 189.312 143.095 167.711C155.022 129.51 192.935 107.836 210.83 73.3402C225.538 45.1342 225.077 13.5828 245.701 -10.0578C258.579 -24.7895 278.022 -33.2466 297.061 -37.1335C316.099 -41.0205 335.313 -41.0389 354.865 -42.1814C410.572 -45.2724 467.462 -57.4933 524.857 -54.2938Z" stroke="url(#paint9_linear_200_1439)" stroke-width="0.8" stroke-linecap="round" stroke-linejoin="round"/>
<path opacity="0.38" d="M523.456 -56.7937C578.474 -54.7838 636.993 -33.8192 662.175 16.4547C670.082 32.2313 676.377 48.8265 686.446 63.9316C704.019 90.0626 731.186 108.047 756.609 124.279C792.586 147.354 822.625 173.732 845.289 211.761C872.819 258.074 877.716 324.865 843.404 366.985C799.52 420.561 722.459 411.081 667.546 454.795C625.022 488.663 611.263 571.426 558.958 586.32C519.958 597.472 470.979 556.382 431.622 546.635C400.829 539.196 369.006 536.95 337.466 539.99C316.435 541.987 296.279 545.45 275.599 544.344C233.039 542.079 191.277 518.206 164.326 483.78C137.375 449.353 124.393 405.112 124.546 362.154C124.787 320.13 136.962 278.407 136.054 234.879C135.585 212.272 131.468 189.152 138.399 167.311C150.532 128.738 190.964 108.327 208.596 73.0817C223.053 44.3444 220.237 11.52 240.582 -12.8741C253.318 -28.0725 273.236 -36.4381 292.618 -39.8759C312 -43.3138 331.512 -42.6454 351.328 -43.3777C407.992 -45.3736 465.445 -58.9617 523.456 -56.7937Z" stroke="url(#paint10_linear_200_1439)" stroke-width="0.8" stroke-linecap="round" stroke-linejoin="round"/>
<path opacity="0.31" d="M522.129 -59.2921C578.569 -58.2586 639.353 -37.081 663.921 15.7432C671.603 32.2273 677.499 49.6443 687.699 65.1951C705.431 92.2616 733.995 110.031 760.813 125.922C798.878 148.466 830.828 174.445 855.255 213.088C884.885 260.089 890.432 329.447 853.785 371.621C806.915 425.415 724.929 410.67 667.969 455.158C624.337 489.498 612.819 578.146 559.346 593.138C519.588 604.319 469.108 558.507 429.255 547.949C397.649 539.735 364.768 537.588 332.353 541.622C311.027 544.254 290.606 548.771 269.504 548.374C226.163 547.489 183.3 523.661 156.018 488.539C128.735 453.416 116.446 408.057 117.894 364.463C119.348 321.71 133.272 279.526 132.077 235.404C131.413 212.459 126.679 188.978 133.702 166.858C146.167 127.98 189.01 108.696 206.374 72.7192C220.569 43.4295 215.445 9.36217 235.626 -15.7542C248.203 -31.4238 268.596 -39.6979 288.347 -42.7155C308.099 -45.7331 327.878 -44.3324 347.951 -44.6212C405.415 -45.4744 463.401 -60.3841 522.129 -59.2921Z" stroke="url(#paint11_linear_200_1439)" stroke-width="0.8" stroke-linecap="round" stroke-linejoin="round"/>
<path opacity="0.25" d="M520.667 -61.8266C578.539 -61.8029 641.573 -40.3623 665.533 14.9956C672.968 32.1994 678.521 50.3637 688.812 66.439C706.72 94.4456 736.685 111.983 764.881 127.528C805.086 149.484 838.899 175.104 865.04 214.35C896.765 262.125 902.98 333.984 863.984 376.332C814.089 430.353 727.116 410.238 668.188 455.609C623.382 490.332 614.184 584.976 559.456 600.115C518.962 611.313 466.966 560.773 426.671 549.4C394.332 540.412 360.456 538.343 327.254 543.329C305.68 546.484 284.923 552.054 263.411 552.386C219.226 552.918 175.054 529.044 147.686 493.309C120.318 457.575 108.513 411.077 111.241 366.772C113.979 323.291 129.589 280.612 128.072 235.957C127.184 212.648 121.717 188.775 129 166.421C141.73 127.221 187.045 109.099 204.213 72.3906C218.163 42.553 210.729 7.24276 230.664 -18.6182C243.093 -34.7379 263.962 -42.9205 284.057 -45.489C304.152 -48.0575 324.225 -45.9533 344.593 -45.8775C402.84 -45.5924 461.364 -61.8404 520.667 -61.8266Z" stroke="url(#paint12_linear_200_1439)" stroke-width="0.8" stroke-linecap="round" stroke-linejoin="round"/>
<path opacity="0.19" d="M519.257 -64.3474C578.56 -65.3335 643.865 -43.6421 667.213 14.2661C674.4 32.2607 679.594 51.0969 689.997 67.6844C708.105 96.5478 739.409 114.015 769.039 129.141C811.291 150.591 847.051 175.804 874.922 215.655C908.779 264.001 915.597 338.539 874.28 381.016C821.383 435.251 729.39 409.757 668.498 455.996C622.497 491.113 615.622 591.736 559.76 606.91C518.524 618.142 465.033 562.863 424.175 550.661C391.075 540.907 356.161 538.946 322.166 544.932C300.275 548.806 279.295 555.405 257.349 556.425C212.369 558.387 167.094 534.503 139.411 498.077C111.729 461.651 100.665 414.119 104.58 369.114C108.47 324.87 125.889 281.765 124.081 236.532C123.108 212.879 116.835 188.611 124.311 166.005C137.322 126.488 185.099 109.506 201.932 72.0478C215.62 41.6578 205.877 5.10466 225.587 -21.5131C237.869 -38.0828 259.23 -46.1695 279.669 -48.2889C300.107 -50.4083 320.54 -47.5828 341.094 -47.1358C400.263 -45.6934 459.342 -63.3463 519.257 -64.3474Z" stroke="url(#paint13_linear_200_1439)" stroke-width="0.8" stroke-linecap="round" stroke-linejoin="round"/>
<path opacity="0.13" d="M517.861 -66.8638C578.567 -68.8853 646.173 -46.9176 668.886 13.5532C675.875 32.1553 680.665 51.83 691.177 68.9465C709.457 98.6954 742.136 116.03 773.174 130.765C817.543 151.71 855.185 176.498 884.807 216.943C920.738 266.076 928.228 343.098 884.558 385.696C828.658 440.145 731.662 409.276 668.834 456.408C621.637 491.99 617.087 598.521 560.04 613.789C518.067 625.039 463.08 565.02 421.709 552.002C387.833 541.455 351.844 539.591 317.047 546.581C294.886 551.061 273.637 558.731 251.251 560.454C205.473 563.863 159.035 539.918 131.034 502.818C103.032 465.717 92.7147 417.135 97.8642 371.389C102.967 326.416 122.135 282.85 120.002 237.03C118.867 213.048 111.869 188.425 119.559 165.483C132.857 125.632 183.107 109.813 199.656 71.6172C213.097 40.6792 201.046 2.88322 220.542 -24.4702C232.682 -41.5067 254.497 -49.4897 275.284 -51.1766C296.071 -52.8636 316.731 -49.3524 337.632 -48.4729C397.688 -45.8111 457.314 -64.8356 517.861 -66.8638Z" stroke="url(#paint14_linear_200_1439)" stroke-width="0.8" stroke-linecap="round" stroke-linejoin="round"/>
<path opacity="0.06" d="M516.466 -69.3805C578.593 -72.5751 648.556 -50.2088 670.548 12.8189C677.344 32.1375 681.753 52.5673 692.361 70.1916C710.826 100.847 744.859 118.062 777.31 132.389C823.728 152.812 863.323 177.176 894.67 218.243C932.702 268.064 940.86 347.657 894.903 390.393C835.999 445.056 733.984 408.809 669.201 456.774C620.847 492.672 618.653 605.262 560.366 620.627C517.674 631.898 461.192 567.068 419.29 553.301C384.644 541.912 347.551 540.138 311.962 548.167C289.498 553.244 267.992 562.006 245.126 564.387C198.545 569.26 150.941 545.27 122.754 507.53C94.5664 469.791 84.8492 420.102 91.2451 373.635C97.5654 327.917 118.494 283.911 116.032 237.521C114.776 213.256 107.061 188.246 114.885 165.072C128.447 124.898 181.171 110.241 197.457 71.2964C210.652 39.8105 196.293 0.771534 215.542 -27.3265C227.535 -44.813 249.847 -52.7168 270.977 -53.9546C292.108 -55.1924 313.032 -51.0033 334.21 -49.6925C395.109 -45.9124 455.272 -66.4718 516.466 -69.3805Z" stroke="url(#paint15_linear_200_1439)" stroke-width="0.8" stroke-linecap="round" stroke-linejoin="round"/>
<path d="M606.573 494.668C744.056 415.286 791.215 239.568 711.906 102.19C632.598 -35.1875 456.853 -82.2022 319.37 -2.82032C181.887 76.5616 134.728 252.28 214.037 389.657C293.345 527.035 469.09 574.05 606.573 494.668Z" stroke="url(#paint16_linear_200_1439)" stroke-width="0.8" stroke-linecap="round" stroke-linejoin="round"/>
<path opacity="0.86" d="M544.094 -44.5838C586.961 -32.7546 622.673 -3.30524 652.375 25.8569C676.622 49.6665 695.462 78.1897 712.489 107.549C721.477 123.025 729.928 138.769 735.424 155.881C744.826 185.182 744.805 216.068 745.768 247.414C746.539 271.958 748.042 295.699 742.424 320.569C738.096 338.847 731.076 356.382 721.592 372.599C712.253 388.689 701.379 403.838 689.122 417.836C653.68 459.116 609.742 493.266 559.628 513.175C509.02 533.326 450.607 539.585 395.134 520.775C384.774 517.271 374.921 512.741 364.803 508.73C346.884 501.595 329.031 495.675 312.456 488.917C288.941 479.533 267.011 466.587 247.435 450.535C222.137 429.712 200.949 401.025 191.221 370.476C178.773 331.432 182.838 295.253 184.368 252.218C185.55 221.197 185.135 188.141 195.743 157.713C209.049 119.562 230.373 88.5201 256.351 61.0273C278.775 37.3141 303.91 16.3215 331.239 -1.51682C352.852 -15.5354 376.439 -29.258 400.933 -37.113C445.168 -51.345 495.925 -57.814 544.094 -44.5838Z" stroke="url(#paint17_linear_200_1439)" stroke-width="0.8" stroke-linecap="round" stroke-linejoin="round"/>
<path opacity="0.71" d="M550.733 -57.5529C592.432 -45.6969 624.947 -8.12172 652.261 21.9549C675.281 47.2753 691.734 77.6417 709.783 106.988C719.298 122.427 729.172 137.658 734.65 155.034C744.051 184.871 739.095 216.257 741.154 247.842C742.83 272.736 748.992 295.616 744.358 320.875C740.989 339.222 732.791 356.403 722.942 371.355C712.919 386.69 700.946 400.11 688.493 413.258C651.909 451.805 610.389 487.191 562.24 508.893C513.486 530.915 455.058 539.76 401.92 518.039C390.995 513.58 380.805 507.71 369.839 503.204C350.544 495.273 330.56 491.174 311.994 486.581C285.609 480.127 261.314 470.339 237.987 454.615C208.721 434.873 183.962 402.658 177.84 368.986C169.998 325.817 188.059 292.099 192.893 245.931C196.523 212.44 192.42 175.361 206.05 143.653C221.487 107.608 245.536 81.5811 272.89 57.0102C296.602 35.631 321.524 15.6328 347.531 -2.88552C367.472 -16.9944 389.609 -33.7654 412.277 -42.4662C453.789 -58.3912 504.606 -70.5403 550.733 -57.5529Z" stroke="url(#paint18_linear_200_1439)" stroke-width="0.8" stroke-linecap="round" stroke-linejoin="round"/>
<path opacity="0.57" d="M557.37 -70.4508C597.885 -58.5725 627.089 -12.8482 652.133 18.1029C673.892 44.9964 688.055 77.1782 707.112 106.491C717.133 121.905 728.43 136.624 733.904 154.284C743.288 184.651 733.386 216.5 736.562 248.384C739.11 273.618 749.93 295.638 746.293 321.306C743.744 339.391 734.88 356.196 724.253 370.191C713.519 384.514 700.792 396.553 687.852 408.786C650.132 444.582 611.025 481.221 564.862 504.704C518.009 528.628 459.572 539.701 408.59 515.398C397.135 509.921 386.599 502.745 374.796 497.765C354.06 489.019 331.949 486.727 311.425 484.377C282.226 481.026 255.22 473.888 228.526 458.87C195.323 440.163 166.975 404.56 164.477 367.625C161.274 320.342 193.369 289.076 201.458 239.761C207.539 203.784 199.527 162.713 216.318 129.672C233.597 95.6738 260.659 74.721 289.367 53.0841C313.647 34.7796 339.072 14.8708 363.767 -4.17981C382.11 -18.3233 402.724 -38.1983 423.561 -47.7282C462.418 -65.4706 513.303 -83.2619 557.37 -70.4508Z" stroke="url(#paint19_linear_200_1439)" stroke-width="0.8" stroke-linecap="round" stroke-linejoin="round"/>
<path opacity="0.43" d="M564 -83.3877C603.36 -71.4614 629.218 -17.5259 652.06 14.2465C672.515 42.7375 684.381 76.697 704.467 105.964C715.03 121.29 727.732 135.564 733.183 153.504C742.571 184.39 727.734 216.739 732 248.879C735.455 274.463 750.883 295.609 748.297 321.683C746.519 339.492 737.033 355.953 725.706 369.028C714.379 382.103 700.718 392.964 687.342 404.294C648.486 437.339 611.792 475.231 567.593 500.508C522.628 526.312 464.337 539.371 415.412 512.725C403.419 506.194 392.524 497.761 379.834 492.293C357.659 482.787 333.435 482.251 310.979 482.044C278.92 481.768 249.259 477.276 219.151 463.005C181.993 445.4 149.981 406.352 151.089 366.222C152.525 314.824 198.632 286.094 210.009 233.57C218.443 195.079 206.398 149.947 226.585 115.691C245.492 83.6097 275.807 67.831 305.866 49.1447C331.843 32.7154 356.623 14.4644 380.019 -5.47081C396.773 -19.6111 415.847 -42.6657 434.861 -52.987C471.044 -72.6057 522.004 -96.0015 564 -83.3877Z" stroke="url(#paint20_linear_200_1439)" stroke-width="0.8" stroke-linecap="round" stroke-linejoin="round"/>
<path opacity="0.29" d="M570.646 -96.3221C608.808 -84.3235 631.287 -22.1856 651.886 10.3614C670.98 40.4698 680.644 76.1795 701.718 105.425C712.791 120.781 726.933 134.476 732.38 152.7C741.8 184.13 721.968 216.928 727.355 249.35C731.7 275.28 751.698 295.559 750.18 322.045C749.159 339.627 739.086 355.681 726.997 367.802C714.909 379.923 700.508 389.283 686.682 399.761C646.671 430.122 612.418 469.167 570.174 496.27C527.029 524.007 469.08 538.854 422.067 510.006C409.586 502.362 398.298 492.735 384.805 486.802C361.256 476.429 334.85 477.772 310.457 479.726C275.629 482.583 243.234 480.699 209.712 467.174C168.638 450.593 132.986 408.143 137.709 364.856C143.744 309.42 203.917 283.026 218.535 227.406C229.388 186.419 213.06 137.088 236.859 101.745C257.224 71.4825 290.933 60.9513 322.339 45.2324C349.286 31.4526 374.17 13.9611 396.262 -6.73045C411.459 -20.8587 428.953 -47.1396 446.157 -58.2311C479.612 -79.794 530.701 -108.726 570.646 -96.3221Z" stroke="url(#paint21_linear_200_1439)" stroke-width="0.8" stroke-linecap="round" stroke-linejoin="round"/>
<path opacity="0.14" d="M577.274 -109.261C614.282 -97.286 633.275 -26.8136 651.766 6.47269C669.42 38.2852 676.947 75.7082 699.035 104.833C710.643 120.189 726.2 133.334 731.626 151.838C741.007 183.812 716.281 217.085 722.756 249.78C727.989 276.055 752.541 295.464 752.125 322.369C751.87 339.621 741.183 355.367 728.362 366.56C715.541 377.753 700.333 385.665 686.089 395.173C644.954 422.734 613.087 463.132 572.838 491.984C531.628 521.56 474.03 538.09 428.796 507.271C415.862 498.453 404.134 487.672 389.808 481.249C364.83 470.082 336.297 473.231 309.959 477.379C272.308 483.373 237.233 484.021 200.298 471.244C155.321 455.636 116.012 409.85 124.328 363.417C134.947 303.87 209.209 279.925 227.081 221.158C240.348 177.693 219.561 123.954 247.136 87.7109C268.886 59.1406 306.06 53.9291 338.848 41.2408C366.615 30.1871 391.727 13.3737 412.529 -8.09042C426.212 -22.1599 442.084 -51.7138 457.473 -63.5589C488.158 -87.0415 539.396 -121.452 577.274 -109.261Z" stroke="url(#paint22_linear_200_1439)" stroke-width="0.8" stroke-linecap="round" stroke-linejoin="round"/>
<path opacity="0.08" d="M443.438 -85.469C496.262 -51.261 545.979 -48.4557 603.783 -47.9143C649.897 -47.5193 736.26 -57.4061 771.917 -27.614C807.067 1.73889 812.378 46.1593 801.942 90.5799C798.512 105.162 768.748 145.838 767.722 160.974C765.817 189.035 783.995 214.042 790.31 241.41C793.683 256.72 793.337 272.617 789.299 287.771C785.262 302.924 777.652 316.892 767.106 328.502C756.418 339.927 742.603 349.23 736.011 363.554C724.373 388.903 769.78 425.537 773.324 452.788C774.24 459.819 774.364 467.209 771.641 473.766C768.141 482.222 760.492 488.175 752.851 493.166C731.82 506.876 677.315 508.146 652.71 512.222C611.362 519.013 565.75 511.556 529.715 533.483C504.319 548.954 483.224 578.611 453.707 575.641C427.863 572.956 413.13 546.621 392.356 531.49C373.936 516.239 340.127 529.066 318.878 531.611C289.534 535.187 260.18 538.64 230.817 541.972C186.482 546.857 139.251 551.091 99.6313 530.614C83.1557 521.921 68.9989 509.416 58.3405 494.139C47.6821 478.862 40.8308 461.256 38.3576 442.788C33.4293 403.863 52.8947 349.806 91.0366 336.264C109.935 329.572 130.92 331.402 149.399 323.08C172.768 312.566 186.681 284.326 184.321 258.124C181.406 225.201 159.061 203.615 138.026 181.075C109.462 150.617 86.3856 115.443 69.8178 77.1084C61.8018 58.4099 55.4272 38.6507 54.9504 18.2021C54.4735 -2.24653 60.6615 -23.715 75.0829 -38.4087C108.669 -72.6338 172.425 -44.5002 210.557 -34.8488C234.232 -28.8699 260.355 -17.3076 285.416 -16.7613C296.063 -16.5191 307.405 -20.0014 314.109 -28.1536C322.06 -37.8289 321.765 -51.104 324.594 -62.8466C328.922 -79.9022 339.824 -94.556 354.917 -103.606C390.271 -124.858 414.163 -104.446 443.438 -85.469Z" stroke="url(#paint23_linear_200_1439)" stroke-width="0.8" stroke-linecap="round" stroke-linejoin="round"/>
<path opacity="0.15" d="M451.302 -80.9713C502.684 -48.9709 550.758 -45.3014 606.088 -42.9224C650.85 -41.0143 731.997 -47.5648 766.38 -17.8815C799.702 10.9644 805.182 53.5551 796.685 96.4764C793.785 111.146 766.975 149.792 766.139 165.086C764.664 192.208 781.288 216.621 786.985 243.163C790.026 258.01 789.619 273.359 785.795 288.028C781.971 302.697 774.832 316.296 764.928 327.776C754.915 339.078 742.04 348.275 735.715 362.136C724.445 386.976 765.236 422.053 767.678 448.42C768.298 455.158 768.239 462.231 765.537 468.579C762.055 476.7 754.768 482.5 747.479 487.442C727.086 501.306 676.001 503.866 652.088 508.556C612.602 516.327 568.976 510.384 534.037 531.354C509.401 546.189 488.725 573.816 460.212 571.364C435.296 569.213 420.505 545.291 400.122 531.497C381.992 517.627 349.754 529.392 329.021 531.611C300.688 534.743 272.336 537.655 243.966 540.348C201.052 544.328 155.662 547.287 117.376 527.363C101.528 518.931 87.8221 506.982 77.3087 492.432C66.7954 477.881 59.7532 461.115 56.7217 443.417C50.7867 406.116 67.1383 354.814 101.031 340.474C117.836 333.4 136.657 334.116 153.133 325.472C174.069 314.575 186.434 287.385 184.004 262.039C181.001 230.379 160.356 208.979 141.076 186.748C114.747 156.695 93.8713 122.271 79.3889 85.027C72.3057 66.5781 67.0215 47.1465 67.1471 27.1805C67.2727 7.21457 73.6476 -13.6861 87.6278 -28.2657C120.236 -62.306 181.056 -38.8687 218.686 -31.6018C241.869 -27.1831 267.338 -17.2422 291.95 -17.3517C302.358 -17.352 313.448 -20.7589 320.273 -28.4322C328.352 -37.5197 328.903 -49.8186 332.367 -60.802C337.688 -76.8427 348.87 -90.286 363.673 -98.4406C398.322 -117.792 422.347 -99.0773 451.302 -80.9713Z" stroke="url(#paint24_linear_200_1439)" stroke-width="0.8" stroke-linecap="round" stroke-linejoin="round"/>
<path opacity="0.23" d="M459.136 -76.4995C509.066 -46.6733 555.589 -42.0797 608.344 -37.8897C651.745 -34.4352 727.686 -37.6827 760.747 -7.99609C792.317 20.3273 797.965 61.1595 791.343 102.547C788.977 117.288 765.076 153.873 764.528 169.226C763.475 195.444 778.54 219.208 783.633 244.945C786.34 259.328 785.871 274.131 782.259 288.318C778.647 302.505 771.98 315.734 762.722 327.079C753.408 338.175 741.428 347.362 735.392 360.746C724.478 385.057 760.669 418.581 761.988 444.076C762.329 450.525 762.02 457.263 759.397 463.383C755.954 471.157 749.009 476.816 742.106 481.719C722.287 495.7 674.661 499.544 651.47 504.872C613.83 513.549 572.205 509.195 538.366 529.192C514.521 543.274 494.151 568.965 466.697 567.153C442.675 565.528 427.847 544.006 407.914 531.6C390.153 519.08 359.382 529.702 339.16 531.682C311.809 534.345 284.458 536.81 257.107 538.812C215.633 541.748 172.081 543.449 135.208 524.046C119.964 515.877 106.694 504.47 96.3301 490.625C85.9659 476.78 78.758 460.833 75.2121 443.902C68.148 408.28 81.4992 359.711 111.122 344.586C125.816 337.126 142.373 336.699 156.984 327.753C175.467 316.485 186.299 290.349 183.784 265.855C180.701 235.424 161.758 214.265 144.206 192.318C120.148 162.661 101.471 129.016 89.0215 92.9086C82.8922 74.6972 78.6773 55.6053 79.4054 36.122C80.1335 16.6387 86.6951 -3.69405 100.251 -18.1552C131.902 -52.0229 189.754 -33.2908 226.901 -28.4206C249.561 -25.4455 274.415 -17.2049 298.569 -17.9369C308.748 -18.2128 319.569 -21.5489 326.457 -28.7233C334.685 -37.2352 336.077 -48.6125 340.129 -58.7243C346.446 -73.7038 357.889 -85.9482 372.407 -93.2637C406.354 -110.732 430.515 -93.5875 459.136 -76.4995Z" stroke="url(#paint25_linear_200_1439)" stroke-width="0.8" stroke-linecap="round" stroke-linejoin="round"/>
<path opacity="0.31" d="M466.966 -72.0105C515.411 -44.3674 560.432 -38.8363 610.596 -32.8399C652.665 -27.8134 723.38 -27.8168 755.149 1.82761C784.928 29.6362 790.862 68.7411 786.015 108.568C784.216 123.39 763.292 157.932 762.88 173.375C762.215 198.679 775.769 221.823 780.239 246.751C782.63 260.667 782.109 274.929 778.708 288.637C775.307 302.344 769.101 315.2 760.48 326.39C751.871 337.318 740.817 346.449 735.031 359.364C724.486 383.167 756.081 415.122 756.31 439.754C756.662 446.047 755.62 452.341 753.258 458.187C749.85 465.632 743.25 471.133 736.716 475.991C717.614 490.165 673.327 495.205 650.826 501.219C615.074 510.775 575.409 508.035 542.67 527.058C519.598 540.526 499.597 564.173 473.184 562.943C450.068 561.864 435.187 542.739 415.694 531.683C398.153 520.542 369.023 530.103 349.312 531.775C322.981 534.031 296.626 535.978 270.278 537.301C230.235 539.228 188.52 539.671 153.047 520.838C138.406 512.924 125.571 502.053 115.356 488.914C105.141 475.775 97.7681 460.655 93.7054 444.512C85.5211 410.537 95.8463 364.73 121.183 348.743C133.789 340.885 148.131 339.33 160.811 330.063C176.862 318.413 186.123 293.338 183.539 269.701C180.38 240.481 163.065 219.58 147.332 197.905C126.004 168.805 108.808 136.079 98.655 100.791C93.4841 82.8002 90.334 64.0646 91.6645 45.064C92.9951 26.0634 99.7225 6.31067 112.841 -8.05304C143.548 -41.7271 198.443 -27.679 235.076 -25.2145C257.226 -23.7329 281.477 -17.1715 305.178 -18.5427C315.122 -19.0776 325.67 -22.3262 332.75 -29.0205C341.119 -36.9235 343.369 -47.3745 348.013 -56.6316C354.486 -69.6488 366.459 -81.0694 381.284 -88.0839C414.407 -103.683 438.663 -88.1561 466.966 -72.0105Z" stroke="url(#paint26_linear_200_1439)" stroke-width="0.8" stroke-linecap="round" stroke-linejoin="round"/>
<path opacity="0.38" d="M474.795 -67.5214C521.762 -42.0237 565.278 -35.5385 612.868 -27.8022C653.596 -21.1704 719.127 -17.9541 749.545 11.668C777.543 38.9285 783.853 76.3662 780.713 114.686C779.499 129.593 761.479 162.091 761.292 177.63C760.998 202.015 773.04 224.54 776.876 248.638C781.05 275.796 774.371 303.514 758.281 325.802C750.366 336.541 740.19 345.657 734.692 358.096C724.537 381.377 751.537 411.763 750.596 435.565C750.627 441.6 749.43 447.58 747.077 453.14C743.704 460.255 737.463 465.621 731.281 470.43C712.823 484.597 671.923 490.919 650.139 497.589C616.256 507.967 578.558 506.878 546.914 524.945C524.633 537.66 505.004 559.388 479.602 558.715C457.424 558.137 442.479 541.441 423.428 531.735C406.193 521.98 378.621 530.458 359.417 531.837C334.098 533.65 308.739 535.077 283.39 535.739C244.779 536.656 204.905 535.824 170.837 517.546C142.484 502.049 121.39 475.995 112.132 445.033C102.828 412.705 110.134 369.5 131.29 352.859C141.774 344.593 153.868 341.902 164.657 332.361C178.247 320.302 186.005 296.307 183.335 273.522C180.135 245.523 164.548 224.834 150.495 203.484C131.501 174.866 116.426 142.886 108.309 108.661C103.79 90.7945 102.326 72.2906 103.978 53.9316C105.985 35.2726 112.809 16.2244 125.499 1.99586C155.249 -31.5057 207.128 -22.1217 243.326 -22.0949C264.941 -22.078 288.585 -17.2502 311.82 -19.2106C321.556 -20.0335 331.83 -23.1944 339.018 -29.3598C347.553 -36.6828 350.678 -46.2032 355.863 -54.6188C363.153 -66.4177 375.393 -76.6416 390.135 -82.9462C422.365 -96.6775 446.823 -82.7036 474.795 -67.5214Z" stroke="url(#paint27_linear_200_1439)" stroke-width="0.8" stroke-linecap="round" stroke-linejoin="round"/>
<path opacity="0.46" d="M482.624 -63.0318C528.126 -39.6585 570.128 -32.1858 615.12 -22.7519C654.535 -14.4892 714.745 -8.1434 743.924 21.5043C770.189 48.1756 776.865 83.9793 775.374 120.615C774.756 135.628 759.617 166.04 759.632 181.686C759.689 205.165 770.244 227.043 773.475 250.336C776.968 276.513 770.763 303.072 756.031 325.005C748.805 335.57 739.538 344.626 734.325 356.605C724.538 379.378 746.958 408.199 744.892 431.074C744.603 436.838 743.253 442.5 740.911 447.776C737.573 454.561 731.689 459.79 725.881 464.539C708.078 479.06 670.594 486.492 649.496 493.864C617.486 505.046 581.763 505.647 551.219 522.74C529.71 534.84 510.455 554.508 486.071 554.5C464.783 554.463 449.806 540.152 431.187 531.83C414.251 523.422 388.249 530.839 369.557 531.907C345.24 533.31 320.882 534.202 296.527 534.22C259.356 534.093 221.333 531.953 188.656 514.279C161.526 499.288 140.865 474.837 130.605 445.584C120.143 414.91 124.452 374.493 141.377 356.988C149.746 348.352 159.664 344.525 168.505 334.659C179.641 322.229 185.85 299.284 183.094 277.35C179.819 250.564 165.947 230.138 153.625 209.055C137.009 180.823 124.054 149.66 117.897 116.513C114.449 98.8584 113.879 80.7604 116.207 62.9195C118.83 44.6932 125.841 26.2128 138.064 12.1273C166.883 -21.2305 215.745 -16.4395 251.479 -18.8761C272.588 -20.3694 295.65 -17.1618 318.402 -19.787C327.891 -20.8189 337.905 -23.9424 345.231 -29.6243C353.894 -36.3595 357.823 -44.9505 363.65 -52.4979C371.76 -63.0951 384.235 -72.1312 398.976 -77.7037C430.294 -89.697 454.966 -77.255 482.624 -63.0318Z" stroke="url(#paint28_linear_200_1439)" stroke-width="0.8" stroke-linecap="round" stroke-linejoin="round"/>
<path opacity="0.54" d="M490.459 -58.5583C534.403 -37.2982 575.616 -30.9472 617.372 -17.7011C654.919 -5.86713 710.531 1.71247 738.321 31.3456C762.804 57.5399 769.999 91.6075 770.045 126.637C770.057 141.765 757.727 170.089 757.983 185.907C758.394 208.463 767.47 229.731 770.083 252.197C772.906 277.401 767.172 302.828 753.804 324.392C747.263 334.73 738.871 343.788 733.962 355.295C724.432 377.512 742.395 404.783 739.163 426.81C738.577 432.296 737.081 437.647 734.737 442.643C731.413 449.11 725.908 454.19 720.456 458.874C703.332 473.594 669.216 482.178 648.839 490.26C618.694 502.21 584.941 504.516 555.498 520.636C534.872 531.972 515.839 549.682 492.474 550.268C472.092 550.777 457.061 538.862 438.9 531.895C422.254 524.869 397.811 531.202 379.63 531.961C356.339 532.87 332.938 533.322 309.602 532.666C273.863 531.53 237.614 528.168 206.393 510.991C180.488 496.49 160.281 473.617 149.084 446.12C137.463 417.1 138.768 379.432 151.46 361.133C157.723 352.095 165.439 347.16 172.332 336.97C181.019 324.152 185.713 302.266 182.871 281.184C179.516 255.627 167.334 235.42 156.768 214.647C142.484 186.843 131.715 156.444 127.597 124.414C125.217 106.952 125.523 89.2275 128.505 71.8546C131.751 54.0988 138.91 36.2652 150.738 22.2527C178.57 -10.8871 224.467 -10.7467 259.741 -15.6633C280.293 -18.538 302.75 -17.1351 325.061 -20.3782C334.35 -21.7314 344.082 -24.734 351.525 -29.9204C360.311 -36.051 365.115 -43.7115 371.539 -50.4207C381.681 -60.6304 394.141 -68.2377 407.854 -72.5939C438.315 -82.727 463.106 -71.7891 490.459 -58.5583Z" stroke="url(#paint29_linear_200_1439)" stroke-width="0.8" stroke-linecap="round" stroke-linejoin="round"/>
<path opacity="0.62" d="M498.289 -54.0686C540.704 -34.8962 579.837 -25.3162 619.628 -12.6672C656.409 -1.03835 706.258 11.5168 732.701 41.1821C755.484 66.725 763.193 99.3409 764.721 132.642C765.413 147.898 755.855 174.142 756.385 189.998C757.101 211.618 764.687 232.254 766.723 253.942C768.875 278.167 763.598 302.478 751.595 323.641C745.732 333.786 738.26 342.804 733.631 353.868C724.545 375.561 737.9 401.241 733.486 422.416C732.594 427.619 730.951 432.665 728.611 437.397C725.309 443.513 720.158 448.474 715.063 453.092C698.567 467.998 667.867 477.692 648.217 486.523C619.825 499.191 588.15 503.268 559.799 518.448C539.852 529.18 521.327 544.865 499.009 546.071C479.523 547.105 464.455 537.591 446.708 532.074C430.373 526.416 407.538 531.68 389.814 532.133C367.508 532.699 345.08 532.518 322.793 531.214C288.485 529.068 254.123 524.461 224.261 507.809C199.476 493.793 179.635 472.454 167.456 446.715C154.762 419.301 153.145 384.405 161.548 365.262C165.696 355.854 171.201 349.774 176.18 339.268C182.431 326.084 185.558 305.243 182.647 285.018C179.217 260.672 168.738 240.707 159.895 220.234C147.979 192.85 139.481 163.237 137.252 132.284C135.954 115.045 137.143 97.7063 140.781 80.8015C144.643 63.4785 151.949 46.2916 163.333 32.3387C190.221 -0.607294 233.113 -5.03873 267.941 -12.4853C287.956 -16.7536 309.811 -17.1009 331.673 -20.9999C340.86 -22.4469 349.704 -25.5699 357.764 -30.2135C366.715 -35.7641 372.345 -42.5073 379.356 -48.345C390.31 -57.2063 402.993 -63.6833 416.592 -67.3612C446.208 -75.8097 471.25 -66.3403 498.289 -54.0686Z" stroke="url(#paint30_linear_200_1439)" stroke-width="0.8" stroke-linecap="round" stroke-linejoin="round"/>
<path opacity="0.69" d="M506.118 -49.5788C546.979 -32.4652 584.642 -21.7966 621.897 -7.61225C657.29 5.85957 702.024 21.3133 727.102 51.0063C748.155 75.9433 756.504 106.909 759.393 138.663C760.789 154.019 753.965 178.191 754.753 194.152C755.777 214.89 761.964 234.884 763.35 255.736C764.831 278.983 760.002 302.203 749.373 322.94C744.203 332.895 737.627 341.903 733.269 352.558C724.551 373.742 733.381 397.854 727.774 418.156C726.573 423.057 724.78 427.794 722.436 432.263C718.933 437.917 714.626 443.032 709.651 447.448C693.879 462.584 666.468 473.39 647.538 482.931C621.075 496.33 591.319 502.17 564.068 516.376C544.925 526.378 526.738 540.135 505.435 541.951C486.88 543.504 471.754 536.402 454.5 532.177C438.46 527.885 417.157 532.094 399.966 532.225C378.599 532.418 357.237 531.535 335.961 529.578C303.094 526.389 270.553 520.519 242.102 504.459C218.511 490.886 199.119 471.072 186.056 447.194C172.082 421.49 167.481 389.331 171.673 369.382C173.727 359.593 177.023 352.368 180.066 341.558C183.863 328.003 185.441 308.212 182.461 288.844C178.96 265.693 170.162 245.982 163.084 225.785C153.516 198.832 147.215 169.95 146.932 140.126C146.739 123.122 148.814 106.166 153.103 89.7074C157.429 72.5513 165.221 56.4602 175.999 42.4259C201.93 9.65245 241.842 0.691459 276.183 -9.33178C295.683 -15.0058 316.941 -17.12 338.395 -21.6282C347.345 -23.3782 356.006 -26.3805 364.12 -30.5465C373.216 -35.5048 379.683 -41.3097 387.286 -46.2926C398.982 -53.805 411.911 -59.1948 425.477 -62.214C454.205 -68.8824 479.366 -60.7916 506.118 -49.5788Z" stroke="url(#paint31_linear_200_1439)" stroke-width="0.8" stroke-linecap="round" stroke-linejoin="round"/>
<path opacity="0.77" d="M513.953 -45.1054C553.262 -29.9962 589.429 -18.2101 624.149 -2.56146C658.172 12.7578 697.811 31.0979 721.483 60.843C740.843 85.1665 749.922 114.542 754.064 144.685C756.221 160.137 752.059 182.236 753.122 198.306C754.446 218.124 759.21 237.434 759.977 257.531C760.79 279.807 756.398 301.969 747.147 322.256C742.658 332.001 737.037 340.978 732.943 351.114C724.647 371.786 728.937 394.327 722.081 413.759C720.598 418.352 718.661 422.787 716.298 426.996C712.888 432.339 708.849 437.253 704.267 441.633C689.202 456.994 665.118 468.78 646.926 479.161C622.267 493.221 594.547 500.856 568.403 514.127C550.003 523.488 532.215 535.227 511.931 537.637C494.267 539.731 479.108 535.014 462.253 532.163C446.507 529.235 426.775 532.383 410.095 532.204C389.697 532.025 369.329 530.647 349.095 528.075C317.658 523.877 286.958 516.803 259.901 501.205C237.405 488.082 218.392 469.748 204.458 447.744C189.289 423.703 181.792 394.287 181.706 373.515C181.884 363.597 182.598 353.697 183.843 343.855C185.446 326.794 184.888 309.6 182.183 292.681C178.602 270.759 171.512 251.273 166.156 231.376C158.507 204.287 155.257 176.142 156.529 148.016C157.431 131.244 160.391 114.644 165.343 98.5913C170.345 82.0019 178.223 66.4191 188.619 52.5544C213.61 19.958 250.554 6.48861 284.403 -6.09462C303.378 -13.1411 324.012 -16.9222 344.961 -22.2084C353.666 -24.2373 362.152 -27.1158 370.296 -30.8027C379.553 -35.1643 386.862 -40.0475 395.061 -44.1922C407.423 -50.2996 420.6 -54.5916 434.185 -56.9355C462.149 -62.0226 487.471 -55.2637 513.953 -45.1054Z" stroke="url(#paint32_linear_200_1439)" stroke-width="0.8" stroke-linecap="round" stroke-linejoin="round"/>
<path opacity="0.85" d="M521.782 -40.6158C559.52 -27.4987 594.17 -14.583 626.405 2.47225C658.998 19.73 693.623 40.8533 715.88 70.6838C733.553 94.377 743.304 122.111 748.753 150.711C751.728 166.239 750.133 186.293 751.49 202.459C753.094 221.37 756.441 240.104 756.604 259.326C756.72 280.628 752.731 301.756 744.854 321.554C741.059 331.11 736.316 340.072 732.515 349.715C724.605 369.883 724.42 390.869 716.325 409.398C714.552 413.674 712.463 417.812 710.076 421.778C706.759 426.825 702.98 431.552 698.789 435.9C684.457 451.528 663.626 464.292 646.221 475.401C623.337 490.098 597.681 499.624 572.642 511.905C555.045 520.534 537.605 530.313 518.351 533.338C501.573 535.991 486.368 533.707 469.984 532.162C454.533 530.598 436.35 532.696 420.186 532.191C400.743 531.621 381.364 529.705 362.188 526.455C332.187 521.23 303.354 512.853 277.688 497.859C256.258 485.178 237.622 468.285 222.904 448.199C207.711 427.086 197.102 403.026 191.761 377.563C189.719 367.183 188.363 356.679 187.699 346.12C186.637 329.481 184.726 312.907 181.973 296.464C178.333 275.759 172.903 256.539 169.384 236.919C164.207 210.241 163.149 182.925 166.245 155.921C168.263 139.451 172.094 123.254 177.668 107.623C183.288 91.5652 191.237 76.4193 201.26 62.6703C225.277 30.242 259.298 12.2943 292.615 -2.89566C311.104 -11.3223 331.109 -16.9503 351.524 -22.8435C359.991 -25.1735 368.331 -27.9421 376.511 -31.1381C385.896 -34.912 394.081 -38.9356 402.849 -42.1423C415.826 -46.9334 429.318 -50.1906 443.05 -51.8473C470.085 -55.201 495.588 -49.7151 521.782 -40.6158Z" stroke="url(#paint33_linear_200_1439)" stroke-width="0.8" stroke-linecap="round" stroke-linejoin="round"/>
<path opacity="0.92" d="M529.611 -36.1261C565.784 -24.9633 598.857 -10.8981 628.589 7.50487C659.692 26.721 689.393 50.562 710.209 80.5068C726.232 103.562 736.731 129.639 743.323 156.706C747.143 172.281 748.088 190.319 749.761 206.641C751.606 224.652 753.554 242.744 753.108 261.106C752.576 281.409 749.039 301.524 742.611 320.795C739.476 330.152 735.695 339.122 732.132 348.346C724.595 367.989 719.96 387.462 710.592 405.079C708.513 408.969 706.358 412.874 703.926 416.616C700.701 421.353 697.19 425.887 693.41 430.194C679.847 446.081 662.251 459.765 645.625 471.832C624.487 487.139 600.965 498.558 576.977 509.851C560.157 517.849 543.081 525.601 524.864 529.225C509.005 532.373 493.751 532.47 477.79 532.341C462.646 532.163 446.029 533.215 430.369 532.364C411.869 531.388 393.478 528.932 375.372 525.02C346.803 518.785 319.79 509.145 295.541 494.727C275.134 482.488 256.85 467.018 241.402 448.919C224.6 428.918 211.24 406.262 201.868 381.876C197.662 371.02 194.207 359.887 191.527 348.556C188.056 333.878 184.949 317.244 181.728 300.436C178.031 280.947 174.296 261.93 172.448 242.597C169.767 216.317 170.902 189.784 175.819 163.824C178.949 147.652 183.656 131.825 189.871 116.568C196.114 101.089 204.149 86.3925 213.811 72.7806C236.867 40.5416 267.961 18.1321 300.755 0.302191C319.116 -9.33734 338.323 -17.2695 358.134 -23.3941C366.303 -26.0291 374.652 -28.6695 382.73 -31.3646C392.281 -34.5584 401.285 -37.5771 410.638 -39.9667C424.138 -43.4368 437.932 -45.6398 451.839 -46.5469C478.138 -48.4192 503.762 -44.1152 529.611 -36.1261Z" stroke="url(#paint34_linear_200_1439)" stroke-width="0.8" stroke-linecap="round" stroke-linejoin="round"/>
<path d="M606.569 494.667C744.052 415.285 791.212 239.567 711.903 102.19C632.594 -35.188 456.85 -82.2027 319.367 -2.82079C181.884 76.5611 134.725 252.279 214.033 389.657C293.342 527.034 469.086 574.049 606.569 494.667Z" stroke="url(#paint35_linear_200_1439)" stroke-width="0.8" stroke-linecap="round" stroke-linejoin="round"/>
</g>
<defs>
<linearGradient id="paint0_linear_200_1439" x1="153.809" y1="169.524" x2="701.854" y2="267.429" gradientUnits="userSpaceOnUse">
<stop stop-color="#00F0FF"/>
<stop offset="1" stop-color="#0057E8"/>
</linearGradient>
<linearGradient id="paint1_linear_200_1439" x1="295.954" y1="-29.0251" x2="616.541" y2="439.642" gradientUnits="userSpaceOnUse">
<stop stop-color="#00F0FF"/>
<stop offset="1" stop-color="#0057E8"/>
</linearGradient>
<linearGradient id="paint2_linear_200_1439" x1="293.587" y1="-31.3446" x2="616.744" y2="449.477" gradientUnits="userSpaceOnUse">
<stop stop-color="#00F0FF"/>
<stop offset="1" stop-color="#0057E8"/>
</linearGradient>
<linearGradient id="paint3_linear_200_1439" x1="291.186" y1="-33.7156" x2="617.267" y2="459.437" gradientUnits="userSpaceOnUse">
<stop stop-color="#00F0FF"/>
<stop offset="1" stop-color="#0057E8"/>
</linearGradient>
<linearGradient id="paint4_linear_200_1439" x1="288.664" y1="-36.1387" x2="618.198" y2="469.519" gradientUnits="userSpaceOnUse">
<stop stop-color="#00F0FF"/>
<stop offset="1" stop-color="#0057E8"/>
</linearGradient>
<linearGradient id="paint5_linear_200_1439" x1="286.251" y1="-38.6306" x2="619.119" y2="479.401" gradientUnits="userSpaceOnUse">
<stop stop-color="#00F0FF"/>
<stop offset="1" stop-color="#0057E8"/>
</linearGradient>
<linearGradient id="paint6_linear_200_1439" x1="283.932" y1="-41.0691" x2="620.647" y2="489.326" gradientUnits="userSpaceOnUse">
<stop stop-color="#00F0FF"/>
<stop offset="1" stop-color="#0057E8"/>
</linearGradient>
<linearGradient id="paint7_linear_200_1439" x1="281.395" y1="-43.6204" x2="621.906" y2="499.283" gradientUnits="userSpaceOnUse">
<stop stop-color="#00F0FF"/>
<stop offset="1" stop-color="#0057E8"/>
</linearGradient>
<linearGradient id="paint8_linear_200_1439" x1="279.064" y1="-46.1217" x2="623.545" y2="509.163" gradientUnits="userSpaceOnUse">
<stop stop-color="#00F0FF"/>
<stop offset="1" stop-color="#0057E8"/>
</linearGradient>
<linearGradient id="paint9_linear_200_1439" x1="276.652" y1="-48.6829" x2="625.129" y2="519.007" gradientUnits="userSpaceOnUse">
<stop stop-color="#00F0FF"/>
<stop offset="1" stop-color="#0057E8"/>
</linearGradient>
<linearGradient id="paint10_linear_200_1439" x1="274.286" y1="-51.2414" x2="626.832" y2="528.798" gradientUnits="userSpaceOnUse">
<stop stop-color="#00F0FF"/>
<stop offset="1" stop-color="#0057E8"/>
</linearGradient>
<linearGradient id="paint11_linear_200_1439" x1="271.932" y1="-53.8174" x2="628.564" y2="538.61" gradientUnits="userSpaceOnUse">
<stop stop-color="#00F0FF"/>
<stop offset="1" stop-color="#0057E8"/>
</linearGradient>
<linearGradient id="paint12_linear_200_1439" x1="269.546" y1="-56.4189" x2="630.332" y2="548.288" gradientUnits="userSpaceOnUse">
<stop stop-color="#00F0FF"/>
<stop offset="1" stop-color="#0057E8"/>
</linearGradient>
<linearGradient id="paint13_linear_200_1439" x1="267.194" y1="-59.0179" x2="632.169" y2="557.985" gradientUnits="userSpaceOnUse">
<stop stop-color="#00F0FF"/>
<stop offset="1" stop-color="#0057E8"/>
</linearGradient>
<linearGradient id="paint14_linear_200_1439" x1="264.769" y1="-61.6464" x2="633.949" y2="567.691" gradientUnits="userSpaceOnUse">
<stop stop-color="#00F0FF"/>
<stop offset="1" stop-color="#0057E8"/>
</linearGradient>
<linearGradient id="paint15_linear_200_1439" x1="262.461" y1="-64.3197" x2="635.88" y2="577.277" gradientUnits="userSpaceOnUse">
<stop stop-color="#00F0FF"/>
<stop offset="1" stop-color="#0057E8"/>
</linearGradient>
<linearGradient id="paint16_linear_200_1439" x1="153.809" y1="169.524" x2="701.854" y2="267.429" gradientUnits="userSpaceOnUse">
<stop stop-color="#00F0FF"/>
<stop offset="1" stop-color="#0057E8"/>
</linearGradient>
<linearGradient id="paint17_linear_200_1439" x1="307.322" y1="-37.8709" x2="632.296" y2="416.148" gradientUnits="userSpaceOnUse">
<stop stop-color="#00F0FF"/>
<stop offset="1" stop-color="#0057E8"/>
</linearGradient>
<linearGradient id="paint18_linear_200_1439" x1="315.8" y1="-49.0717" x2="647.303" y2="402.696" gradientUnits="userSpaceOnUse">
<stop stop-color="#00F0FF"/>
<stop offset="1" stop-color="#0057E8"/>
</linearGradient>
<linearGradient id="paint19_linear_200_1439" x1="324.156" y1="-60.2176" x2="662.045" y2="389.198" gradientUnits="userSpaceOnUse">
<stop stop-color="#00F0FF"/>
<stop offset="1" stop-color="#0057E8"/>
</linearGradient>
<linearGradient id="paint20_linear_200_1439" x1="325.724" y1="-72.9206" x2="671.139" y2="380.152" gradientUnits="userSpaceOnUse">
<stop stop-color="#00F0FF"/>
<stop offset="1" stop-color="#0057E8"/>
</linearGradient>
<linearGradient id="paint21_linear_200_1439" x1="318.745" y1="-87.239" x2="674.751" y2="377.022" gradientUnits="userSpaceOnUse">
<stop stop-color="#00F0FF"/>
<stop offset="1" stop-color="#0057E8"/>
</linearGradient>
<linearGradient id="paint22_linear_200_1439" x1="311.085" y1="-101.657" x2="678.056" y2="374.428" gradientUnits="userSpaceOnUse">
<stop stop-color="#00F0FF"/>
<stop offset="1" stop-color="#0057E8"/>
</linearGradient>
<linearGradient id="paint23_linear_200_1439" x1="170.019" y1="-108.631" x2="560.352" y2="528.905" gradientUnits="userSpaceOnUse">
<stop stop-color="#00F0FF"/>
<stop offset="1" stop-color="#0057E8"/>
</linearGradient>
<linearGradient id="paint24_linear_200_1439" x1="180.07" y1="-97.6805" x2="561.156" y2="522.935" gradientUnits="userSpaceOnUse">
<stop stop-color="#00F0FF"/>
<stop offset="1" stop-color="#0057E8"/>
</linearGradient>
<linearGradient id="paint25_linear_200_1439" x1="190.159" y1="-86.8086" x2="562.044" y2="516.844" gradientUnits="userSpaceOnUse">
<stop stop-color="#00F0FF"/>
<stop offset="1" stop-color="#0057E8"/>
</linearGradient>
<linearGradient id="paint26_linear_200_1439" x1="200.28" y1="-76.193" x2="563.238" y2="510.569" gradientUnits="userSpaceOnUse">
<stop stop-color="#00F0FF"/>
<stop offset="1" stop-color="#0057E8"/>
</linearGradient>
<linearGradient id="paint27_linear_200_1439" x1="210.901" y1="-67.387" x2="566.365" y2="502.816" gradientUnits="userSpaceOnUse">
<stop stop-color="#00F0FF"/>
<stop offset="1" stop-color="#0057E8"/>
</linearGradient>
<linearGradient id="paint28_linear_200_1439" x1="222.314" y1="-61.966" x2="572.962" y2="492.215" gradientUnits="userSpaceOnUse">
<stop stop-color="#00F0FF"/>
<stop offset="1" stop-color="#0057E8"/>
</linearGradient>
<linearGradient id="paint29_linear_200_1439" x1="233.728" y1="-56.5805" x2="579.597" y2="481.594" gradientUnits="userSpaceOnUse">
<stop stop-color="#00F0FF"/>
<stop offset="1" stop-color="#0057E8"/>
</linearGradient>
<linearGradient id="paint30_linear_200_1439" x1="245.036" y1="-51.2445" x2="586.146" y2="471.001" gradientUnits="userSpaceOnUse">
<stop stop-color="#00F0FF"/>
<stop offset="1" stop-color="#0057E8"/>
</linearGradient>
<linearGradient id="paint31_linear_200_1439" x1="256.244" y1="-45.9764" x2="592.475" y2="460.439" gradientUnits="userSpaceOnUse">
<stop stop-color="#00F0FF"/>
<stop offset="1" stop-color="#0057E8"/>
</linearGradient>
<linearGradient id="paint32_linear_200_1439" x1="267.444" y1="-40.7715" x2="598.784" y2="451.873" gradientUnits="userSpaceOnUse">
<stop stop-color="#00F0FF"/>
<stop offset="1" stop-color="#0057E8"/>
</linearGradient>
<linearGradient id="paint33_linear_200_1439" x1="278.471" y1="-35.7384" x2="605.006" y2="444.031" gradientUnits="userSpaceOnUse">
<stop stop-color="#00F0FF"/>
<stop offset="1" stop-color="#0057E8"/>
</linearGradient>
<linearGradient id="paint34_linear_200_1439" x1="288.862" y1="-31.01" x2="611.102" y2="436.551" gradientUnits="userSpaceOnUse">
<stop stop-color="#00F0FF"/>
<stop offset="1" stop-color="#0057E8"/>
</linearGradient>
<linearGradient id="paint35_linear_200_1439" x1="153.806" y1="169.523" x2="701.851" y2="267.428" gradientUnits="userSpaceOnUse">
<stop stop-color="#00F0FF"/>
<stop offset="1" stop-color="#0057E8"/>
</linearGradient>
<clipPath id="clip0_200_1439">
<rect width="926" height="661" fill="white"/>
</clipPath>
</defs>
</svg>
