<svg width="218" height="139" viewBox="0 0 218 139" fill="none" xmlns="http://www.w3.org/2000/svg">
<path d="M208.625 47L168 25.125L127.375 47V59.5L131.438 63.5625L127.375 65.75V97L168 118.875L208.625 97V84.5L204.562 80.4375L208.625 78.25V47Z" fill="#18B2A3"/>
<path d="M127.375 47L168 68.875V100.125L127.375 59.5V47Z" fill="#225BB9"/>
<path d="M127.375 65.75L168 106.375V118.875L127.375 97V65.75Z" fill="#225BB9"/>
<path d="M168 68.875L208.625 47L168 25.125L127.375 47L168 68.875Z" fill="#C6DBFF"/>
<path d="M168 100.125L208.625 78.25V47L168 68.875V100.125Z" fill="#6890D4"/>
<path d="M168 118.875L208.625 97V84.5L168 106.375V118.875Z" fill="#6890D4"/>
<path d="M125.969 34.75L69.5 4.34375L45.6094 17.375V26.3883L36.9219 21.7188L13.0312 34.75V65.1562L21.04 69.4728L13.0312 73.8438V104.25L69.5 134.656L93.3906 121.625V112.612L102.078 117.281L125.969 104.25V73.8438L117.96 69.5272L125.969 65.1562V34.75Z" fill="#18B2A3"/>
<path d="M102.078 78.1875L125.969 65.1562V34.75L102.078 47.7812V78.1875Z" fill="#6890D4"/>
<path d="M102.078 117.281L125.969 104.25V73.8438L102.078 86.875V117.281Z" fill="#6890D4"/>
<path d="M45.6094 17.375L102.078 47.7812V78.1875L45.6094 47.7812V17.375Z" fill="#225BB9"/>
<path d="M45.6094 56.4688L102.078 86.875V117.281L45.6094 86.875V56.4688Z" fill="#225BB9"/>
<path d="M69.5 104.25L93.3906 91.2188L36.9219 60.8125L13.0312 73.8438L69.5 104.25Z" fill="#18B2A3"/>
<path d="M69.5 95.5625L93.3906 82.5312V52.125L69.5 65.1562V95.5625Z" fill="#6890D4"/>
<path d="M69.5 134.656L93.3906 121.625V91.2188L69.5 104.25V134.656Z" fill="#6890D4"/>
<path d="M13.0312 34.75L69.5 65.1562V95.5625L13.0312 65.1562V34.75Z" fill="#225BB9"/>
<path d="M13.0312 73.8438L69.5 104.25V134.656L13.0312 104.25V73.8438Z" fill="#225BB9"/>
<path d="M69.5 65.1562L93.3906 52.125L36.9219 21.7188L13.0312 34.75L69.5 65.1562Z" fill="#C6DBFF"/>
<path d="M102.078 47.7812L125.969 34.75L69.5 4.34375L45.6094 17.375L102.078 47.7812Z" fill="#C6DBFF"/>
<path d="M19.5469 60.8125V45.6094L33.3926 53.2109L62.9844 69.5V84.7031L19.5469 60.8125Z" fill="#8DD6CB"/>
<path d="M19.5469 45.6094V60.8125L33.3926 53.2109L19.5469 45.6094Z" fill="#4EC5B3"/>
<path d="M19.5469 99.9062V84.7031L33.3926 92.3047L62.9844 108.594V123.797L19.5469 99.9062Z" fill="#8DD6CB"/>
<path d="M19.5469 84.7031V99.9062L33.3926 92.3047L19.5469 84.7031Z" fill="#4EC5B3"/>
</svg>
