<svg width="384" height="384" viewBox="0 0 384 384" fill="none" xmlns="http://www.w3.org/2000/svg">
<path d="M348 96L282 60L258 73.05V48L192 12L126 48V73.05L102 60L36 96V180L57.975 192L36 204V288L102 324L126 310.875V336L192 372L258 336V310.875L282 324L348 288V204L326.025 192L348 180V96Z" fill="#C6DBFF"/>
<path d="M192 168L258 132V48L192 84V168Z" fill="#8DD6CB"/>
<path d="M192 276L258 240V156L192 192V276Z" fill="#8DD6CB"/>
<path d="M126 48L192 84V168L126 132V48Z" fill="#1DB29B"/>
<path d="M282 240L348 204L282 168L216 204L282 240Z" fill="#BBE6DF"/>
<path d="M282 324L348 288V204L282 240V324Z" fill="#6890D4"/>
<path d="M282 216L348 180V96L282 132V216Z" fill="#6890D4"/>
<path d="M282 132L348 96L282 60L216 96L282 132Z" fill="#C6DBFF"/>
<path d="M216 96L282 132V216L216 180V96Z" fill="#1DB29B"/>
<path d="M216 204L282 240V324L216 288V204Z" fill="#1DB29B"/>
<path d="M102 240L168 204L102 168L36 204L102 240Z" fill="#BBE6DF"/>
<path d="M102 216L168 180V96L102 132V216Z" fill="#8DD6CB"/>
<path d="M102 324L168 288V204L102 240V324Z" fill="#8DD6CB"/>
<path d="M102 132L168 96L102 60L36 96L102 132Z" fill="#C6DBFF"/>
<path d="M36 96L102 132V216L36 180V96Z" fill="#2565D0"/>
<path d="M36 204L102 240V324L36 288V204Z" fill="#2565D0"/>
<path d="M192 288L258 252L192 216L126 252L192 288Z" fill="#BBE6DF"/>
<path d="M192 372L258 336V252L192 288V372Z" fill="#6890D4"/>
<path d="M192 264L258 228V144L192 180V264Z" fill="#6890D4"/>
<path d="M192 180L258 144L192 108L126 144L192 180Z" fill="#C6DBFF"/>
<path d="M126 144L192 180V264L126 228V144Z" fill="#2565D0"/>
<path d="M126 252L192 288V372L126 336V252Z" fill="#2565D0"/>
</svg>
