<svg width="208" height="26" viewBox="0 0 208 26" fill="none" xmlns="http://www.w3.org/2000/svg">
<path d="M96.7462 14.7433H99.4408L106.707 25.5019H111.09C110.907 25.2873 110.555 24.8506 110.034 24.1916C109.514 23.5172 108.91 22.7203 108.221 21.8008C107.533 20.8659 106.821 19.908 106.087 18.9272C105.368 17.931 104.695 17.0115 104.067 16.1686C103.562 15.4606 103.13 14.8621 102.771 14.3731C102.821 14.3589 102.87 14.3444 102.92 14.3295C103.853 14.0536 104.733 13.6245 105.559 13.0421C106.401 12.4444 107.089 11.6705 107.625 10.7203C108.16 9.75478 108.428 8.59003 108.428 7.22605C108.428 4.74329 107.594 2.95019 105.926 1.84674C104.259 0.727963 102.078 0.168576 99.3855 0.168576C98.427 0.168576 97.5472 0.175585 96.7462 0.189604V2.97534C96.9741 2.96543 97.2113 2.95704 97.4576 2.95019C98.0237 2.93486 98.6128 2.9272 99.2248 2.9272C101.336 2.9272 102.851 3.318 103.769 4.09961C104.702 4.88122 105.169 6.01532 105.169 7.50191C105.169 8.9272 104.664 10.046 103.654 10.8582C102.644 11.6552 101.168 12.0536 99.2248 12.0536H96.7462V14.7433Z" fill="#2565D0"/>
<path d="M123.768 25.5019C123.89 24.8123 123.959 23.8161 123.974 22.5134C124.005 21.2107 124.02 19.7088 124.02 18.0077V14.9732L119.453 7.15708C118.795 6.02298 118.137 4.9272 117.479 3.86973C116.837 2.79693 116.034 1.61685 115.07 0.329495H119.017L125.833 11.7318L132.282 0.329495H136.23C135.22 1.78543 134.417 3.00382 133.82 3.98467C133.223 4.96551 132.596 6.02298 131.938 7.15708L127.279 15.1111V18.0077C127.279 19.7088 127.287 21.2107 127.302 22.5134C127.333 23.8161 127.417 24.8123 127.555 25.5019H123.768Z" fill="#2565D0"/>
<path d="M140.829 23.364V25.5019H159.075V22.3295C158.386 22.4368 157.384 22.5211 156.068 22.5824C154.768 22.6437 153.276 22.6743 151.593 22.6743H144.868L158.547 2.58237V0.329495H141.862V3.5249C142.55 3.37164 143.43 3.27969 144.501 3.24904C145.572 3.20306 146.957 3.18007 148.655 3.18007H154.507L140.829 23.364Z" fill="#2565D0"/>
<path d="M165.808 25.5019C165.931 24.8123 165.999 23.8161 166.015 22.5134C166.045 21.2107 166.061 19.7088 166.061 18.0077V7.84674C166.061 6.14559 166.045 4.64367 166.015 3.34099C165.999 2.02298 165.931 1.01915 165.808 0.329495H180.428V3.18007H169.32V10.9502H179.142V13.7088H169.32V22.6743H173.864C175.562 22.6743 176.993 22.659 178.155 22.6283C179.334 22.5977 180.267 22.5211 180.955 22.3985V25.5019H165.808Z" fill="#2565D0"/>
<path d="M191.223 5.64404L204.902 25.5019H207.748V7.84674C207.748 6.14559 207.755 4.64367 207.771 3.34099C207.801 2.02298 207.878 1.01915 208 0.329495H204.902V20.2655L191.223 0.329495H188.125C188.247 1.01915 188.316 2.02298 188.332 3.34099C188.362 4.64367 188.377 6.14559 188.377 7.84674V18.0077C188.377 19.7088 188.362 21.2107 188.332 22.5134C188.316 23.8161 188.247 24.8123 188.125 25.5019H191.223V5.64404Z" fill="#2565D0"/>
<path d="M8.0785 26C6.42608 26 4.88076 25.7854 3.44254 25.3563C2.01963 24.9272 0.872111 24.3755 0 23.7012L0.78031 20.1609C1.91252 21.1418 3.09064 21.8621 4.31465 22.3218C5.55397 22.7816 6.80859 23.0115 8.0785 23.0115C9.47082 23.0115 10.7101 22.6284 11.7964 21.8621C12.8828 21.0958 13.4259 20.0153 13.4259 18.6207C13.4259 18.0077 13.2806 17.4406 12.9899 16.9195C12.7145 16.3831 12.1331 15.8621 11.2456 15.3563C10.3582 14.8506 9.01946 14.3295 7.22934 13.7931C5.43922 13.2567 4.06985 12.6513 3.12124 11.977C2.18793 11.2874 1.54532 10.5287 1.19342 9.70115C0.856811 8.85824 0.688509 7.94636 0.688509 6.96552C0.688509 5.98467 0.963912 4.95785 1.51472 3.88506C2.06553 2.81226 2.93764 1.90038 4.13105 1.14943C5.32447 0.383142 6.86979 0 8.76701 0C10.0981 0 11.2839 0.122605 12.3243 0.367816C13.38 0.613027 14.4663 1.00383 15.5832 1.54023L14.8947 4.89655C13.6554 4.22222 12.5691 3.73946 11.6358 3.44828C10.7178 3.15709 9.70797 3.01149 8.60636 3.01149C7.22934 3.01149 6.10478 3.39464 5.23267 4.16092C4.37586 4.91188 3.94745 5.76245 3.94745 6.71264C3.94745 7.341 4.0775 7.90038 4.3376 8.39081C4.61301 8.8659 5.15616 9.31801 5.96707 9.74713C6.77799 10.1762 8.002 10.6284 9.63912 11.1034C11.9189 11.7778 13.6631 12.6743 14.8718 13.7931C16.0805 14.9119 16.6849 16.4061 16.6849 18.2759C16.6849 19.8084 16.2947 21.1571 15.5144 22.3218C14.7341 23.4866 13.6937 24.3908 12.3932 25.0345C11.0926 25.6782 9.65442 26 8.0785 26Z" fill="#020202"/>
<path fill-rule="evenodd" clip-rule="evenodd" d="M33.1724 26C31.3363 26 29.6074 25.5096 27.9856 24.5287C26.3791 23.5326 25.0785 22.0843 24.084 20.1839C23.0895 18.2682 22.5923 15.931 22.5923 13.1724C22.5923 10.4138 23.1125 8.05364 24.1529 6.09195C25.2086 4.13027 26.5703 2.62835 28.238 1.58621C29.9058 0.528736 31.6653 0 33.5166 0C35.3526 0 37.0662 0.498084 38.6575 1.49425C40.264 2.4751 41.5569 3.92337 42.5361 5.83908C43.5306 7.73946 44.0278 10.069 44.0278 12.8276C44.0278 15.5862 43.5 17.954 42.4443 19.931C41.4039 21.8927 40.0574 23.3946 38.405 24.4368C36.7526 25.4789 35.0084 26 33.1724 26ZM33.356 23.0115C35.4521 23.0115 37.1887 22.1533 38.5657 20.4368C39.958 18.705 40.6541 16.3142 40.6541 13.2644C40.6541 10.0766 39.9809 7.57088 38.6345 5.74713C37.3034 3.92337 35.5439 3.01149 33.356 3.01149C31.1833 3.01149 29.4009 3.89272 28.0085 5.65517C26.6315 7.4023 25.943 9.77012 25.943 12.7586C25.943 15.9004 26.6162 18.3985 27.9626 20.2529C29.3244 22.092 31.1221 23.0115 33.356 23.0115Z" fill="#020202"/>
<path d="M51.427 22.5977C51.4117 23.9004 51.3429 24.8966 51.2205 25.5862H55.0073C54.8696 24.9119 54.7854 23.9234 54.7548 22.6207C54.7395 21.318 54.7319 19.8084 54.7319 18.092V13.954H64.7152V11.1954H54.7319V3.26437H66.184V0.413793H51.2205C51.3429 1.10345 51.4117 2.12261 51.427 3.47126C51.4576 4.8046 51.4729 6.31418 51.4729 8V18.092C51.4729 19.7931 51.4576 21.295 51.427 22.5977Z" fill="#020202"/>
<path d="M79.2749 25.5862C79.4279 24.8966 79.5197 23.9004 79.5503 22.5977C79.5962 21.295 79.6192 19.7931 79.6192 18.092V3.26437H75.5799C74.8149 3.26437 74.0881 3.28736 73.3996 3.33333C72.7264 3.36398 72.0456 3.45594 71.357 3.6092V0.413793H91.2549V3.6092C90.5664 3.45594 89.8779 3.36398 89.1894 3.33333C88.5162 3.28736 87.7971 3.26437 87.0321 3.26437H82.901V18.092C82.901 19.7931 82.9163 21.295 82.9469 22.5977C82.9928 23.9004 83.0923 24.8966 83.2453 25.5862H79.2749Z" fill="#020202"/>
</svg>
