<svg width="24" height="24" viewBox="0 0 24 24" fill="none" xmlns="http://www.w3.org/2000/svg">
<path fill-rule="evenodd" clip-rule="evenodd" d="M9.172 14.834L12.002 16.769L14.73 14.887L20.845 20.92C20.684 20.972 20.512 21 20.333 21H3.667C3.447 21 3.237 20.957 3.044 20.88L9.172 14.834ZM22 9.876V19.333C22 19.58 21.946 19.814 21.85 20.025L15.856 14.111L22 9.876ZM2 9.929L8.042 14.061L2.106 19.919C2.0357 19.7316 1.99979 19.5331 2 19.333V9.929ZM20.333 6C21.253 6 22 6.746 22 7.667V8.253L11.998 15.148L2 8.31V7.667C2 6.747 2.746 6 3.667 6H20.333Z" fill="currentColor"/>
</svg>
