<svg width="24" height="24" viewBox="0 0 24 24" fill="none" xmlns="http://www.w3.org/2000/svg">
<path d="M21.75 6L12 0.75L2.25 6V9L3.225 9.975L2.25 10.5V18L12 23.25L21.75 18V15L20.775 14.025L21.75 13.5V6Z" fill="#3DB7AD"/>
<path d="M2.25 6L12 11.25V18.75L2.25 9V6Z" fill="#2565D0"/>
<path d="M2.25 10.5L12 20.25V23.25L2.25 18V10.5Z" fill="#2565D0"/>
<path d="M12 11.25L21.75 6L12 0.75L2.25 6L12 11.25Z" fill="#C6DBFF"/>
<path d="M12 18.75L21.75 13.5V6L12 11.25V18.75Z" fill="#6890D4"/>
<path d="M12 23.25L21.75 18V15L12 20.25V23.25Z" fill="#6890D4"/>
</svg>
