<svg width="16" height="16" viewBox="0 0 16 16" fill="none" xmlns="http://www.w3.org/2000/svg">
<rect width="16" height="16" rx="4" fill="#2878B7"/>
<path d="M12.4151 8.90566V12H10.6038V9.09434C10.6038 8.37736 10.3396 7.88679 9.69811 7.88679C9.20755 7.88679 8.90566 8.22642 8.79245 8.5283C8.75472 8.64151 8.71698 8.79245 8.71698 8.98113V12H6.90566C6.90566 12 6.9434 7.09434 6.90566 6.60377H8.71698V7.35849C8.9434 6.98113 9.39622 6.45283 10.3396 6.45283C11.5094 6.45283 12.4151 7.24528 12.4151 8.90566ZM5.01887 4C4.41509 4 4 4.41509 4 4.9434C4 5.4717 4.37736 5.88679 4.98113 5.88679C5.62264 5.88679 6 5.4717 6 4.9434C6.03774 4.37736 5.66038 4 5.01887 4ZM4.11321 12H5.92453V6.60377H4.11321V12Z" fill="white"/>
</svg>
