<svg width="120" height="36" viewBox="0 0 120 36" fill="none" xmlns="http://www.w3.org/2000/svg">
<path fill-rule="evenodd" clip-rule="evenodd" d="M120 0H67.2V36H120V0ZM83.8746 9.91222V17.7646V25.58L83.8749 25.6044L83.8755 25.63C83.8763 25.6631 83.8771 25.6959 83.8746 25.7278C83.8672 25.8184 83.8913 25.872 83.9949 25.8572C84.0196 25.8547 84.0443 25.8555 84.0689 25.8564C84.0813 25.8568 84.0936 25.8572 84.1059 25.8572C84.5431 25.8572 84.9805 25.8574 85.418 25.8576C86.2934 25.858 87.1694 25.8584 88.0453 25.8572C88.0729 25.8572 88.0973 25.8575 88.1189 25.8578C88.203 25.8588 88.244 25.8593 88.2635 25.8391C88.282 25.8199 88.2812 25.7821 88.2796 25.7083C88.2791 25.6834 88.2785 25.6544 88.2785 25.6206V9.9344C88.2785 9.92208 88.2781 9.90976 88.2777 9.89744C88.2768 9.87279 88.276 9.84815 88.2785 9.82351C88.2877 9.73111 88.2563 9.68306 88.1564 9.69415C88.1367 9.69661 88.1162 9.6958 88.0954 9.69498L88.0954 9.69498C88.0849 9.69456 88.0744 9.69415 88.0638 9.69415C87.6224 9.69415 87.1808 9.69394 86.7391 9.69374H86.7389H86.7387C85.8549 9.69333 84.9707 9.69292 84.0874 9.69415C84.0612 9.69415 84.0382 9.6938 84.018 9.6935C83.9452 9.69241 83.9087 9.69186 83.8906 9.70987C83.8723 9.72807 83.8728 9.76524 83.874 9.83998L83.874 9.84019C83.8743 9.86112 83.8746 9.88499 83.8746 9.91222ZM105.809 9.69469H99.24C97.051 9.69469 94.8621 9.69469 92.6749 9.69284C92.6582 9.69284 92.6417 9.69305 92.6253 9.69326C92.5926 9.69367 92.5602 9.69407 92.5269 9.69284C92.4529 9.68915 92.427 9.72426 92.4325 9.79264C92.4338 9.81349 92.4334 9.83353 92.433 9.85384V9.8539L92.4327 9.87098L92.4325 9.88504V13.6366L92.4324 13.6755C92.432 13.756 92.4319 13.7957 92.4516 13.815C92.4707 13.8338 92.5086 13.8334 92.5831 13.8328C92.5985 13.8326 92.6155 13.8325 92.6342 13.8325H96.7605C96.8951 13.8325 96.9617 13.8325 96.9946 13.8658C97.027 13.8984 97.027 13.9631 97.027 14.0912V25.6581C97.027 25.6803 97.0267 25.7001 97.0265 25.7176C97.0255 25.784 97.025 25.8187 97.0421 25.8368C97.0608 25.8566 97.1007 25.8564 97.1841 25.856L97.225 25.8559H97.2805H101.185C101.309 25.8559 101.37 25.8559 101.401 25.8251C101.431 25.7949 101.431 25.7348 101.431 25.6156V14.0487C101.431 14.0236 101.431 14.0014 101.43 13.9818C101.429 13.9103 101.429 13.8731 101.447 13.8539C101.467 13.8331 101.509 13.8334 101.596 13.8341L101.651 13.8343H105.851C106.033 13.8343 106.033 13.8343 106.035 13.6551V13.5996V9.922C106.035 9.89636 106.035 9.87358 106.035 9.85333C106.036 9.77199 106.037 9.73164 106.017 9.7119C105.997 9.69246 105.958 9.69301 105.879 9.69408C105.859 9.69437 105.835 9.69469 105.809 9.69469Z" fill="black"/>
<path fill-rule="evenodd" clip-rule="evenodd" d="M52.8 0H0V36H52.8L67.2 18L52.8 0ZM23.3462 15.3694C23.4263 15.4344 23.5069 15.4997 23.5886 15.5652C23.6428 15.5322 23.6763 15.4871 23.7078 15.4446C23.7152 15.4347 23.7224 15.4249 23.7298 15.4155C24.0159 15.0755 24.3002 14.7336 24.5845 14.3917C25.155 13.7097 25.7236 13.0278 26.2922 12.344C26.4055 12.2073 26.4018 12.1444 26.2717 12.0336C26.1696 11.9449 26.0655 11.858 25.9596 11.7711C25.0565 11.0319 24.0643 10.4553 22.9401 10.1208C22.1894 9.89907 21.422 9.7771 20.6415 9.7235C19.6233 9.65512 18.6143 9.68839 17.6146 9.9194C14.1138 10.7251 11.5013 13.6229 11.1947 17.3375C11.1129 18.3391 11.1909 19.3315 11.4474 20.3054C12.0308 22.5102 13.2981 24.1993 15.3105 25.3118C16.4068 25.918 17.5942 26.2377 18.8428 26.3375C19.9001 26.4225 20.9463 26.3578 21.9794 26.1249C23.7261 25.7313 25.2702 24.9366 26.6434 23.8001C26.753 23.7095 26.7976 23.619 26.7976 23.4748C26.7931 21.7068 26.7934 19.9375 26.7937 18.169L26.7939 16.8422C26.7939 16.8192 26.7923 16.7959 26.7907 16.7726C26.7871 16.7209 26.7835 16.6694 26.7976 16.6223C26.8139 16.5676 26.7844 16.5362 26.7557 16.5056C26.732 16.4804 26.7088 16.4557 26.7121 16.419C26.7196 16.358 26.6787 16.3488 26.6304 16.3488H26.5003H19.2553C19.2412 16.3488 19.2268 16.3492 19.2123 16.3496C19.1832 16.3504 19.1538 16.3512 19.1253 16.3488C19.0509 16.3414 19.0268 16.3783 19.0324 16.4467C19.0348 16.4751 19.034 16.5043 19.0332 16.5333C19.0328 16.5477 19.0324 16.562 19.0324 16.5761C19.0324 16.9642 19.0322 17.3523 19.032 17.7403C19.0315 18.5165 19.0311 19.2927 19.0324 20.0689C19.0324 20.101 19.0318 20.1286 19.0313 20.1524C19.0298 20.2234 19.029 20.2599 19.0468 20.2785C19.0658 20.2982 19.1056 20.2977 19.1876 20.2967C19.2081 20.2965 19.2312 20.2962 19.2572 20.2962H22.1745C22.1887 20.2962 22.2021 20.2961 22.2146 20.296C22.2247 20.2959 22.2342 20.2958 22.2432 20.2957C22.3241 20.2947 22.3633 20.2943 22.3821 20.3136C22.3998 20.3319 22.3992 20.3679 22.3981 20.4379C22.3977 20.4626 22.3972 20.4915 22.3975 20.5254C22.3987 20.6941 22.3983 20.862 22.3979 21.0301C22.3977 21.1143 22.3975 21.1986 22.3975 21.2831V21.2892C22.3975 21.6361 22.3975 21.6388 22.0835 21.7894C21.1637 22.2293 20.1919 22.3549 19.1885 22.2293C18.0736 22.0907 17.1816 21.564 16.5276 20.6529C16.1021 20.0596 15.8698 19.3907 15.7824 18.6699C15.6728 17.7496 15.7843 16.8644 16.2024 16.029C16.706 15.0256 17.4678 14.3048 18.5623 13.974C19.3297 13.7412 20.1064 13.8021 20.8757 13.9703C21.5725 14.1219 22.1801 14.4619 22.7394 14.8888C22.9444 15.0437 23.1437 15.2053 23.3462 15.3694L23.3462 15.3694L23.3462 15.3694ZM43.9853 12.0168C42.2665 10.4534 40.2188 9.70864 38.1024 9.692C37.125 9.69385 36.3947 9.77332 35.6199 9.97476C33.3715 10.5606 31.6118 11.8173 30.443 13.8242C29.2427 15.883 28.9993 18.0914 29.67 20.3626C30.4207 22.9019 32.0206 24.7499 34.4957 25.7793C36.3966 26.5684 38.3662 26.6737 40.3526 26.1526C42.6604 25.5483 44.4294 24.2121 45.5889 22.1275C46.5662 20.37 46.8282 18.485 46.464 16.5168C46.137 14.7483 45.3194 13.2329 43.9853 12.0168ZM34.4938 15.9865C35.2427 14.606 36.4393 13.9444 37.6007 13.9185C39.9568 13.9129 41.4972 15.238 41.9171 17.075C42.1717 18.1819 42.0584 19.2575 41.5139 20.2628C40.8729 21.4437 39.8732 22.1312 38.5279 22.2846C37.2272 22.4343 36.0918 22.0665 35.1646 21.1314C34.57 20.5327 34.2114 19.8027 34.059 18.9784C33.8658 17.9343 33.9847 16.9234 34.4938 15.9865Z" fill="black"/>
</svg>
