<svg width="754" height="327" viewBox="0 0 754 327" fill="none" xmlns="http://www.w3.org/2000/svg">
<g clip-path="url(#clip0_200_1391)">
<path d="M477.817 187.86C587.075 124.684 624.484 -15.2804 561.372 -124.76C498.26 -234.239 358.526 -271.776 249.268 -208.6C140.01 -145.424 102.601 -5.45887 165.713 104.021C228.825 213.5 368.559 251.036 477.817 187.86Z" stroke="url(#paint0_linear_200_1391)" stroke-linecap="round" stroke-linejoin="round"/>
<path opacity="0.94" d="M421.531 -233.349C455.145 -225.277 485.875 -209.82 509.891 -187.791C517.913 -180.32 525.529 -172.424 532.706 -164.138C545.474 -149.938 557.08 -134.733 567.411 -118.669C581.406 -96.5823 591.403 -72.1994 596.943 -46.6405C603.805 -14.8448 603.091 20.0061 592.521 52.6802C579.186 93.7814 553.833 124.861 524.106 153.231C498.784 177.395 471.204 200.342 438.073 211.493C412.309 220.213 384.266 220.888 356.424 219.426C337.539 218.498 318.765 215.973 300.303 211.88C285.862 208.704 271.757 204.156 258.179 198.297C230.291 186.027 205.471 167.71 185.51 144.669C165.594 121.629 150.759 94.6402 141.976 65.4693C133.48 37.2867 130.547 7.31357 132.118 -23.2556C132.689 -39.0445 134.977 -54.7233 138.943 -70.0141C146.666 -98.3631 161.071 -122.914 177.01 -145.66C190.313 -164.606 204.583 -181.801 222.437 -195.887C233.692 -204.658 245.952 -212.052 258.959 -217.912C271.916 -223.736 285.369 -228.384 299.156 -231.799C338.094 -241.561 379.93 -243.366 421.531 -233.349Z" stroke="url(#paint1_linear_200_1391)" stroke-linecap="round" stroke-linejoin="round"/>
<path opacity="0.88" d="M420.421 -235.353C455.133 -227.939 487.622 -212.365 511.223 -188.358C519.032 -180.39 526.307 -171.855 533.66 -163.186C546.521 -148.033 559.515 -133.058 570.658 -117.428C586.339 -95.8305 597.901 -71.5205 604.764 -45.7216C613.307 -13.3611 613.111 23.5338 600.683 56.306C584.96 97.5761 555.615 124.357 524.32 153.443C498.107 177.965 472.378 205.674 438.344 216.908C411.997 225.629 382.727 222.662 354.548 220.499C335.038 219.046 315.614 216.602 296.35 213.177C281.707 210.666 267.331 206.783 253.412 201.578C224.639 190.293 199.078 172.094 178.983 148.587C158.958 125.042 144.514 97.2671 136.734 67.3441C129.189 38.5782 127.712 8.25692 128.982 -22.7769C129.617 -38.5854 130.923 -54.5688 135.303 -70.31C143.254 -98.9248 159.61 -122.539 175.391 -145.867C188.486 -165.254 200.932 -183.436 218.59 -198.114C229.819 -207.213 242.324 -214.609 255.703 -220.066C268.942 -225.475 282.629 -229.711 296.608 -232.726C336.06 -241.653 378.298 -244.373 420.421 -235.353Z" stroke="url(#paint2_linear_200_1391)" stroke-linecap="round" stroke-linejoin="round"/>
<path opacity="0.81" d="M419.294 -237.361C455.128 -230.584 489.355 -214.927 512.54 -188.942C520.191 -180.377 527.157 -171.271 534.595 -162.18C547.594 -146.323 561.641 -131.406 573.948 -116.147C591.283 -95.0037 604.407 -70.729 612.608 -44.6388C622.816 -11.7037 623.142 27.2219 608.859 60.0789C590.677 101.513 557.336 123.966 524.56 153.806C497.355 178.587 473.519 211.112 438.539 222.433C411.62 231.171 381.173 224.532 352.558 221.613C332.778 219.586 312.269 217.364 292.263 214.538C277.435 212.624 262.815 209.346 248.586 204.746C218.941 194.458 192.614 176.355 172.381 152.344C152.261 128.305 138.221 99.7689 131.449 69.1518C124.872 39.793 124.792 9.07928 125.806 -22.3786C126.312 -38.4489 127.048 -54.7419 131.621 -70.6729C139.783 -99.5438 158.109 -122.245 173.611 -146.118C186.51 -165.941 197.105 -185.117 214.593 -200.381C225.529 -209.941 238.72 -217.104 252.191 -222.287C265.721 -227.275 279.651 -231.097 293.831 -233.712C334.007 -241.734 376.652 -245.397 419.294 -237.361Z" stroke="url(#paint3_linear_200_1391)" stroke-linecap="round" stroke-linejoin="round"/>
<path opacity="0.75" d="M418.183 -239.365C455.144 -233.294 491.105 -217.485 513.871 -189.508C521.372 -180.387 528.019 -170.67 535.534 -161.175C548.681 -144.595 563.799 -129.76 577.247 -114.834C595.98 -94.0255 610.697 -70.9968 620.436 -43.5327C632.327 -10.046 633.174 30.9669 617.017 63.8751C596.5 105.493 559.104 123.672 524.797 154.195C496.618 179.327 474.67 216.58 438.737 227.958C411.229 236.723 379.516 226.375 350.56 222.767C330.143 220.2 308.858 218.068 288.175 215.969C272.749 214.387 258.082 212.255 243.708 208.069C213.656 199.319 186.019 180.526 165.739 156.26C145.513 131.71 131.879 102.4 126.127 71.1057C120.515 41.1672 121.815 10.1274 122.578 -21.8243C122.959 -38.1699 123.108 -54.7626 127.771 -70.9252C136.156 -100.049 156.454 -121.837 171.756 -146.346C184.446 -166.608 193.205 -186.775 210.513 -202.642C221.337 -212.53 234.94 -219.64 248.659 -224.472C262.377 -229.305 276.524 -232.131 291.016 -234.652C331.956 -241.815 375.03 -246.443 418.183 -239.365Z" stroke="url(#paint4_linear_200_1391)" stroke-linecap="round" stroke-linejoin="round"/>
<path opacity="0.69" d="M417.069 -241.369C455.156 -236.006 492.872 -220.066 515.206 -190.102C522.461 -180.378 528.872 -170.099 536.483 -160.223C549.768 -142.938 565.949 -128.145 580.547 -113.593C600.933 -93.1787 617.177 -70.4937 628.309 -42.6129C641.918 -8.53741 643.205 34.4416 625.233 67.4453C602.328 109.232 560.951 123.073 525.096 154.289C495.981 179.681 475.816 221.734 438.99 233.214C410.896 241.992 377.921 227.922 348.634 223.585C327.585 220.464 305.523 218.422 284.173 217.012C268.529 215.983 253.635 214.643 238.916 211.004C208.282 203.419 179.665 184.577 159.195 159.748C138.48 134.668 125.708 103.945 120.886 72.6975C116.265 42.1863 118.981 10.7877 119.456 -21.6251C119.711 -38.2459 119.29 -55.1481 124.103 -71.5546C132.699 -100.934 154.964 -121.796 170.044 -146.905C182.538 -167.604 189.473 -188.758 206.585 -205.217C217.299 -215.491 231.246 -222.508 245.268 -226.989C259.29 -231.469 273.658 -233.739 288.347 -235.937C329.906 -241.91 373.372 -247.527 417.069 -241.369Z" stroke="url(#paint5_linear_200_1391)" stroke-linecap="round" stroke-linejoin="round"/>
<path opacity="0.63" d="M415.956 -243.373C455.173 -238.73 494.639 -222.647 516.538 -190.682C523.597 -180.386 529.718 -169.502 537.426 -159.187C550.845 -141.184 568.116 -126.539 583.827 -112.271C605.854 -92.2556 623.619 -69.9011 636.168 -41.5265C651.391 -6.90396 653.213 38.1092 633.409 71.2748C608.102 113.227 562.734 122.769 525.322 154.761C495.264 180.44 476.996 227.296 439.175 238.836C410.495 247.627 376.367 229.85 346.633 224.795C324.62 221.186 302.389 219.07 280.092 218.46C264.219 217.966 249.119 217.452 234.045 214.344C202.731 207.87 173.228 189.046 152.62 163.725C131.71 138.209 119.486 106.496 115.638 74.6857C111.962 43.5612 116.056 11.7931 116.321 -21.0596C116.452 -37.9556 115.496 -55.1434 120.399 -71.7248C129.208 -101.374 153.441 -121.31 168.307 -147.001C180.602 -168.123 185.691 -190.285 202.633 -207.33C213.216 -217.965 227.545 -224.923 241.858 -229.055C256.17 -233.188 270.737 -234.878 285.654 -236.759C327.866 -241.988 371.788 -248.563 415.956 -243.373Z" stroke="url(#paint6_linear_200_1391)" stroke-linecap="round" stroke-linejoin="round"/>
<path opacity="0.56" d="M414.844 -245.377C455.194 -241.467 496.411 -225.241 517.87 -191.262C524.721 -180.396 530.582 -168.914 538.363 -158.182C551.92 -139.473 570.281 -124.92 587.128 -110.972C610.795 -91.3551 630.117 -69.3505 644.015 -40.5C660.919 -5.31251 663.296 41.7686 641.531 74.9906C613.849 117.115 564.486 122.372 525.522 155.071C494.528 181.067 478.101 232.667 439.347 244.241C410.078 253.058 374.744 231.56 344.616 225.803C321.981 221.626 299.005 219.589 275.991 219.719C259.903 219.764 244.564 220.039 229.155 217.494C197.195 212.212 166.779 193.299 145.901 167.451C124.843 141.369 113.081 108.885 110.239 76.4486C107.527 44.7444 113.011 12.6104 113.028 -20.6928C113.02 -37.8676 111.467 -55.372 116.549 -72.1469C125.583 -102.048 151.77 -121.061 166.479 -147.335C178.565 -168.897 181.817 -192.049 198.576 -209.684C209.046 -220.691 223.749 -227.562 238.338 -231.35C252.928 -235.138 267.739 -236.251 282.871 -237.875C325.805 -242.086 370.175 -249.706 414.844 -245.377Z" stroke="url(#paint7_linear_200_1391)" stroke-linecap="round" stroke-linejoin="round"/>
<path opacity="0.5" d="M413.719 -247.384C455.215 -244.205 498.197 -227.832 519.2 -191.829C525.871 -180.4 531.38 -168.344 539.303 -157.19C553.008 -137.759 572.459 -123.297 590.416 -109.677C615.74 -90.4681 636.598 -68.8471 651.872 -39.4568C670.443 -3.70806 673.342 45.4038 649.775 78.7248C619.688 121.028 566.358 122.007 525.818 155.392C493.887 181.705 479.308 238.08 439.601 249.767C409.746 258.598 373.196 233.361 342.684 226.918C319.425 222.16 295.683 220.2 271.962 221.081C255.666 221.64 240.103 222.75 224.349 220.752C191.768 216.625 160.398 197.67 139.336 171.289C118.047 144.69 106.831 111.385 104.99 78.3371C103.243 46.0532 110.117 13.5532 109.889 -20.2138C109.752 -37.6506 107.628 -55.4644 112.851 -72.4433C122.109 -102.654 150.25 -120.688 164.696 -147.572C176.573 -169.574 178.012 -193.753 194.577 -211.937C204.934 -223.372 220.015 -230.114 234.864 -233.548C249.714 -236.982 264.761 -237.491 280.144 -238.778C323.752 -242.167 368.577 -250.846 413.719 -247.384Z" stroke="url(#paint8_linear_200_1391)" stroke-linecap="round" stroke-linejoin="round"/>
<path opacity="0.44" d="M412.606 -249.389C455.23 -246.973 499.998 -230.433 520.518 -192.413C527.007 -180.407 532.283 -167.746 540.24 -156.185C554.083 -136.049 574.626 -121.692 593.706 -108.396C620.687 -89.5947 643.054 -68.2511 659.731 -38.4273C679.97 -2.1172 683.387 49.0386 657.962 82.4577C625.491 124.917 568.162 121.624 526.071 155.715C493.206 182.331 480.464 243.464 439.814 255.225C409.377 264.113 371.622 235.099 340.708 227.979C316.831 222.632 292.312 220.751 267.903 222.393C251.399 223.464 235.59 225.39 219.504 223.943C186.288 220.968 153.987 201.989 132.744 175.062C111.501 148.135 100.563 113.739 99.6987 80.1713C98.9135 47.2643 107.167 14.4382 106.69 -19.7793C106.431 -37.5046 103.717 -55.605 109.083 -72.8013C118.55 -103.212 148.694 -120.452 162.911 -147.91C174.595 -170.361 174.213 -195.483 190.605 -214.297C200.841 -226.021 216.301 -232.745 231.441 -235.831C246.58 -238.917 261.862 -238.923 277.411 -239.824C321.716 -242.259 366.957 -251.963 412.606 -249.389Z" stroke="url(#paint9_linear_200_1391)" stroke-linecap="round" stroke-linejoin="round"/>
<path opacity="0.38" d="M411.489 -251.38C455.247 -249.754 501.799 -233.034 521.85 -192.993C528.146 -180.428 533.161 -167.212 541.176 -155.18C555.164 -134.366 576.779 -120.034 597.006 -107.097C625.631 -88.7081 649.534 -67.6915 667.577 -37.4014C689.493 -0.51316 693.419 52.6698 666.15 86.1907C631.273 128.829 569.98 121.244 526.326 156.024C492.521 182.971 481.617 248.862 440.025 260.697C409.012 269.558 370.038 236.819 338.732 229.04C314.238 223.102 288.927 221.299 263.844 223.705C247.119 225.285 231.09 228.033 214.642 227.143C180.792 225.319 147.566 206.292 126.115 178.869C104.664 151.445 94.3187 116.213 94.4201 82.0089C94.5924 48.5487 104.256 15.3337 103.513 -19.3246C103.13 -37.3251 99.8453 -55.7349 105.347 -73.1221C114.98 -103.829 147.126 -120.062 161.133 -148.117C172.618 -170.991 170.363 -197.128 186.532 -216.542C196.654 -228.637 212.492 -235.289 227.905 -238.017C243.319 -240.745 258.838 -240.204 274.598 -240.778C319.663 -242.341 365.351 -253.133 411.489 -251.38Z" stroke="url(#paint10_linear_200_1391)" stroke-linecap="round" stroke-linejoin="round"/>
<path opacity="0.31" d="M410.43 -253.369C455.319 -252.52 503.671 -235.63 523.236 -193.559C529.353 -180.431 534.05 -166.56 542.169 -154.174C556.285 -132.614 579.01 -118.453 600.347 -105.788C630.632 -87.82 656.054 -67.1206 675.5 -36.3403C699.087 1.09603 703.531 56.3229 674.405 89.8853C637.153 132.696 571.94 120.917 526.66 156.313C491.974 183.634 482.855 254.212 440.333 266.125C408.717 275.009 368.549 238.508 336.848 230.083C311.706 223.529 285.554 221.804 259.776 225.001C242.816 227.087 226.577 230.673 209.793 230.347C175.323 229.622 141.222 210.63 119.507 182.653C97.7926 154.675 87.9977 118.553 89.129 83.8436C90.2657 49.8037 101.32 16.2228 100.349 -18.909C99.8098 -37.1787 96.0342 -55.8766 101.61 -73.4857C111.505 -104.435 145.57 -119.769 159.364 -148.407C170.64 -171.721 166.548 -198.849 182.587 -218.837C192.582 -231.308 208.798 -237.886 224.505 -240.28C240.212 -242.673 255.944 -241.549 271.908 -241.769C317.611 -242.422 363.722 -254.266 410.43 -253.369Z" stroke="url(#paint11_linear_200_1391)" stroke-linecap="round" stroke-linejoin="round"/>
<path opacity="0.25" d="M409.264 -255.388C455.291 -255.342 505.433 -238.242 524.515 -194.154C530.437 -180.452 534.861 -165.987 543.053 -153.183C557.309 -130.875 581.149 -116.898 603.582 -104.507C635.568 -87.0067 662.472 -66.5918 683.28 -35.332C708.534 2.72228 713.511 59.9401 682.516 93.6404C642.859 136.63 573.678 120.573 526.832 156.671C491.213 184.297 483.941 259.649 440.422 271.678C408.221 280.575 366.844 240.31 334.791 231.236C309.067 224.065 282.124 222.402 255.72 226.356C238.564 228.858 222.058 233.283 204.949 233.538C169.808 233.941 134.666 214.911 112.883 186.446C91.0997 157.981 81.6891 120.953 83.8379 85.6778C85.9957 51.0591 98.3904 17.0848 97.1634 -18.471C96.4465 -37.0301 92.0871 -56.041 97.8687 -73.8364C107.975 -105.042 144.007 -119.45 157.644 -148.67C168.724 -172.42 162.796 -200.538 178.638 -221.12C188.517 -233.949 205.11 -240.454 221.091 -242.49C237.072 -244.526 253.037 -242.841 269.236 -242.771C315.562 -242.517 362.1 -255.427 409.264 -255.388Z" stroke="url(#paint12_linear_200_1391)" stroke-linecap="round" stroke-linejoin="round"/>
<path opacity="0.19" d="M408.139 -257.396C455.303 -258.153 507.252 -240.852 525.848 -194.734C531.573 -180.403 535.712 -165.403 543.994 -152.191C558.408 -129.201 583.314 -115.279 606.886 -103.222C640.499 -86.1232 668.952 -66.0316 691.137 -34.2887C718.087 4.22074 723.544 63.5718 690.704 97.3738C648.658 140.532 575.483 120.19 527.075 156.978C490.506 184.917 485.085 265.031 440.664 277.087C407.874 286.011 365.305 241.972 332.804 232.237C306.475 224.456 278.707 222.879 251.672 227.629C234.264 230.703 217.581 235.948 200.127 236.749C164.355 238.29 128.335 219.252 106.302 190.237C84.2682 161.221 75.4469 123.371 78.5398 87.539C81.6127 52.3131 95.4469 18.0003 93.9881 -18.0157C93.2024 -36.8491 88.2029 -56.1741 94.1375 -74.17C104.468 -105.628 142.458 -119.126 155.828 -148.944C166.7 -173.134 158.934 -202.243 174.597 -223.427C184.358 -236.614 201.343 -243.043 217.597 -244.721C233.852 -246.399 250.104 -244.14 266.45 -243.774C313.51 -242.598 360.488 -256.626 408.139 -257.396Z" stroke="url(#paint13_linear_200_1391)" stroke-linecap="round" stroke-linejoin="round"/>
<path opacity="0.13" d="M407.026 -259.4C455.306 -260.981 509.084 -243.459 527.177 -195.301C532.743 -180.486 536.563 -164.819 544.931 -151.185C559.483 -127.491 585.482 -113.673 610.174 -101.927C645.47 -85.2292 675.419 -65.4752 698.997 -33.2589C727.596 5.87818 733.589 67.2069 698.878 101.103C654.444 144.431 577.288 119.808 527.341 157.305C489.821 185.614 486.252 270.433 440.888 282.563C407.512 291.5 363.752 243.687 330.842 233.302C303.895 224.889 275.272 223.389 247.6 228.938C229.978 232.494 213.081 238.591 195.278 239.953C158.872 242.646 121.928 223.559 99.6406 194.006C77.3532 164.453 69.1247 125.767 73.1989 89.3459C77.2363 53.5403 92.4607 18.8616 90.7434 -17.6218C89.829 -36.7171 84.2519 -56.3251 90.3573 -74.5878C100.915 -106.312 140.872 -118.884 154.016 -149.288C164.692 -173.915 155.09 -204.014 170.583 -225.784C180.23 -239.343 197.576 -245.689 214.108 -247.022C230.639 -248.356 247.072 -245.551 263.695 -244.841C311.461 -242.693 358.873 -257.813 407.026 -259.4Z" stroke="url(#paint14_linear_200_1391)" stroke-linecap="round" stroke-linejoin="round"/>
<path opacity="0.06" d="M405.913 -261.404C455.323 -263.918 510.976 -246.077 528.496 -195.884C533.91 -180.499 537.426 -164.231 545.871 -150.193C560.571 -125.777 587.645 -112.054 613.461 -100.631C650.388 -84.3493 681.89 -64.9319 706.839 -32.2193C737.11 7.46592 743.635 70.8421 707.105 104.847C660.283 148.344 579.132 119.435 527.631 157.596C489.191 186.156 487.499 275.799 441.149 288.006C407.2 296.96 362.249 245.316 328.917 234.335C301.358 225.251 271.856 223.821 243.556 230.197C225.692 234.229 208.592 241.195 190.408 243.08C153.363 246.938 115.491 227.815 93.0562 197.754C70.621 167.692 62.8696 128.125 67.9347 91.131C72.9401 54.7324 89.5644 19.7046 87.5851 -17.2328C86.5747 -36.553 80.4271 -56.4704 86.6386 -74.9179C97.4065 -106.898 139.332 -118.544 152.266 -149.544C162.746 -174.607 151.307 -205.697 166.604 -228.06C176.134 -241.977 193.875 -248.26 210.68 -249.236C227.484 -250.211 244.128 -246.866 260.972 -245.813C309.408 -242.775 357.246 -259.116 405.913 -261.404Z" stroke="url(#paint15_linear_200_1391)" stroke-linecap="round" stroke-linejoin="round"/>
<path d="M477.817 187.86C587.075 124.684 624.483 -15.2808 561.371 -124.76C498.259 -234.24 358.525 -271.776 249.267 -208.6C140.009 -145.424 102.6 -5.45935 165.713 104.02C228.825 213.5 368.559 251.036 477.817 187.86Z" stroke="url(#paint16_linear_200_1391)" stroke-linecap="round" stroke-linejoin="round"/>
<path opacity="0.86" d="M427.931 -241.66C462.032 -232.22 490.451 -208.754 514.088 -185.519C533.384 -166.549 548.383 -143.828 561.939 -120.442C569.095 -108.115 575.824 -95.5753 580.203 -81.9463C587.695 -58.6106 587.693 -34.017 588.474 -9.05696C589.098 10.4873 590.305 29.392 585.847 49.1927C582.414 63.745 576.838 77.7043 569.303 90.6127C561.882 103.42 553.24 115.478 543.498 126.618C515.327 159.472 480.396 186.644 440.546 202.473C400.304 218.496 353.846 223.452 309.716 208.449C301.474 205.653 293.635 202.042 285.586 198.843C271.33 193.154 257.128 188.431 243.942 183.043C225.234 175.559 207.785 165.241 192.208 152.45C172.077 135.857 155.211 113.005 147.459 88.6752C137.54 57.5799 140.756 28.774 141.953 -5.49272C142.879 -30.1938 142.533 -56.5155 150.957 -80.7389C161.522 -111.112 178.469 -135.819 199.118 -157.699C216.942 -176.57 236.924 -193.274 258.653 -207.466C275.836 -218.618 294.59 -229.534 314.068 -235.777C349.245 -247.089 389.613 -252.217 427.931 -241.66Z" stroke="url(#paint17_linear_200_1391)" stroke-linecap="round" stroke-linejoin="round"/>
<path opacity="0.71" d="M433.208 -251.99C466.381 -242.53 492.26 -212.595 513.999 -188.633C532.32 -168.46 545.421 -144.272 559.79 -120.896C567.365 -108.598 575.226 -96.4648 579.592 -82.6261C587.083 -58.8639 583.155 -33.8741 584.808 -8.72253C586.152 11.1007 591.064 29.3225 587.39 49.4331C584.719 64.0412 578.207 77.7177 570.38 89.6195C562.415 101.825 552.898 112.506 542.999 122.97C513.919 153.647 480.911 181.804 442.624 199.063C403.857 216.576 357.389 223.591 315.113 206.271C306.422 202.715 298.314 198.036 289.59 194.443C274.239 188.118 258.343 184.846 243.574 181.179C222.584 176.028 203.256 168.223 184.694 155.691C161.408 139.957 141.7 114.294 136.815 87.4787C130.557 53.1013 144.907 26.2607 148.731 -10.4998C151.602 -37.1665 148.322 -66.693 159.148 -91.9348C171.409 -120.63 190.525 -141.343 212.271 -160.896C231.121 -177.908 250.934 -193.821 271.611 -208.554C287.465 -219.78 305.065 -233.124 323.09 -240.041C356.101 -252.703 396.514 -262.353 433.208 -251.99Z" stroke="url(#paint18_linear_200_1391)" stroke-linecap="round" stroke-linejoin="round"/>
<path opacity="0.57" d="M438.484 -262.264C470.714 -252.787 493.964 -216.364 513.898 -191.706C531.217 -170.281 542.498 -144.649 557.669 -121.299C565.647 -109.02 574.639 -97.2945 579.001 -83.2292C586.479 -59.0441 578.619 -33.6882 581.159 -8.29816C583.198 11.7968 591.814 29.3358 588.933 49.7732C586.914 64.1726 579.871 77.5503 571.425 88.6888C562.894 100.089 552.777 109.67 542.491 119.405C512.505 147.891 481.417 177.048 444.71 195.725C407.455 214.753 360.98 223.544 320.419 204.168C311.304 199.802 302.921 194.082 293.531 190.111C277.034 183.137 259.446 181.302 243.12 179.421C219.894 176.739 198.41 171.043 177.171 159.072C150.754 144.16 128.189 115.797 126.185 86.3855C123.615 48.7329 149.129 23.8515 155.539 -15.4133C160.36 -44.0589 153.968 -76.7666 167.308 -103.068C181.036 -130.133 202.55 -146.805 225.375 -164.02C244.678 -178.585 264.892 -194.426 284.525 -209.584C299.108 -220.838 315.495 -236.654 332.064 -244.233C362.962 -258.343 403.427 -272.486 438.484 -262.264Z" stroke="url(#paint19_linear_200_1391)" stroke-linecap="round" stroke-linejoin="round"/>
<path opacity="0.43" d="M443.755 -272.567C475.066 -263.052 495.659 -220.092 513.842 -194.781C530.125 -172.084 539.579 -145.037 555.569 -121.723C563.978 -109.514 574.087 -98.1421 578.432 -83.8539C585.913 -59.2555 574.127 -33.5035 577.535 -7.90869C580.295 12.4651 592.576 29.3105 590.532 50.072C589.126 64.2521 581.588 77.3549 572.585 87.7611C563.582 98.1673 552.721 106.81 542.087 115.825C511.196 142.121 482.028 172.277 446.884 192.383C411.131 212.91 364.773 223.281 325.846 202.041C316.304 196.835 307.634 190.114 297.538 185.755C279.896 178.175 260.628 177.736 242.767 177.562C217.267 177.326 193.673 173.736 169.719 162.358C140.155 148.322 114.675 117.214 115.538 85.2597C116.655 44.3321 153.315 21.4762 162.341 -20.3424C169.031 -50.9882 159.429 -86.9321 175.469 -114.2C190.493 -139.737 214.598 -152.288 238.498 -167.153C259.153 -180.223 278.854 -194.745 297.454 -210.608C310.773 -221.86 325.934 -240.209 341.053 -248.419C369.823 -264.025 410.346 -282.631 443.755 -272.567Z" stroke="url(#paint20_linear_200_1391)" stroke-linecap="round" stroke-linejoin="round"/>
<path opacity="0.29" d="M449.038 -282.863C479.398 -273.291 497.307 -223.801 513.706 -197.875C528.907 -173.891 536.61 -145.451 553.386 -122.153C562.2 -109.921 573.456 -99.0088 577.797 -84.4941C585.304 -59.4622 569.545 -33.355 573.845 -7.53501C577.312 13.1141 593.229 29.272 592.034 50.3612C591.229 64.3617 583.225 77.14 573.615 86.7864C564.006 96.4327 552.556 103.879 541.564 112.216C509.754 136.374 482.527 167.449 448.939 189.011C414.635 211.078 368.549 222.873 331.142 199.88C321.211 193.788 312.228 186.116 301.493 181.386C282.757 173.114 261.754 174.172 242.354 175.716C214.653 177.975 188.885 176.46 162.216 165.675C129.538 152.452 101.161 118.633 104.897 84.1658C109.672 40.026 157.52 19.0366 169.122 -25.2465C177.735 -57.8782 164.725 -97.1681 183.638 -125.3C199.822 -149.388 226.629 -157.758 251.602 -170.261C273.029 -181.221 292.813 -195.137 310.376 -211.604C322.457 -222.847 336.36 -243.766 350.038 -252.59C376.638 -269.745 417.26 -292.759 449.038 -282.863Z" stroke="url(#paint21_linear_200_1391)" stroke-linecap="round" stroke-linejoin="round"/>
<path opacity="0.14" d="M454.308 -293.164C483.749 -283.61 498.889 -227.485 513.612 -200.971C527.669 -175.631 533.673 -145.828 551.256 -122.626C560.496 -110.393 572.876 -99.9182 577.2 -85.1806C584.677 -59.7162 565.026 -33.2322 570.191 -7.19425C574.365 13.7301 593.903 29.1969 593.584 50.6209C593.39 64.3587 584.897 76.8922 574.704 85.7991C564.511 94.7059 552.419 100.999 541.093 108.564C508.388 130.491 483.06 162.645 451.06 185.6C418.295 209.132 372.489 222.268 336.496 197.706C326.204 190.678 316.871 182.088 305.473 176.967C285.6 168.063 262.907 170.557 241.96 173.848C212.015 178.603 184.117 179.103 154.733 168.912C118.951 156.462 87.6637 119.985 94.256 83.015C102.675 35.6029 161.731 16.5702 175.92 -30.2172C186.452 -64.8216 169.893 -107.623 191.809 -136.47C209.096 -159.21 238.661 -163.343 264.735 -173.431C286.815 -182.22 306.782 -195.597 323.318 -212.679C334.194 -223.876 346.805 -247.402 359.04 -256.827C383.436 -275.512 424.174 -302.888 454.308 -293.164Z" stroke="url(#paint22_linear_200_1391)" stroke-linecap="round" stroke-linejoin="round"/>
<path opacity="0.08" d="M347.864 -274.218C389.893 -246.957 429.435 -244.7 475.409 -244.242C512.085 -243.906 580.767 -251.738 609.14 -228C637.109 -204.612 641.354 -169.241 633.075 -133.877C630.354 -122.269 606.7 -89.8952 605.891 -77.8441C604.39 -55.5021 618.858 -35.5823 623.894 -13.7883C626.584 -1.59697 626.315 11.0611 623.111 23.1247C619.907 35.1883 613.861 46.3059 605.479 55.5453C596.984 64.6372 586.001 72.0378 580.765 83.4404C571.52 103.618 607.651 132.808 610.482 154.508C611.215 160.106 611.317 165.991 609.154 171.21C606.374 177.941 600.293 182.677 594.219 186.648C577.498 197.555 534.149 198.54 514.582 201.774C481.7 207.162 445.42 201.204 416.77 218.646C396.58 230.952 379.816 254.556 356.339 252.177C335.783 250.027 324.053 229.052 307.524 216.995C292.867 204.843 265.984 215.04 249.085 217.057C225.748 219.89 202.404 222.626 179.053 225.266C143.794 229.134 106.231 232.484 74.7113 216.161C61.6038 209.232 50.3386 199.268 41.8546 187.099C33.3705 174.93 27.9133 160.909 25.9377 146.204C22 115.208 37.4562 72.1755 67.7853 61.4109C82.8124 56.0912 99.5036 57.5585 114.196 50.9406C132.777 42.5804 143.83 20.1015 141.94 -0.762745C139.607 -26.9775 121.826 -44.1757 105.085 -62.1322C82.3531 -86.397 63.9834 -114.414 50.7888 -144.944C44.4047 -159.836 39.3256 -175.572 38.9369 -191.854C38.5481 -208.136 43.4596 -225.227 54.9226 -236.919C81.6187 -264.154 132.338 -241.724 162.671 -234.022C181.503 -229.25 202.285 -220.032 222.217 -219.585C230.684 -219.387 239.704 -222.155 245.031 -228.643C251.351 -236.343 251.11 -246.913 253.355 -256.261C256.789 -269.839 265.453 -281.502 277.452 -288.7C305.561 -305.605 324.572 -289.342 347.864 -274.218Z" stroke="url(#paint23_linear_200_1391)" stroke-linecap="round" stroke-linejoin="round"/>
<path opacity="0.15" d="M354.118 -270.635C394.998 -245.131 433.235 -242.187 477.241 -240.267C512.843 -238.727 577.379 -243.905 604.738 -220.255C631.254 -197.271 635.632 -163.357 628.894 -129.186C626.594 -117.507 605.289 -86.7487 604.631 -74.5718C603.471 -52.9767 616.704 -33.5311 621.247 -12.395C623.673 -0.572513 623.356 11.6485 620.322 23.3268C617.287 35.0051 611.616 45.8292 603.744 54.9656C595.786 63.9601 585.55 71.2768 580.526 82.31C571.574 102.083 604.033 130.031 605.987 151.027C606.484 156.391 606.44 162.023 604.294 167.076C601.528 173.541 595.736 178.156 589.941 182.087C573.728 193.116 533.1 195.131 514.084 198.854C482.683 205.023 447.983 200.271 420.204 216.952C400.618 228.752 384.186 250.74 361.508 248.774C341.69 247.05 329.915 227.996 313.698 217.003C299.272 205.951 273.637 215.304 257.149 217.061C234.616 219.541 212.069 221.847 189.506 223.978C155.378 227.126 119.279 229.462 88.8197 213.579C76.2112 206.859 65.3051 197.338 56.9367 185.748C48.5684 174.158 42.9598 160.805 40.5405 146.712C35.8028 117.009 48.7839 76.169 75.7332 64.7671C89.0952 59.1425 104.064 59.721 117.164 52.8461C133.811 44.1798 143.632 22.536 141.688 2.35358C139.284 -22.8564 122.855 -39.905 107.511 -57.6146C86.5565 -81.5561 69.9372 -108.975 58.4016 -138.636C52.7595 -153.329 48.5478 -168.803 48.6384 -184.701C48.7291 -200.598 53.7894 -217.237 64.9015 -228.839C90.8201 -255.927 139.203 -237.238 169.134 -231.434C187.575 -227.905 207.835 -219.978 227.41 -220.054C235.688 -220.049 244.506 -222.756 249.931 -228.863C256.353 -236.095 256.785 -245.887 259.535 -254.631C263.759 -267.4 272.646 -278.099 284.416 -284.585C311.964 -299.977 331.081 -285.065 354.118 -270.635Z" stroke="url(#paint24_linear_200_1391)" stroke-linecap="round" stroke-linejoin="round"/>
<path opacity="0.23" d="M360.349 -267.072C400.073 -243.3 437.077 -239.621 479.036 -236.26C513.556 -233.489 573.953 -236.04 600.261 -212.387C625.382 -189.821 629.894 -157.306 624.646 -124.356C622.771 -112.619 603.779 -83.5006 603.351 -71.2765C602.525 -50.4019 614.518 -31.4737 618.58 -10.9788C620.74 0.474465 620.374 12.2608 617.508 23.5554C614.642 34.85 609.345 45.3801 601.988 54.4089C594.585 63.2396 585.061 70.5485 580.267 81.2025C571.598 100.554 600.397 127.264 601.458 147.565C601.732 152.699 601.49 158.064 599.406 162.935C596.672 169.124 591.151 173.627 585.663 177.527C569.907 188.65 532.031 191.688 513.588 195.92C483.656 202.811 450.549 199.325 423.644 215.231C404.687 226.433 388.497 246.879 366.662 245.424C347.556 244.119 335.753 226.976 319.893 217.089C305.762 207.111 281.294 215.554 265.211 217.122C243.46 219.229 221.708 221.179 199.955 222.76C166.971 225.079 132.333 226.413 102.998 210.946C90.8705 204.435 80.3115 195.346 72.062 184.318C63.8126 173.289 58.0725 160.588 55.2445 147.106C49.6096 118.739 60.2056 80.0741 83.7584 68.0447C95.4419 62.1116 108.61 61.78 120.226 54.6633C134.921 45.7005 143.524 24.8953 141.512 5.39127C139.046 -18.8405 123.971 -35.6961 110 -53.1791C90.8527 -76.8043 75.9828 -103.601 66.0642 -132.357C61.1809 -146.86 57.8197 -162.064 58.3898 -177.576C58.9598 -193.089 64.169 -209.276 74.9435 -220.784C100.101 -247.735 146.121 -232.793 175.668 -228.898C193.691 -226.519 213.462 -219.946 232.673 -220.517C240.768 -220.732 249.372 -223.384 254.847 -229.093C261.387 -235.866 262.489 -244.925 265.707 -252.974C270.724 -264.898 279.819 -274.642 291.363 -280.46C318.353 -294.353 337.577 -280.691 360.349 -267.072Z" stroke="url(#paint25_linear_200_1391)" stroke-linecap="round" stroke-linejoin="round"/>
<path opacity="0.31" d="M366.577 -263.495C405.12 -241.463 440.929 -237.038 480.829 -232.24C514.29 -228.218 570.532 -228.188 595.812 -204.569C619.51 -182.414 624.247 -151.275 620.411 -119.566C618.987 -107.765 602.361 -80.2712 602.041 -67.9753C601.524 -47.8282 612.314 -29.3935 615.881 -9.54317C617.79 1.53762 617.382 12.8933 614.684 23.8063C611.985 34.7192 607.055 44.952 600.204 53.8581C593.362 62.5553 584.574 69.8201 579.979 80.1011C571.603 99.0482 596.746 124.506 596.94 144.119C597.223 149.13 596.397 154.141 594.521 158.794C591.814 164.721 586.568 169.098 581.373 172.963C566.187 184.24 530.966 188.232 513.074 193.01C484.644 200.602 453.095 198.402 427.066 213.534C408.722 224.246 392.825 243.065 371.818 242.074C353.433 241.204 341.588 225.969 326.08 217.157C312.123 208.278 288.96 215.878 273.284 217.199C252.343 218.984 231.383 220.521 210.428 221.563C178.582 223.078 145.405 223.411 117.184 208.4C105.535 202.091 95.3222 193.429 87.1916 182.963C79.061 172.497 73.1903 160.454 69.9515 147.599C63.4265 120.544 71.6172 84.0756 91.761 71.3584C101.783 65.1072 113.189 63.8761 123.269 56.5034C136.03 47.2344 143.384 27.274 141.317 8.45183C138.792 -14.815 125.011 -31.4653 112.488 -48.7304C95.5111 -71.9107 81.8196 -97.9762 73.7282 -126.078C69.6072 -140.405 67.0931 -155.324 68.1425 -170.452C69.1919 -185.581 74.5332 -201.305 84.9604 -212.736C109.367 -239.534 153.033 -228.323 182.169 -226.343C199.787 -225.153 219.077 -219.917 237.927 -220.998C245.836 -221.42 254.223 -224.001 259.851 -229.328C266.503 -235.617 268.288 -243.937 271.977 -251.306C277.12 -261.667 286.636 -270.755 298.424 -276.333C324.761 -288.738 344.06 -276.364 366.577 -263.495Z" stroke="url(#paint26_linear_200_1391)" stroke-linecap="round" stroke-linejoin="round"/>
<path opacity="0.38" d="M372.805 -259.92C410.172 -239.596 444.785 -234.412 482.638 -228.23C515.033 -222.93 567.154 -220.339 591.36 -196.739C613.641 -175.02 618.676 -145.208 616.197 -114.699C615.239 -102.83 600.922 -76.9624 600.78 -64.5902C600.558 -45.1742 610.146 -27.233 613.208 -8.04409C616.54 13.5819 611.241 35.6487 598.454 53.3878C592.164 61.9345 584.075 69.188 579.709 79.0898C571.643 97.6225 593.13 121.829 592.394 140.78C592.421 145.586 591.472 150.347 589.603 154.773C586.924 160.436 581.962 164.705 577.048 168.532C562.374 179.804 529.848 184.818 512.526 190.119C485.582 198.366 455.599 197.482 430.44 211.852C412.725 221.966 397.123 239.257 376.92 238.71C359.281 238.239 347.387 224.938 332.23 217.202C318.518 209.426 296.594 216.164 281.321 217.252C261.184 218.684 241.016 219.809 220.855 220.324C190.147 221.036 158.434 220.355 131.33 205.786C108.772 193.434 91.9839 172.679 84.606 148.022C77.1909 122.277 82.9816 87.8795 99.8004 74.6393C108.134 68.0628 117.752 65.9252 126.329 58.3336C137.131 48.7381 143.291 29.6366 141.156 11.4928C138.598 -10.802 126.191 -27.2824 115.005 -44.2882C99.8849 -67.0837 87.8804 -92.5543 81.4085 -119.809C77.8063 -134.037 76.6332 -148.771 77.939 -163.388C79.5262 -178.244 84.9448 -193.407 95.0309 -204.731C118.677 -231.392 159.942 -223.896 188.731 -223.857C205.922 -223.834 224.73 -219.979 243.208 -221.529C250.951 -222.18 259.121 -224.692 264.835 -229.597C271.62 -235.424 274.101 -243.003 278.221 -249.702C284.013 -259.093 293.744 -267.228 305.465 -272.241C331.092 -283.159 350.551 -272.021 372.805 -259.92Z" stroke="url(#paint27_linear_200_1391)" stroke-linecap="round" stroke-linejoin="round"/>
<path opacity="0.46" d="M379.034 -256.344C415.234 -237.713 448.643 -231.743 484.431 -224.211C515.783 -217.613 563.674 -212.532 586.895 -188.912C607.796 -167.664 613.123 -139.152 611.954 -109.983C611.469 -98.0293 599.443 -73.8214 599.462 -61.3631C599.518 -42.6684 607.923 -25.2437 610.504 -6.69583C613.294 14.1495 608.372 35.2935 596.665 52.75C590.922 61.1594 583.556 68.3653 579.416 77.9013C571.642 96.0293 589.488 118.988 587.855 137.201C587.627 141.79 586.557 146.298 584.696 150.498C582.045 155.899 577.368 160.059 572.75 163.838C558.598 175.392 528.788 181.292 512.012 187.151C486.558 196.041 458.147 196.502 433.862 210.098C416.761 219.722 401.456 235.374 382.062 235.356C365.131 235.317 353.212 223.915 338.4 217.28C324.926 210.578 304.25 216.47 289.384 217.313C270.044 218.418 250.672 219.117 231.301 219.12C201.738 219.002 171.496 217.28 145.498 203.193C123.914 191.243 107.47 171.765 99.2965 148.468C90.9611 124.04 94.3694 91.8603 107.823 77.9297C114.474 71.058 122.36 68.0147 129.388 60.1635C138.239 50.2715 143.167 32.005 140.964 14.5395C138.347 -6.79038 127.304 -23.061 117.495 -39.8535C104.266 -62.3404 93.9479 -87.1593 89.0355 -113.555C86.2855 -127.614 85.8234 -142.024 87.6671 -156.229C89.7443 -170.74 95.3118 -185.451 105.027 -196.661C127.932 -223.208 166.796 -219.37 195.215 -221.294C212.004 -222.473 230.347 -219.908 248.442 -221.988C255.988 -222.805 263.951 -225.288 269.775 -229.808C276.662 -235.167 279.783 -242.006 284.414 -248.012C290.859 -256.446 300.777 -263.635 312.498 -268.066C337.401 -277.601 357.03 -267.682 379.034 -256.344Z" stroke="url(#paint28_linear_200_1391)" stroke-linecap="round" stroke-linejoin="round"/>
<path opacity="0.54" d="M385.267 -252.782C420.227 -235.834 453.009 -230.758 486.225 -220.191C516.093 -210.751 560.327 -204.69 582.444 -181.082C601.928 -160.214 607.666 -133.085 607.72 -105.193C607.736 -93.1477 597.943 -70.6005 598.153 -58.0056C598.491 -40.0456 605.719 -23.1072 607.808 -5.21722C610.065 14.8523 605.517 35.0957 594.894 52.2593C589.697 60.4882 583.026 67.696 579.128 76.8564C571.558 94.5416 585.857 116.264 583.297 133.802C582.834 138.17 581.647 142.43 579.784 146.406C577.144 151.554 572.768 155.597 568.434 159.324C554.821 171.036 527.692 177.855 511.488 184.281C487.518 193.782 460.674 195.602 437.264 208.423C420.865 217.441 405.736 231.533 387.152 231.988C370.942 232.385 358.982 222.89 344.535 217.334C331.292 211.732 311.855 216.763 297.395 217.359C278.871 218.073 260.259 218.421 241.699 217.888C213.274 216.967 184.442 214.273 159.602 200.582C138.992 189.023 122.91 170.802 113.992 148.902C104.736 125.79 105.756 95.798 115.842 81.2336C120.819 74.0402 126.953 70.1143 132.431 62.0034C139.335 51.8017 143.057 34.3773 140.787 17.5901C138.107 -2.76159 128.409 -18.8561 119.996 -35.4016C108.622 -57.5472 100.043 -81.7569 96.7528 -107.262C94.8519 -121.167 95.0871 -135.28 97.4502 -149.111C100.024 -163.248 105.709 -177.444 115.11 -188.596C137.231 -214.97 173.734 -214.837 201.787 -218.735C218.132 -221.015 235.993 -219.887 253.736 -222.459C261.124 -223.532 268.862 -225.918 274.78 -230.044C281.765 -234.922 285.582 -241.019 290.688 -246.358C298.75 -254.483 308.656 -260.534 319.561 -263.996C343.784 -272.051 363.506 -263.33 385.267 -252.782Z" stroke="url(#paint29_linear_200_1391)" stroke-linecap="round" stroke-linejoin="round"/>
<path opacity="0.62" d="M391.495 -249.208C425.239 -233.922 456.368 -226.276 488.021 -216.186C517.28 -206.909 556.934 -196.889 577.979 -173.256C596.111 -152.907 602.258 -126.933 603.488 -100.417C604.045 -88.2694 596.456 -67.3767 596.885 -54.7514C597.465 -37.5366 603.507 -21.1014 605.137 -3.83213C606.86 15.458 602.674 34.8133 593.137 51.6582C588.478 59.7331 582.54 66.9101 578.864 75.718C571.647 92.9862 582.281 113.44 578.781 130.299C578.073 134.441 576.769 138.458 574.91 142.225C572.287 147.093 568.192 151.041 564.142 154.716C551.029 166.577 526.616 174.282 510.992 181.303C488.416 191.378 463.226 194.609 440.683 206.682C424.824 215.219 410.097 227.699 392.348 228.648C376.849 229.463 364.861 221.88 350.743 217.479C337.749 212.967 319.59 217.147 305.493 217.5C287.752 217.94 269.914 217.786 252.188 216.737C224.9 215.012 197.568 211.328 173.809 198.055C154.09 186.884 138.3 169.883 128.602 149.383C118.493 127.549 117.19 99.7625 123.865 84.5236C127.16 77.035 131.535 72.1963 135.49 63.8329C140.455 53.3383 142.933 36.7453 140.608 20.64C137.869 1.25324 129.525 -14.6483 122.482 -30.954C112.992 -52.7644 106.22 -76.3471 104.433 -100.994C103.393 -114.721 104.33 -128.526 107.215 -141.985C110.279 -155.777 116.082 -169.458 125.13 -180.563C146.499 -206.783 180.611 -210.292 208.308 -216.205C224.225 -219.594 241.608 -219.86 258.994 -222.955C266.3 -224.103 273.332 -226.585 279.74 -230.279C286.857 -234.694 291.331 -240.061 296.905 -244.706C305.614 -251.756 315.698 -256.908 326.512 -259.83C350.063 -266.543 369.984 -258.992 391.495 -249.208Z" stroke="url(#paint30_linear_200_1391)" stroke-linecap="round" stroke-linejoin="round"/>
<path opacity="0.69" d="M397.724 -245.633C430.231 -231.987 460.191 -223.475 489.828 -212.163C517.985 -201.42 553.571 -189.094 573.531 -165.439C590.287 -145.573 596.942 -120.913 599.254 -95.6277C600.372 -83.4003 594.956 -64.156 595.59 -51.4471C596.414 -34.9344 601.344 -19.0111 602.456 -2.40676C603.645 16.1043 599.815 34.5909 591.371 51.0974C587.263 59.0219 582.037 66.1911 578.576 74.6729C571.652 91.5365 578.686 110.74 574.236 126.903C573.283 130.805 571.86 134.576 569.997 138.133C567.213 142.634 563.79 146.705 559.835 150.218C547.298 162.262 525.502 170.854 510.451 178.442C489.409 189.099 465.746 193.735 444.078 205.034C428.857 212.989 414.399 223.935 397.456 225.371C382.699 226.598 370.666 220.937 356.94 217.565C344.181 214.139 327.24 217.481 313.567 217.577C296.573 217.721 279.582 217.008 262.659 215.44C236.517 212.885 210.632 208.196 187.997 195.395C169.227 184.576 153.795 168.791 143.394 149.772C132.268 129.299 128.593 103.69 131.918 87.8081C133.547 80.0146 136.165 74.2632 138.58 65.657C141.594 54.8658 142.84 39.1078 140.461 23.6844C137.665 5.24926 130.659 -10.4496 125.02 -26.5349C117.397 -48.0004 112.372 -71.0005 112.134 -94.7483C111.972 -108.288 113.614 -121.788 117.018 -134.891C120.451 -148.549 126.641 -161.358 135.207 -172.528C155.816 -198.612 187.555 -205.728 214.864 -213.693C230.37 -218.202 247.277 -219.876 264.338 -223.455C271.456 -224.844 278.343 -227.231 284.795 -230.544C292.027 -234.488 297.168 -239.107 303.213 -243.071C312.512 -249.048 322.792 -253.333 333.58 -255.731C356.426 -261.027 376.442 -254.573 397.724 -245.633Z" stroke="url(#paint31_linear_200_1391)" stroke-linecap="round" stroke-linejoin="round"/>
<path opacity="0.77" d="M403.957 -242.071C435.23 -230.022 464 -220.62 491.622 -208.144C518.689 -195.93 550.225 -181.308 569.067 -157.613C584.477 -138.236 591.711 -114.842 595.02 -90.8382C596.742 -78.5338 593.442 -60.9388 594.295 -48.1429C595.357 -32.3622 599.155 -16.9845 599.775 -0.981464C600.432 16.7557 596.948 34.4002 589.601 50.5498C586.035 58.3069 581.568 65.4525 578.316 73.5215C571.728 89.9778 575.151 107.927 569.707 123.397C568.529 127.054 566.99 130.584 565.114 133.935C562.404 138.188 559.193 142.099 555.551 145.584C543.577 157.808 524.426 167.181 509.962 175.438C490.356 186.623 468.312 192.689 447.525 203.244C432.895 210.689 418.753 220.028 402.621 221.938C388.572 223.597 376.514 219.833 363.106 217.556C350.581 215.217 334.889 217.714 321.622 217.564C305.399 217.412 289.198 216.305 273.103 214.248C248.099 210.89 223.677 205.244 202.15 192.811C184.252 182.351 169.121 167.744 158.029 150.217C145.953 131.067 139.976 107.641 139.898 91.101C140.036 83.2045 140.598 75.3214 141.584 67.4859C142.851 53.9013 142.4 40.2101 140.24 26.7373C137.382 9.28041 131.733 -6.23879 127.465 -22.0842C121.368 -43.6575 118.77 -66.0691 119.768 -88.4638C120.478 -101.818 122.825 -115.034 126.756 -127.814C130.726 -141.021 136.985 -153.425 145.247 -164.46C165.109 -190.404 194.486 -201.111 221.402 -211.115C236.491 -216.717 252.901 -219.718 269.56 -223.918C276.483 -225.529 283.23 -227.817 289.706 -230.749C297.067 -234.218 302.877 -238.102 309.397 -241.399C319.226 -246.256 329.704 -249.668 340.508 -251.527C362.747 -255.565 382.891 -250.171 403.957 -242.071Z" stroke="url(#paint32_linear_200_1391)" stroke-linecap="round" stroke-linejoin="round"/>
<path opacity="0.85" d="M410.186 -238.496C440.207 -228.034 467.771 -217.734 493.418 -204.138C519.349 -190.381 546.899 -173.546 564.614 -149.783C578.682 -130.909 586.45 -108.821 590.797 -86.0457C593.171 -73.6802 591.911 -57.7126 592.999 -44.8394C594.283 -29.781 596.953 -14.8622 597.092 0.443152C597.195 17.405 594.032 34.2264 587.776 49.9872C584.762 57.5939 580.994 64.7281 577.975 72.4047C571.693 88.4599 571.556 105.17 565.126 119.92C563.718 123.324 562.059 126.618 560.161 129.775C557.525 133.791 554.522 137.554 551.191 141.014C539.799 153.451 523.237 163.605 509.399 172.443C491.205 184.134 470.803 191.707 450.894 201.474C436.903 208.337 423.036 216.115 407.724 218.516C394.38 220.62 382.286 218.794 369.254 217.556C356.964 216.304 342.503 217.966 329.647 217.557C314.182 217.094 298.768 215.559 283.514 212.962C259.651 208.787 236.714 202.104 216.294 190.153C199.243 180.046 184.413 166.586 172.698 150.586C160.604 133.767 152.155 114.604 147.895 94.3271C146.266 86.0609 145.183 77.6967 144.65 69.2886C143.797 56.039 142.269 42.8414 140.072 29.7472C137.168 13.2588 132.84 -2.048 130.032 -17.672C125.902 -38.9165 125.048 -60.6676 127.498 -82.1683C129.095 -95.2814 132.134 -108.177 136.56 -120.621C141.023 -133.404 147.338 -145.46 155.303 -156.403C174.391 -182.213 201.441 -196.488 227.933 -208.568C242.634 -215.269 258.543 -219.741 274.777 -224.424C281.51 -226.275 288.143 -228.476 294.647 -231.017C302.11 -234.018 308.618 -237.218 315.591 -239.767C325.91 -243.576 336.639 -246.163 347.56 -247.476C369.061 -250.134 389.348 -245.753 410.186 -238.496Z" stroke="url(#paint33_linear_200_1391)" stroke-linecap="round" stroke-linejoin="round"/>
<path opacity="0.92" d="M416.412 -234.921C445.188 -226.016 471.5 -214.801 495.157 -200.133C519.903 -184.818 543.538 -165.82 560.108 -141.967C572.863 -123.602 581.225 -102.833 586.481 -81.2776C589.526 -68.874 590.286 -54.5107 591.624 -41.5133C593.1 -27.1711 594.658 -12.7643 594.312 1.85662C593.898 18.023 591.094 34.0377 585.991 49.3791C583.502 56.8283 580.499 63.9689 577.669 71.3123C571.683 86.9495 568.006 102.453 560.563 116.476C558.911 119.573 557.199 122.681 555.267 125.66C552.704 129.43 549.913 133.039 546.909 136.466C536.129 149.111 522.141 159.998 508.922 169.599C492.117 181.777 473.414 190.858 454.34 199.84C440.965 206.201 427.388 212.365 412.9 215.242C400.288 217.742 388.156 217.811 375.461 217.701C363.416 217.552 350.199 218.383 337.744 217.697C323.029 216.912 308.4 214.948 293.998 211.824C271.273 206.846 249.783 199.158 230.489 187.666C214.253 177.911 199.703 165.584 187.408 151.165C174.035 135.232 163.399 117.186 155.933 97.7641C152.583 89.1178 149.829 80.2515 147.693 71.228C144.925 59.5386 142.446 46.2919 139.877 32.9071C136.927 17.3872 133.947 2.24321 132.469 -13.1516C130.324 -34.0787 131.214 -55.2051 135.113 -75.8742C137.595 -88.7494 141.332 -101.35 146.268 -113.495C151.226 -125.818 157.61 -137.516 165.288 -148.35C183.611 -174.01 208.332 -191.839 234.406 -206.021C249.006 -213.688 264.279 -219.995 280.032 -224.863C286.529 -226.957 293.168 -229.056 299.592 -231.198C307.187 -233.736 314.347 -236.136 321.785 -238.034C332.52 -240.791 343.49 -242.539 354.551 -243.255C375.467 -244.733 395.849 -241.294 416.412 -234.921Z" stroke="url(#paint34_linear_200_1391)" stroke-linecap="round" stroke-linejoin="round"/>
<path d="M477.812 187.86C587.07 124.684 624.479 -15.2809 561.367 -124.76C498.255 -234.24 358.521 -271.776 249.263 -208.6C140.005 -145.424 102.596 -5.45936 165.708 104.02C228.82 213.5 368.554 251.036 477.812 187.86Z" stroke="url(#paint35_linear_200_1391)" stroke-linecap="round" stroke-linejoin="round"/>
</g>
<defs>
<linearGradient id="paint0_linear_200_1391" x1="117.731" y1="-71.3779" x2="553.599" y2="6.07606" gradientUnits="userSpaceOnUse">
<stop stop-color="#00F0FF"/>
<stop offset="1" stop-color="#0057E8"/>
</linearGradient>
<linearGradient id="paint1_linear_200_1391" x1="230.573" y1="-229.378" x2="486.007" y2="143.791" gradientUnits="userSpaceOnUse">
<stop stop-color="#00F0FF"/>
<stop offset="1" stop-color="#0057E8"/>
</linearGradient>
<linearGradient id="paint2_linear_200_1391" x1="228.69" y1="-231.226" x2="486.167" y2="151.625" gradientUnits="userSpaceOnUse">
<stop stop-color="#00F0FF"/>
<stop offset="1" stop-color="#0057E8"/>
</linearGradient>
<linearGradient id="paint3_linear_200_1391" x1="226.778" y1="-233.114" x2="486.583" y2="159.558" gradientUnits="userSpaceOnUse">
<stop stop-color="#00F0FF"/>
<stop offset="1" stop-color="#0057E8"/>
</linearGradient>
<linearGradient id="paint4_linear_200_1391" x1="224.77" y1="-235.044" x2="487.323" y2="167.589" gradientUnits="userSpaceOnUse">
<stop stop-color="#00F0FF"/>
<stop offset="1" stop-color="#0057E8"/>
</linearGradient>
<linearGradient id="paint5_linear_200_1391" x1="222.848" y1="-237.029" x2="488.055" y2="175.459" gradientUnits="userSpaceOnUse">
<stop stop-color="#00F0FF"/>
<stop offset="1" stop-color="#0057E8"/>
</linearGradient>
<linearGradient id="paint6_linear_200_1391" x1="221.001" y1="-238.972" x2="489.27" y2="183.364" gradientUnits="userSpaceOnUse">
<stop stop-color="#00F0FF"/>
<stop offset="1" stop-color="#0057E8"/>
</linearGradient>
<linearGradient id="paint7_linear_200_1391" x1="218.981" y1="-241.004" x2="490.271" y2="191.294" gradientUnits="userSpaceOnUse">
<stop stop-color="#00F0FF"/>
<stop offset="1" stop-color="#0057E8"/>
</linearGradient>
<linearGradient id="paint8_linear_200_1391" x1="217.125" y1="-242.996" x2="491.576" y2="199.163" gradientUnits="userSpaceOnUse">
<stop stop-color="#00F0FF"/>
<stop offset="1" stop-color="#0057E8"/>
</linearGradient>
<linearGradient id="paint9_linear_200_1391" x1="215.204" y1="-245.037" x2="492.835" y2="207.003" gradientUnits="userSpaceOnUse">
<stop stop-color="#00F0FF"/>
<stop offset="1" stop-color="#0057E8"/>
</linearGradient>
<linearGradient id="paint10_linear_200_1391" x1="213.32" y1="-247.075" x2="494.191" y2="214.8" gradientUnits="userSpaceOnUse">
<stop stop-color="#00F0FF"/>
<stop offset="1" stop-color="#0057E8"/>
</linearGradient>
<linearGradient id="paint11_linear_200_1391" x1="211.445" y1="-249.127" x2="495.568" y2="222.614" gradientUnits="userSpaceOnUse">
<stop stop-color="#00F0FF"/>
<stop offset="1" stop-color="#0057E8"/>
</linearGradient>
<linearGradient id="paint12_linear_200_1391" x1="209.545" y1="-251.199" x2="496.975" y2="230.321" gradientUnits="userSpaceOnUse">
<stop stop-color="#00F0FF"/>
<stop offset="1" stop-color="#0057E8"/>
</linearGradient>
<linearGradient id="paint13_linear_200_1391" x1="207.671" y1="-253.269" x2="498.436" y2="238.044" gradientUnits="userSpaceOnUse">
<stop stop-color="#00F0FF"/>
<stop offset="1" stop-color="#0057E8"/>
</linearGradient>
<linearGradient id="paint14_linear_200_1391" x1="205.74" y1="-255.363" x2="499.853" y2="245.773" gradientUnits="userSpaceOnUse">
<stop stop-color="#00F0FF"/>
<stop offset="1" stop-color="#0057E8"/>
</linearGradient>
<linearGradient id="paint15_linear_200_1391" x1="203.902" y1="-257.492" x2="501.389" y2="253.407" gradientUnits="userSpaceOnUse">
<stop stop-color="#00F0FF"/>
<stop offset="1" stop-color="#0057E8"/>
</linearGradient>
<linearGradient id="paint16_linear_200_1391" x1="117.731" y1="-71.3784" x2="553.599" y2="6.07549" gradientUnits="userSpaceOnUse">
<stop stop-color="#00F0FF"/>
<stop offset="1" stop-color="#0057E8"/>
</linearGradient>
<linearGradient id="paint17_linear_200_1391" x1="239.613" y1="-236.425" x2="498.548" y2="125.069" gradientUnits="userSpaceOnUse">
<stop stop-color="#00F0FF"/>
<stop offset="1" stop-color="#0057E8"/>
</linearGradient>
<linearGradient id="paint18_linear_200_1391" x1="246.351" y1="-245.346" x2="510.492" y2="114.349" gradientUnits="userSpaceOnUse">
<stop stop-color="#00F0FF"/>
<stop offset="1" stop-color="#0057E8"/>
</linearGradient>
<linearGradient id="paint19_linear_200_1391" x1="252.993" y1="-254.224" x2="522.225" y2="103.592" gradientUnits="userSpaceOnUse">
<stop stop-color="#00F0FF"/>
<stop offset="1" stop-color="#0057E8"/>
</linearGradient>
<linearGradient id="paint20_linear_200_1391" x1="254.237" y1="-264.343" x2="529.467" y2="96.3806" gradientUnits="userSpaceOnUse">
<stop stop-color="#00F0FF"/>
<stop offset="1" stop-color="#0057E8"/>
</linearGradient>
<linearGradient id="paint21_linear_200_1391" x1="248.682" y1="-275.748" x2="532.352" y2="93.8819" gradientUnits="userSpaceOnUse">
<stop stop-color="#00F0FF"/>
<stop offset="1" stop-color="#0057E8"/>
</linearGradient>
<linearGradient id="paint22_linear_200_1391" x1="242.586" y1="-287.232" x2="534.994" y2="91.8103" gradientUnits="userSpaceOnUse">
<stop stop-color="#00F0FF"/>
<stop offset="1" stop-color="#0057E8"/>
</linearGradient>
<linearGradient id="paint23_linear_200_1391" x1="130.396" y1="-292.788" x2="441.373" y2="214.869" gradientUnits="userSpaceOnUse">
<stop stop-color="#00F0FF"/>
<stop offset="1" stop-color="#0057E8"/>
</linearGradient>
<linearGradient id="paint24_linear_200_1391" x1="138.391" y1="-284.065" x2="442.003" y2="210.117" gradientUnits="userSpaceOnUse">
<stop stop-color="#00F0FF"/>
<stop offset="1" stop-color="#0057E8"/>
</linearGradient>
<linearGradient id="paint25_linear_200_1391" x1="146.418" y1="-275.405" x2="442.7" y2="205.269" gradientUnits="userSpaceOnUse">
<stop stop-color="#00F0FF"/>
<stop offset="1" stop-color="#0057E8"/>
</linearGradient>
<linearGradient id="paint26_linear_200_1391" x1="154.471" y1="-266.95" x2="443.642" y2="200.274" gradientUnits="userSpaceOnUse">
<stop stop-color="#00F0FF"/>
<stop offset="1" stop-color="#0057E8"/>
</linearGradient>
<linearGradient id="paint27_linear_200_1391" x1="162.922" y1="-259.935" x2="446.124" y2="194.102" gradientUnits="userSpaceOnUse">
<stop stop-color="#00F0FF"/>
<stop offset="1" stop-color="#0057E8"/>
</linearGradient>
<linearGradient id="paint28_linear_200_1391" x1="171.999" y1="-255.617" x2="451.369" y2="185.659" gradientUnits="userSpaceOnUse">
<stop stop-color="#00F0FF"/>
<stop offset="1" stop-color="#0057E8"/>
</linearGradient>
<linearGradient id="paint29_linear_200_1391" x1="181.079" y1="-251.327" x2="456.644" y2="177.2" gradientUnits="userSpaceOnUse">
<stop stop-color="#00F0FF"/>
<stop offset="1" stop-color="#0057E8"/>
</linearGradient>
<linearGradient id="paint30_linear_200_1391" x1="190.073" y1="-247.077" x2="461.849" y2="168.763" gradientUnits="userSpaceOnUse">
<stop stop-color="#00F0FF"/>
<stop offset="1" stop-color="#0057E8"/>
</linearGradient>
<linearGradient id="paint31_linear_200_1391" x1="198.988" y1="-242.881" x2="466.881" y2="160.351" gradientUnits="userSpaceOnUse">
<stop stop-color="#00F0FF"/>
<stop offset="1" stop-color="#0057E8"/>
</linearGradient>
<linearGradient id="paint32_linear_200_1391" x1="207.897" y1="-238.734" x2="471.895" y2="153.529" gradientUnits="userSpaceOnUse">
<stop stop-color="#00F0FF"/>
<stop offset="1" stop-color="#0057E8"/>
</linearGradient>
<linearGradient id="paint33_linear_200_1391" x1="216.668" y1="-234.726" x2="476.84" y2="147.284" gradientUnits="userSpaceOnUse">
<stop stop-color="#00F0FF"/>
<stop offset="1" stop-color="#0057E8"/>
</linearGradient>
<linearGradient id="paint34_linear_200_1391" x1="224.932" y1="-230.959" x2="481.684" y2="141.327" gradientUnits="userSpaceOnUse">
<stop stop-color="#00F0FF"/>
<stop offset="1" stop-color="#0057E8"/>
</linearGradient>
<linearGradient id="paint35_linear_200_1391" x1="117.727" y1="-71.3784" x2="553.594" y2="6.07554" gradientUnits="userSpaceOnUse">
<stop stop-color="#00F0FF"/>
<stop offset="1" stop-color="#0057E8"/>
</linearGradient>
<clipPath id="clip0_200_1391">
<rect width="754" height="327" fill="white"/>
</clipPath>
</defs>
</svg>
