<svg width="705" height="297" viewBox="0 0 705 297" fill="none" xmlns="http://www.w3.org/2000/svg">
<g clip-path="url(#clip0_200_1345)">
<path d="M451.816 508.861C561.074 445.685 598.483 305.72 535.371 196.241C472.259 86.7612 332.525 49.2248 223.267 112.401C114.009 175.577 76.6 315.542 139.712 425.021C202.824 534.5 342.558 572.037 451.816 508.861Z" stroke="url(#paint0_linear_200_1345)" stroke-linecap="round" stroke-linejoin="round"/>
<path opacity="0.94" d="M395.531 87.651C429.145 95.7228 459.875 111.18 483.891 133.209C491.913 140.68 499.529 148.576 506.706 156.862C519.474 171.062 531.08 186.267 541.411 202.331C555.406 224.418 565.403 248.801 570.943 274.36C577.805 306.155 577.091 341.006 566.521 373.68C553.186 414.781 527.833 445.861 498.106 474.231C472.784 498.395 445.204 521.342 412.073 532.493C386.309 541.213 358.266 541.888 330.424 540.426C311.539 539.498 292.765 536.973 274.303 532.88C259.862 529.704 245.757 525.156 232.179 519.297C204.291 507.027 179.471 488.71 159.51 465.669C139.594 442.629 124.759 415.64 115.976 386.469C107.48 358.287 104.547 328.314 106.118 297.744C106.689 281.955 108.977 266.277 112.943 250.986C120.666 222.637 135.071 198.086 151.01 175.34C164.313 156.394 178.583 139.199 196.437 125.113C207.692 116.342 219.952 108.948 232.959 103.088C245.916 97.2637 259.369 92.6158 273.156 89.2007C312.094 79.4387 353.93 77.6342 395.531 87.651Z" stroke="url(#paint1_linear_200_1345)" stroke-linecap="round" stroke-linejoin="round"/>
<path opacity="0.88" d="M394.42 85.6473C429.132 93.0616 461.621 108.636 485.222 132.642C493.032 140.61 500.306 149.145 507.659 157.815C520.52 172.967 533.514 187.942 544.657 203.572C560.338 225.17 571.9 249.48 578.763 275.279C587.306 307.639 587.11 344.534 574.682 377.306C558.959 418.577 529.614 445.357 498.319 474.443C472.106 498.966 446.377 526.674 412.343 537.909C385.996 546.63 356.726 543.662 328.547 541.499C309.037 540.047 289.613 537.603 270.349 534.177C255.706 531.666 241.33 527.783 227.411 522.579C198.638 511.293 173.077 493.094 152.982 469.587C132.957 446.042 118.513 418.268 110.733 388.345C103.188 359.579 101.711 329.257 102.981 298.224C103.616 282.415 104.922 266.432 109.302 250.69C117.253 222.076 133.609 198.461 149.391 175.133C162.485 155.746 174.931 137.565 192.589 122.886C203.818 113.787 216.323 106.391 229.702 100.935C242.941 95.5252 256.628 91.2891 270.607 88.275C310.059 79.3479 352.297 76.6276 394.42 85.6473Z" stroke="url(#paint2_linear_200_1345)" stroke-linecap="round" stroke-linejoin="round"/>
<path opacity="0.81" d="M393.293 83.6397C429.127 90.4169 463.354 106.074 486.539 132.059C494.19 140.623 501.156 149.729 508.594 158.82C521.593 174.678 535.64 189.594 547.947 204.854C565.282 225.997 578.406 250.272 586.607 276.362C596.815 309.297 597.141 348.222 582.858 381.079C564.676 422.514 531.335 444.966 498.559 474.806C471.355 499.588 447.518 532.112 412.538 543.434C385.619 552.172 355.172 545.533 326.557 542.613C306.777 540.587 286.268 538.365 266.262 535.538C251.434 533.624 236.814 530.346 222.585 525.746C192.94 515.459 166.613 497.355 146.38 473.344C126.26 449.305 112.22 420.769 105.448 390.152C98.8708 360.793 98.7912 330.08 99.8054 298.622C100.311 282.552 101.047 266.259 105.62 250.328C113.782 221.457 132.108 198.755 147.61 174.883C160.509 155.06 171.104 135.884 188.592 120.62C199.528 111.059 212.719 103.896 226.19 98.7131C239.72 93.7258 253.65 89.9037 267.83 87.2885C308.006 79.2666 350.651 75.6039 393.293 83.6397Z" stroke="url(#paint3_linear_200_1345)" stroke-linecap="round" stroke-linejoin="round"/>
<path opacity="0.75" d="M392.181 81.636C429.142 87.7062 465.103 103.516 487.869 131.492C495.37 140.614 502.017 150.331 509.532 159.826C522.679 176.406 537.798 191.24 551.245 206.166C569.978 226.975 584.695 250.004 594.434 277.468C606.325 310.954 607.172 351.967 591.015 384.876C570.499 426.493 533.102 444.672 498.795 475.196C470.616 500.327 448.668 537.58 412.735 548.959C385.227 557.723 353.514 547.376 324.558 543.767C304.141 541.2 282.856 539.068 262.173 536.97C246.747 535.388 232.08 533.255 217.706 529.07C187.654 520.319 160.017 501.527 139.738 477.261C119.511 452.71 105.877 423.4 100.125 392.106C94.5133 362.168 95.8132 331.128 96.576 299.176C96.9569 282.831 97.1056 266.238 101.769 250.075C110.154 220.952 130.452 199.163 145.754 174.655C158.444 154.392 167.203 134.225 184.511 118.358C195.335 108.47 208.938 101.361 222.657 96.5281C236.375 91.6956 250.522 88.8691 265.014 86.3483C305.954 79.1855 349.028 74.5574 392.181 81.636Z" stroke="url(#paint4_linear_200_1345)" stroke-linecap="round" stroke-linejoin="round"/>
<path opacity="0.69" d="M391.068 79.6317C429.155 84.9949 466.871 100.935 489.205 130.898C496.46 140.622 502.871 150.901 510.482 160.778C523.767 178.063 539.948 192.855 554.546 207.408C574.933 227.822 591.176 250.507 602.308 278.388C615.917 312.463 617.204 355.442 599.232 388.446C576.327 430.232 534.95 444.073 499.095 475.289C469.98 500.681 449.815 542.735 412.989 554.215C384.895 562.992 351.92 548.922 322.633 544.585C301.584 541.465 279.522 539.423 258.172 538.013C242.528 536.983 227.634 535.643 212.915 532.004C182.281 524.42 153.664 505.578 133.194 480.749C112.479 455.669 99.7068 424.945 94.8849 393.698C90.2637 363.187 92.9804 331.788 93.4547 299.375C93.7104 282.755 93.2886 265.852 98.1023 249.446C106.698 220.066 128.963 199.204 144.043 174.096C156.537 153.397 163.472 132.243 180.584 115.783C191.298 105.51 205.245 98.4928 219.267 94.0119C233.289 89.5311 247.657 87.2613 262.346 85.0636C303.905 79.0906 347.371 73.4733 391.068 79.6317Z" stroke="url(#paint5_linear_200_1345)" stroke-linecap="round" stroke-linejoin="round"/>
<path opacity="0.63" d="M389.955 77.6275C429.172 82.2705 468.638 98.3532 490.537 130.318C497.596 140.615 503.717 151.499 511.425 161.813C524.844 179.816 542.116 194.461 557.826 208.729C579.853 228.745 597.618 251.099 610.167 279.474C625.39 314.097 627.212 359.11 607.408 392.275C582.101 434.227 536.733 443.77 499.321 475.762C469.264 501.441 450.996 548.297 413.174 559.836C384.494 568.627 350.366 550.85 320.632 545.796C298.619 542.187 276.388 540.07 254.091 539.461C238.218 538.967 223.118 538.453 208.044 535.344C176.73 528.871 147.227 510.047 126.619 484.726C105.709 459.21 93.485 427.496 89.6373 395.686C85.9612 364.562 90.0548 332.794 90.3201 299.941C90.4506 283.045 89.4946 265.857 94.3977 249.276C103.207 219.627 127.44 199.691 142.306 173.999C154.601 152.877 159.69 130.716 176.632 113.67C187.215 103.035 201.544 96.0779 215.857 91.9452C230.169 87.8124 244.736 86.1223 259.653 84.2416C301.865 79.0126 345.787 72.437 389.955 77.6275Z" stroke="url(#paint6_linear_200_1345)" stroke-linecap="round" stroke-linejoin="round"/>
<path opacity="0.56" d="M388.844 75.6238C429.194 79.5333 470.411 95.7591 491.87 129.738C498.721 140.604 504.582 152.087 512.363 162.819C525.92 181.527 544.281 196.08 561.128 210.028C584.795 229.645 604.117 251.65 618.015 280.501C634.919 315.688 637.296 362.769 615.531 395.991C587.849 438.116 538.486 443.373 499.522 476.071C468.528 502.067 452.101 553.668 413.347 565.241C384.078 574.059 348.744 552.56 318.616 546.803C295.981 542.627 273.005 540.59 249.991 540.719C233.903 540.765 218.564 541.039 203.155 538.495C171.195 533.213 140.779 514.3 119.901 488.451C98.8431 462.37 87.0813 429.885 84.2388 397.449C81.5273 365.745 87.011 333.611 87.0276 300.308C87.0196 283.133 85.4667 265.629 90.5493 248.854C99.5827 218.952 125.77 199.939 140.479 173.665C152.565 152.103 155.817 128.951 172.576 111.317C183.046 100.31 197.749 93.4388 212.338 89.6505C226.928 85.8622 241.739 84.7492 256.871 83.1253C299.805 78.9146 344.175 71.2941 388.844 75.6238Z" stroke="url(#paint7_linear_200_1345)" stroke-linecap="round" stroke-linejoin="round"/>
<path opacity="0.5" d="M387.718 73.6162C429.214 76.7958 472.196 93.1682 493.199 129.172C499.87 140.601 505.379 152.657 513.302 163.811C527.007 183.241 546.458 197.703 564.415 211.323C589.739 230.532 610.597 252.153 625.871 281.544C644.442 317.292 647.341 366.404 623.774 399.725C593.687 442.029 540.357 443.008 499.817 476.392C467.886 502.705 453.307 559.08 413.6 570.767C383.745 579.598 347.195 554.362 316.683 547.919C293.424 543.16 269.682 541.201 245.961 542.082C229.665 542.64 214.102 543.75 198.348 541.753C165.767 537.626 134.397 518.67 113.335 492.289C92.046 465.691 80.8302 432.386 78.9894 399.338C77.2423 367.054 84.1162 334.554 83.8876 300.787C83.7509 283.35 81.6275 265.536 86.8499 248.557C96.108 218.346 124.249 200.313 138.695 173.428C150.572 151.426 152.011 127.248 168.576 109.063C178.933 97.6281 194.014 90.887 208.863 87.4529C223.713 84.0188 238.76 83.5094 254.143 82.223C297.751 78.8332 342.576 70.1546 387.718 73.6162Z" stroke="url(#paint8_linear_200_1345)" stroke-linecap="round" stroke-linejoin="round"/>
<path opacity="0.44" d="M386.605 71.6118C429.229 74.0279 473.997 90.5673 494.517 128.588C501.006 140.593 506.282 153.255 514.239 164.816C528.082 184.951 548.625 199.309 567.705 212.605C594.686 231.406 617.053 252.749 633.73 282.573C653.969 318.883 657.386 370.039 631.961 403.458C599.49 445.917 542.161 442.624 500.07 476.715C467.205 503.332 454.463 564.465 413.813 576.226C383.376 585.113 345.621 556.099 314.707 548.98C290.83 543.633 266.311 541.751 241.902 543.394C225.398 544.465 209.589 546.39 193.503 544.943C160.287 541.968 127.986 522.99 106.743 496.063C85.4999 469.136 74.5617 434.74 73.6977 401.172C72.9126 368.265 81.1659 335.439 80.6887 301.221C80.4303 283.496 77.7161 265.396 83.0818 248.199C92.5495 217.789 122.693 200.549 136.91 173.091C148.594 150.639 148.212 125.517 164.604 106.704C174.84 94.9799 190.3 88.2552 205.44 85.1692C220.579 82.0832 235.861 82.0775 251.41 81.1769C295.715 78.7417 340.956 69.0376 386.605 71.6118Z" stroke="url(#paint9_linear_200_1345)" stroke-linecap="round" stroke-linejoin="round"/>
<path opacity="0.38" d="M385.488 69.6206C429.246 71.2466 475.798 87.9663 495.849 128.007C502.145 140.572 507.16 153.789 515.175 165.821C529.163 186.635 550.778 200.967 571.005 213.903C599.63 232.292 623.533 253.309 641.576 283.599C663.492 320.487 667.418 373.67 640.149 407.191C605.272 449.829 543.979 442.245 500.325 477.025C466.521 503.972 455.616 569.863 414.024 581.698C383.011 590.559 344.037 557.82 312.731 550.041C288.237 544.103 262.926 542.3 237.843 544.706C221.118 546.286 205.089 549.033 188.641 548.143C154.791 546.32 121.565 527.293 100.114 499.869C78.6631 472.445 68.3177 437.214 68.4192 403.009C68.5914 369.549 78.2553 336.334 77.5125 301.676C77.129 283.675 73.8443 265.266 79.3463 247.878C88.9785 217.171 121.125 200.938 135.132 172.884C146.617 150.009 144.362 123.872 160.531 104.459C170.653 92.3633 186.491 85.7118 201.904 82.9835C217.318 80.2552 232.837 80.7965 248.597 80.2227C293.662 78.6598 339.35 67.8675 385.488 69.6206Z" stroke="url(#paint10_linear_200_1345)" stroke-linecap="round" stroke-linejoin="round"/>
<path opacity="0.31" d="M384.429 67.631C429.318 68.4801 477.67 85.3704 497.235 127.441C503.352 140.57 508.049 154.44 516.168 166.827C530.284 188.386 553.01 202.547 574.346 215.213C604.631 233.18 630.053 253.88 649.499 284.66C673.086 322.097 677.53 377.323 648.404 410.886C611.152 453.696 545.939 441.918 500.659 477.313C465.973 504.635 456.854 575.213 414.332 587.125C382.716 596.009 342.548 559.509 310.847 551.084C285.705 544.529 259.553 542.805 233.775 546.001C216.815 548.087 200.576 551.674 183.792 551.348C149.322 550.623 115.221 531.631 93.5063 503.653C71.7917 475.675 61.9967 439.554 63.128 404.844C64.2648 370.804 75.3188 337.223 74.3476 302.091C73.8088 283.822 70.0332 265.124 75.6087 247.515C85.5045 216.566 119.569 201.231 133.363 172.594C144.639 149.279 140.547 122.152 156.586 102.163C166.581 89.6927 182.797 83.1142 198.504 80.7207C214.211 78.3273 229.943 79.4517 245.907 79.2311C291.61 78.5785 337.721 66.7342 384.429 67.631Z" stroke="url(#paint11_linear_200_1345)" stroke-linecap="round" stroke-linejoin="round"/>
<path opacity="0.25" d="M383.263 65.6125C429.29 65.6583 479.432 82.759 498.514 126.847C504.436 140.548 508.86 155.014 517.052 167.818C531.308 190.125 555.148 204.102 577.581 216.493C609.567 233.994 636.471 254.409 657.279 285.669C682.533 323.723 687.51 380.941 656.515 414.641C616.858 457.63 547.677 441.574 500.831 477.672C465.212 505.297 457.94 580.65 414.421 592.678C382.22 601.575 340.843 561.311 308.79 552.237C283.066 545.065 256.123 543.402 229.719 547.357C212.563 549.859 196.057 554.284 178.948 554.538C143.807 554.941 108.665 535.911 86.8818 507.446C65.0988 478.981 55.6882 441.953 57.8369 406.678C59.9947 372.06 72.3894 338.085 71.1625 302.53C70.4455 283.97 66.0862 264.959 71.8677 247.164C81.974 215.959 118.006 201.551 131.643 172.331C142.723 148.58 136.795 120.462 152.637 99.8806C162.516 87.0517 179.109 80.5463 195.09 78.5106C211.071 76.4749 227.036 78.1596 243.235 78.2295C289.561 78.4836 336.099 65.5739 383.263 65.6125Z" stroke="url(#paint12_linear_200_1345)" stroke-linecap="round" stroke-linejoin="round"/>
<path opacity="0.19" d="M382.138 63.6049C429.302 62.8474 481.251 80.1488 499.847 126.267C505.572 140.598 509.711 155.598 517.993 168.81C532.407 191.8 557.313 205.722 580.885 217.779C614.498 234.877 642.951 254.969 665.136 286.712C692.086 325.221 697.543 384.572 664.703 418.374C622.657 461.532 549.482 441.191 501.074 477.978C464.505 505.917 459.084 586.031 414.663 598.088C381.873 607.012 339.304 562.973 306.803 553.238C280.474 545.456 252.706 543.879 225.671 548.629C208.263 551.703 191.58 556.948 174.126 557.75C138.354 559.291 102.334 540.253 80.3007 511.237C58.2673 482.222 49.4459 444.371 52.5388 408.539C55.6117 373.314 69.446 339.001 67.9871 302.985C67.2015 284.151 62.2019 264.826 68.1365 246.83C78.4665 215.373 116.457 201.874 129.827 172.057C140.699 147.866 132.933 118.758 148.596 97.5735C158.357 84.3862 175.342 77.9574 191.596 76.2794C207.851 74.6015 224.103 76.8607 240.449 77.2262C287.509 78.4021 334.487 64.3742 382.138 63.6049Z" stroke="url(#paint13_linear_200_1345)" stroke-linecap="round" stroke-linejoin="round"/>
<path opacity="0.13" d="M381.025 61.6008C429.305 60.0196 483.083 77.5419 501.176 125.7C506.742 140.514 510.562 156.182 518.93 169.815C533.482 193.51 559.481 207.327 584.173 219.074C619.469 235.771 649.418 255.525 672.996 287.742C701.595 326.879 707.589 388.207 672.877 422.104C628.443 465.431 551.287 440.808 501.34 478.305C463.82 506.614 460.251 591.433 414.887 603.563C381.511 612.501 337.751 564.687 304.841 554.303C277.894 545.89 249.271 544.389 221.599 549.938C203.977 553.495 187.08 559.592 169.278 560.954C132.871 563.647 95.9269 544.56 73.6396 515.007C51.3523 485.454 43.1238 446.768 47.1979 410.346C51.2353 374.541 66.4597 339.862 64.7424 303.379C63.8281 284.283 58.2509 264.675 64.3563 246.413C74.9136 214.689 114.871 202.117 128.015 171.713C138.691 147.086 129.089 116.987 144.582 95.2166C154.229 81.6577 171.575 75.3117 188.107 73.9782C204.638 72.6447 221.071 75.45 237.694 76.1599C285.46 78.3073 332.872 63.1875 381.025 61.6008Z" stroke="url(#paint14_linear_200_1345)" stroke-linecap="round" stroke-linejoin="round"/>
<path opacity="0.06" d="M379.912 59.5968C429.322 57.0822 484.975 74.923 502.495 125.116C507.909 140.501 511.425 156.77 519.87 170.807C534.57 195.224 561.644 208.946 587.46 220.369C624.387 236.651 655.889 256.069 680.838 288.781C711.109 328.466 717.634 391.843 681.104 425.848C634.282 469.344 553.131 440.436 501.63 478.596C463.191 507.156 461.498 596.8 415.148 609.007C381.2 617.96 336.248 566.317 302.916 555.335C275.357 546.252 245.855 544.821 217.555 551.197C199.691 555.23 182.591 562.196 164.407 564.081C127.362 567.939 89.4905 548.816 67.0553 518.754C44.62 488.693 36.8686 449.125 41.9338 412.131C46.9392 375.733 63.5634 340.705 61.5841 303.768C60.5737 284.448 54.4261 264.53 60.6377 246.083C71.4055 214.103 113.331 202.457 126.265 171.456C136.745 146.393 125.306 115.303 140.603 92.9405C150.133 79.0231 167.874 72.7405 184.679 71.7648C201.483 70.7891 218.127 74.1342 234.971 75.1877C283.407 78.2258 331.245 61.8843 379.912 59.5968Z" stroke="url(#paint15_linear_200_1345)" stroke-linecap="round" stroke-linejoin="round"/>
<path d="M451.816 508.861C561.074 445.685 598.482 305.72 535.37 196.24C472.258 86.7608 332.524 49.2244 223.266 112.4C114.008 175.576 76.5995 315.541 139.712 425.021C202.824 534.5 342.558 572.036 451.816 508.861Z" stroke="url(#paint16_linear_200_1345)" stroke-linecap="round" stroke-linejoin="round"/>
<path opacity="0.86" d="M401.93 79.3409C436.031 88.7802 464.45 112.246 488.087 135.481C507.383 154.451 522.382 177.172 535.938 200.558C543.094 212.885 549.823 225.425 554.202 239.054C561.694 262.39 561.692 286.984 562.473 311.944C563.097 331.488 564.304 350.393 559.846 370.193C556.413 384.745 550.837 398.705 543.302 411.613C535.881 424.421 527.239 436.479 517.498 447.619C489.326 480.472 454.396 507.645 414.545 523.474C374.303 539.496 327.845 544.453 283.715 529.449C275.473 526.654 267.634 523.042 259.585 519.844C245.329 514.154 231.127 509.432 217.941 504.043C199.233 496.56 181.784 486.242 166.207 473.451C146.076 456.858 129.21 434.005 121.458 409.676C111.539 378.58 114.755 349.775 115.952 315.508C116.878 290.807 116.532 264.485 124.956 240.262C135.521 209.889 152.468 185.181 173.117 163.302C190.941 144.43 210.923 127.726 232.652 113.535C249.835 102.382 268.589 91.4663 288.067 85.223C323.244 73.9111 363.613 68.7837 401.93 79.3409Z" stroke="url(#paint17_linear_200_1345)" stroke-linecap="round" stroke-linejoin="round"/>
<path opacity="0.71" d="M407.207 69.0104C440.38 78.4705 466.259 108.406 487.998 132.368C506.319 152.541 519.42 176.728 533.789 200.105C541.364 212.403 549.225 224.536 553.591 238.374C561.082 262.137 557.154 287.126 558.807 312.278C560.151 332.101 565.063 350.323 561.389 370.434C558.718 385.042 552.206 398.718 544.379 410.62C536.414 422.826 526.897 433.506 516.998 443.97C487.918 474.647 454.91 502.805 416.623 520.063C377.856 537.576 331.388 544.592 289.112 527.271C280.421 523.715 272.313 519.037 263.589 515.443C248.238 509.119 232.342 505.846 217.573 502.18C196.583 497.028 177.255 489.224 158.693 476.692C135.407 460.958 115.699 435.295 110.814 408.479C104.556 374.102 118.906 347.261 122.73 310.501C125.601 283.834 122.321 254.308 133.147 229.066C145.408 200.371 164.524 179.657 186.27 160.105C205.12 143.092 224.933 127.18 245.61 112.446C261.464 101.221 279.064 87.8769 297.089 80.9592C330.1 68.2978 370.513 58.6475 407.207 69.0104Z" stroke="url(#paint18_linear_200_1345)" stroke-linecap="round" stroke-linejoin="round"/>
<path opacity="0.57" d="M412.483 58.7365C444.713 68.2138 467.963 104.637 487.897 129.294C505.216 150.719 516.497 176.352 531.668 199.702C539.646 211.98 548.638 223.706 553 237.771C560.478 261.957 552.618 287.313 555.158 312.703C557.197 332.798 565.813 350.336 562.932 370.774C560.913 385.173 553.87 398.551 545.424 409.69C536.894 421.09 526.776 430.671 516.49 440.405C486.504 468.891 455.416 498.048 418.709 516.726C381.454 535.754 334.979 544.545 294.418 525.168C285.303 520.802 276.92 515.083 267.53 511.112C251.033 504.138 233.445 502.302 217.119 500.422C193.893 497.74 172.409 492.044 151.17 480.072C124.753 465.161 102.188 436.798 100.184 407.386C97.6139 369.734 123.128 344.852 129.538 305.587C134.359 276.942 127.967 244.234 141.307 217.932C155.035 190.868 176.549 174.196 199.374 156.98C218.677 142.416 238.891 126.575 258.524 111.417C273.107 100.163 289.494 84.3466 306.063 76.7678C336.961 62.6579 377.426 48.5146 412.483 58.7365Z" stroke="url(#paint19_linear_200_1345)" stroke-linecap="round" stroke-linejoin="round"/>
<path opacity="0.43" d="M417.754 48.4339C449.065 57.949 469.658 100.909 487.841 126.22C504.124 148.916 513.578 175.963 529.568 199.278C537.977 211.487 548.086 222.859 552.431 237.147C559.912 261.745 548.126 287.497 551.534 313.092C554.294 333.466 566.575 350.311 564.531 371.073C563.125 385.253 555.587 398.356 546.584 408.762C537.581 419.168 526.72 427.81 516.086 436.826C485.195 463.122 456.027 493.277 420.883 513.384C385.13 533.91 338.772 544.282 299.846 523.041C290.303 517.835 281.633 511.115 271.537 506.755C253.895 499.176 234.627 498.737 216.766 498.562C191.266 498.327 167.672 494.737 143.718 483.358C114.154 469.323 88.6739 438.215 89.5366 406.26C90.6545 365.333 127.314 342.477 136.34 300.658C143.03 270.013 133.428 234.069 149.468 206.8C164.492 181.263 188.597 168.713 212.497 153.848C233.152 140.777 252.853 126.256 271.453 110.392C284.772 99.1405 299.933 80.7913 315.052 72.5815C343.822 56.9762 384.345 38.3701 417.754 48.4339Z" stroke="url(#paint20_linear_200_1345)" stroke-linecap="round" stroke-linejoin="round"/>
<path opacity="0.29" d="M423.038 38.1375C453.397 47.7096 471.306 97.1998 487.705 123.126C502.906 147.11 510.609 175.55 527.385 198.848C536.199 211.08 547.455 221.992 551.796 236.507C559.303 261.539 543.544 287.646 547.844 313.466C551.311 334.115 567.228 350.273 566.033 371.362C565.228 385.362 557.224 398.141 547.614 407.787C538.005 417.433 526.555 424.88 515.563 433.217C483.753 457.375 456.526 488.449 422.938 510.012C388.634 532.079 342.548 543.874 305.141 520.881C295.21 514.788 286.227 507.117 275.492 502.386C256.756 494.115 235.753 495.173 216.353 496.717C188.652 498.976 162.884 497.46 136.215 486.675C103.537 473.453 75.1601 439.634 78.896 405.167C83.6707 361.027 131.519 340.037 143.121 295.754C151.734 263.122 138.724 223.833 157.637 195.7C173.821 171.612 200.628 163.242 225.601 150.74C247.028 139.78 266.812 125.863 284.375 109.397C296.456 98.154 310.359 77.235 324.037 68.4109C350.637 51.2562 391.259 28.2414 423.038 38.1375Z" stroke="url(#paint21_linear_200_1345)" stroke-linecap="round" stroke-linejoin="round"/>
<path opacity="0.14" d="M428.307 27.8371C457.748 37.3902 472.888 93.5156 487.611 120.03C501.668 145.37 507.672 175.173 525.255 198.375C534.495 210.608 546.875 221.083 551.199 235.82C558.676 261.285 539.025 287.769 544.19 313.806C548.364 334.731 567.902 350.198 567.584 371.622C567.389 385.359 558.896 397.893 548.703 406.8C538.51 415.707 526.418 421.999 515.092 429.564C482.387 451.492 457.059 483.645 425.059 506.601C392.294 530.133 346.488 543.269 310.495 518.707C300.204 511.679 290.87 503.089 279.472 497.967C259.599 489.064 236.906 491.558 215.959 494.848C186.014 499.604 158.116 500.104 128.732 489.912C92.9501 477.463 61.6627 440.986 68.255 404.016C76.6741 356.604 135.73 337.571 149.919 290.784C160.451 256.179 143.892 213.378 165.808 184.53C183.095 161.79 212.66 157.658 238.734 147.57C260.814 138.78 280.781 125.404 297.317 108.322C308.193 97.1248 320.804 73.5987 333.039 64.1737C357.435 45.489 398.173 18.1123 428.307 27.8371Z" stroke="url(#paint22_linear_200_1345)" stroke-linecap="round" stroke-linejoin="round"/>
<path opacity="0.08" d="M321.863 46.7817C363.892 74.0434 403.434 76.3003 449.408 76.7582C486.084 77.0942 554.766 69.2623 583.139 93.0001C611.108 116.388 615.353 151.759 607.074 187.123C604.353 198.731 580.699 231.105 579.89 243.156C578.389 265.498 592.857 285.418 597.893 307.212C600.583 319.403 600.314 332.061 597.11 344.125C593.906 356.188 587.86 367.306 579.478 376.545C570.983 385.637 560 393.038 554.764 404.44C545.519 424.618 581.65 453.808 584.481 475.508C585.214 481.106 585.316 486.991 583.153 492.21C580.373 498.941 574.292 503.677 568.218 507.648C551.497 518.555 508.148 519.54 488.581 522.774C455.699 528.162 419.419 522.204 390.769 539.646C370.579 551.952 353.815 575.556 330.338 573.177C309.782 571.027 298.052 550.052 281.523 537.995C266.866 525.843 239.983 536.04 223.084 538.057C199.747 540.89 176.403 543.626 153.052 546.266C117.793 550.134 80.2305 553.484 48.7103 537.161C35.6028 530.232 24.3376 520.268 15.8536 508.099C7.36956 495.93 1.91236 481.909 -0.0632885 467.204C-4.00098 436.208 11.4552 393.176 41.7843 382.411C56.8114 377.091 73.5027 378.558 88.1953 371.941C106.776 363.58 117.829 341.102 115.939 320.237C113.606 294.022 95.8248 276.824 79.0842 258.868C56.3521 234.603 37.9825 206.586 24.7878 176.056C18.4038 161.164 13.3247 145.428 12.9359 129.146C12.5471 112.864 17.4586 95.7734 28.9216 84.0806C55.6178 56.8455 106.337 79.2758 136.67 86.9782C155.502 91.7498 176.284 100.968 196.216 101.415C204.683 101.613 213.703 98.8451 219.03 92.3573C225.35 84.6573 225.109 74.0872 227.354 64.7388C230.788 51.1608 239.452 39.4982 251.451 32.2996C279.56 15.3948 298.571 31.6579 321.863 46.7817Z" stroke="url(#paint23_linear_200_1345)" stroke-linecap="round" stroke-linejoin="round"/>
<path opacity="0.15" d="M328.117 50.3652C368.997 75.8686 407.234 78.8127 451.24 80.7327C486.842 82.2728 551.378 77.095 578.737 100.745C605.253 123.729 609.631 157.643 602.893 191.814C600.593 203.493 579.288 234.251 578.63 246.428C577.47 268.023 590.703 287.469 595.246 308.605C597.672 320.427 597.355 332.648 594.321 344.327C591.286 356.005 585.615 366.829 577.743 375.966C569.785 384.96 559.549 392.277 554.525 403.31C545.574 423.083 578.032 451.031 579.986 472.027C580.483 477.391 580.439 483.023 578.293 488.076C575.527 494.541 569.735 499.156 563.94 503.087C547.727 514.116 507.099 516.131 488.083 519.854C456.682 526.023 421.982 521.271 394.203 537.952C374.617 549.752 358.185 571.74 335.507 569.774C315.689 568.05 303.914 548.996 287.697 538.003C273.271 526.951 247.636 536.304 231.148 538.061C208.615 540.541 186.068 542.847 163.505 544.978C129.377 548.126 93.2782 550.462 62.8188 534.579C50.2102 527.859 39.3041 518.338 30.9358 506.748C22.5674 495.158 16.9588 481.805 14.5395 467.712C9.80186 438.009 22.7829 397.169 49.7322 385.767C63.0942 380.142 78.0634 380.721 91.1633 373.846C107.81 365.18 117.631 343.536 115.687 323.354C113.283 298.144 96.8537 281.095 81.5098 263.385C60.5555 239.444 43.9362 212.025 32.4006 182.364C26.7586 167.671 22.5468 152.197 22.6375 136.299C22.7281 120.402 27.7884 103.763 38.9005 92.1613C64.8191 65.0728 113.202 83.7624 143.133 89.5661C161.574 93.0951 181.834 101.022 201.409 100.946C209.687 100.951 218.505 98.2435 223.93 92.1371C230.352 84.9051 230.784 75.1127 233.534 66.3691C237.758 53.5996 246.645 42.9009 258.415 36.4149C285.963 21.0227 305.08 35.9353 328.117 50.3652Z" stroke="url(#paint24_linear_200_1345)" stroke-linecap="round" stroke-linejoin="round"/>
<path opacity="0.23" d="M334.348 53.9284C374.072 77.7 411.076 81.3792 453.035 84.7399C487.555 87.5107 547.952 84.9603 574.26 108.613C599.381 131.179 603.893 163.694 598.645 196.644C596.77 208.381 577.779 237.499 577.35 249.723C576.524 270.598 588.517 289.526 592.579 310.021C594.739 321.474 594.373 333.261 591.507 344.555C588.641 355.85 583.344 366.38 575.987 375.409C568.584 384.24 559.061 391.549 554.266 402.203C545.597 421.554 574.396 448.264 575.457 468.565C575.731 473.699 575.489 479.064 573.406 483.935C570.671 490.124 565.15 494.627 559.662 498.527C543.906 509.65 506.03 512.688 487.587 516.92C457.655 523.811 424.548 520.325 397.643 536.231C378.686 547.433 362.496 567.879 340.661 566.424C321.555 565.119 309.752 547.976 293.892 538.089C279.761 528.111 255.293 536.554 239.21 538.122C217.459 540.229 195.707 542.179 173.954 543.76C140.97 546.079 106.333 547.413 76.9974 531.946C64.8695 525.435 54.3105 516.346 46.061 505.318C37.8116 494.289 32.0715 481.588 29.2435 468.106C23.6086 439.739 34.2046 401.074 57.7574 389.045C69.4409 383.112 82.6086 382.78 94.2252 375.663C108.92 366.7 117.523 345.895 115.511 326.391C113.045 302.159 97.9696 285.304 83.9993 267.821C64.8517 244.196 49.9819 217.399 40.0632 188.643C35.1799 174.14 31.8188 158.936 32.3888 143.424C32.9588 127.911 38.168 111.724 48.9425 100.216C74.1002 73.2649 120.12 88.2068 149.667 92.1019C167.69 94.4813 187.461 101.054 206.672 100.483C214.767 100.268 223.371 97.6164 228.846 91.9072C235.387 85.1336 236.488 76.0754 239.706 68.026C244.723 56.1019 253.818 46.3579 265.362 40.54C292.352 26.6472 311.576 40.3092 334.348 53.9284Z" stroke="url(#paint25_linear_200_1345)" stroke-linecap="round" stroke-linejoin="round"/>
<path opacity="0.31" d="M340.576 57.5047C379.119 79.5373 414.928 83.9623 454.828 88.7601C488.289 92.7819 544.531 92.8121 569.811 116.431C593.509 138.586 598.246 169.725 594.41 201.434C592.986 213.235 576.361 240.729 576.04 253.025C575.523 273.172 586.313 291.606 589.88 311.457C591.789 322.538 591.381 333.893 588.683 344.806C585.984 355.719 581.054 365.952 574.203 374.858C567.361 383.555 558.573 390.82 553.978 401.101C545.602 420.048 570.745 445.506 570.939 465.119C571.222 470.13 570.396 475.141 568.52 479.794C565.813 485.721 560.567 490.098 555.372 493.963C540.186 505.24 504.965 509.232 487.073 514.01C458.643 521.602 427.095 519.402 401.065 534.534C382.721 545.246 366.824 564.065 345.817 563.074C327.432 562.204 315.587 546.969 300.079 538.157C286.122 529.278 262.959 536.878 247.283 538.199C226.342 539.984 205.382 541.521 184.427 542.563C152.581 544.078 119.404 544.411 91.1826 529.4C79.5344 523.091 69.3213 514.429 61.1907 503.963C53.06 493.497 47.1893 481.454 43.9505 468.599C37.4255 441.544 45.6162 405.076 65.76 392.358C75.782 386.107 87.1879 384.876 97.2683 377.503C110.029 368.234 117.383 348.274 115.316 329.452C112.791 306.185 99.01 289.535 86.4868 272.27C69.5101 249.089 55.8186 223.024 47.7272 194.922C43.6062 180.595 41.0921 165.676 42.1415 150.548C43.1909 135.419 48.5323 119.695 58.9595 108.264C83.366 81.4664 127.032 92.6775 156.168 94.6569C173.786 95.8468 193.076 101.083 211.926 100.002C219.835 99.5804 228.222 96.9988 233.85 91.6719C240.502 85.3832 242.287 77.0629 245.976 69.6943C251.119 59.3327 260.635 50.2449 272.423 44.6667C298.76 32.2617 318.059 44.6359 340.576 57.5047Z" stroke="url(#paint26_linear_200_1345)" stroke-linecap="round" stroke-linejoin="round"/>
<path opacity="0.38" d="M346.804 61.0805C384.171 81.4043 418.784 86.5883 456.637 92.7703C489.033 98.0697 541.153 100.661 565.359 124.261C587.64 145.98 592.675 175.792 590.196 206.301C589.238 218.17 574.921 244.038 574.779 256.41C574.557 275.826 584.145 293.767 587.207 312.956C590.539 334.582 585.24 356.649 572.453 374.388C566.163 382.934 558.074 390.188 553.708 400.09C545.642 418.623 567.13 442.829 566.393 461.78C566.42 466.586 565.471 471.347 563.602 475.773C560.923 481.436 555.961 485.705 551.047 489.532C536.373 500.804 503.847 505.818 486.525 511.119C459.581 519.366 429.598 518.482 404.439 532.852C386.724 542.966 371.122 560.257 350.919 559.71C333.28 559.239 321.386 545.938 306.229 538.202C292.517 530.426 270.593 537.164 255.32 538.252C235.183 539.684 215.015 540.809 194.854 541.324C164.146 542.036 132.433 541.355 105.329 526.786C82.7711 514.434 65.9829 493.679 58.6051 469.022C51.1899 443.277 56.9807 408.88 73.7994 395.639C82.1332 389.063 91.7509 386.925 100.328 379.334C111.13 369.738 117.29 350.637 115.155 332.493C112.597 310.198 100.19 293.718 89.0038 276.712C73.8839 253.916 61.8794 228.446 55.4076 201.191C51.8053 186.963 50.6323 172.229 51.938 157.612C53.5253 142.756 58.9438 127.593 69.0299 116.269C92.6756 89.6084 133.941 97.1044 162.73 97.1426C179.921 97.1661 198.729 101.021 217.207 99.471C224.95 98.8204 233.12 96.3083 238.834 91.4026C245.619 85.5758 248.1 77.9968 252.22 71.2985C258.012 61.9073 267.743 53.7724 279.464 48.7594C305.091 37.8412 324.55 48.979 346.804 61.0805Z" stroke="url(#paint27_linear_200_1345)" stroke-linecap="round" stroke-linejoin="round"/>
<path opacity="0.46" d="M353.033 64.6556C389.233 83.2873 422.642 89.2569 458.43 96.7894C489.782 103.387 537.673 108.468 560.894 132.088C581.795 153.336 587.122 181.848 585.953 211.017C585.468 222.971 573.442 247.179 573.461 259.637C573.517 278.332 581.922 295.756 584.503 314.304C587.293 335.15 582.371 356.293 570.664 373.75C564.921 382.159 557.555 389.365 553.415 398.901C545.641 417.029 563.487 439.988 561.854 458.201C561.626 462.79 560.556 467.298 558.695 471.498C556.044 476.899 551.367 481.059 546.749 484.838C532.597 496.392 502.787 502.292 486.011 508.151C460.557 517.041 432.146 517.502 407.861 531.098C390.76 540.722 375.455 556.374 356.061 556.356C339.13 556.317 327.211 544.915 312.399 538.28C298.925 531.578 278.249 537.47 263.383 538.313C244.043 539.418 224.671 540.117 205.3 540.12C175.737 540.002 145.495 538.28 119.497 524.193C97.913 512.243 81.4687 492.765 73.2955 469.468C64.9601 445.04 68.3685 412.86 81.8216 398.93C88.4735 392.058 96.3594 389.015 103.387 381.164C112.238 371.271 117.166 353.005 114.963 335.54C112.346 314.21 101.303 297.939 91.494 281.147C78.2654 258.66 67.9469 233.841 63.0346 207.445C60.2846 193.386 59.8224 178.976 61.6661 164.771C63.7433 150.26 69.3108 135.549 79.0257 124.339C101.931 97.7921 140.795 101.63 169.214 99.7062C186.003 98.5269 204.346 101.092 222.441 99.012C229.987 98.1948 237.95 95.7125 243.774 91.1917C250.661 85.833 253.782 78.9944 258.413 72.9876C264.858 64.5535 274.776 57.3645 286.497 52.9344C311.4 43.3995 331.029 53.3177 353.033 64.6556Z" stroke="url(#paint28_linear_200_1345)" stroke-linecap="round" stroke-linejoin="round"/>
<path opacity="0.54" d="M359.266 68.2176C394.226 85.1661 427.008 90.2423 460.224 100.809C490.092 110.249 534.326 116.31 556.443 139.918C575.927 160.786 581.665 187.915 581.719 215.807C581.735 227.852 571.942 250.399 572.152 262.994C572.49 280.954 579.719 297.893 581.807 315.783C584.064 335.852 579.516 356.096 568.893 373.259C563.696 381.488 557.025 388.696 553.127 397.856C545.557 415.542 559.856 437.264 557.296 454.802C556.833 459.17 555.646 463.43 553.783 467.406C551.143 472.554 546.767 476.597 542.433 480.324C528.82 492.036 501.691 498.855 485.487 505.281C461.517 514.782 434.673 516.602 411.263 529.423C394.864 538.441 379.735 552.533 361.151 552.988C344.941 553.385 332.981 543.89 318.534 538.334C305.291 532.732 285.854 537.763 271.394 538.359C252.87 539.073 234.258 539.421 215.698 538.888C187.273 537.967 158.441 535.273 133.601 521.582C112.991 510.023 96.9095 491.802 87.9906 469.902C78.7351 446.79 79.7548 416.798 89.8414 402.234C94.8184 395.04 100.952 391.114 106.43 383.003C113.334 372.802 117.056 355.377 114.786 338.59C112.106 318.238 102.408 302.144 93.9949 285.598C82.6206 263.453 74.042 239.243 70.7519 213.738C68.8509 199.833 69.0861 185.72 71.4492 171.889C74.0227 157.752 79.708 143.556 89.1092 132.404C111.23 106.03 147.733 106.163 175.786 102.265C192.131 99.9854 209.992 101.113 227.735 98.541C235.123 97.4679 242.861 95.0816 248.779 90.9555C255.764 86.0781 259.581 79.9809 264.687 74.6417C272.749 66.5171 282.655 60.4657 293.56 57.0035C317.783 48.9493 337.505 57.67 359.266 68.2176Z" stroke="url(#paint29_linear_200_1345)" stroke-linecap="round" stroke-linejoin="round"/>
<path opacity="0.62" d="M365.494 71.7923C399.238 87.0779 430.367 94.7241 462.021 104.814C491.279 114.091 530.933 124.111 551.978 147.744C570.11 168.093 576.257 194.067 577.487 220.583C578.044 232.731 570.455 253.623 570.884 266.249C571.464 283.463 577.506 299.899 579.136 317.168C580.859 336.458 576.673 355.813 567.136 372.658C562.477 380.733 556.539 387.91 552.863 396.718C545.646 413.986 556.28 434.44 552.78 451.299C552.072 455.441 550.768 459.458 548.909 463.225C546.286 468.093 542.191 472.041 538.141 475.716C525.028 487.577 500.615 495.282 484.991 502.303C462.415 512.378 437.225 515.609 414.682 527.682C398.823 536.219 384.096 548.699 366.347 549.648C350.848 550.463 338.86 542.88 324.742 538.479C311.748 533.967 293.589 538.147 279.492 538.5C261.751 538.94 243.913 538.786 226.187 537.737C198.899 536.012 171.567 532.328 147.809 519.055C128.089 507.884 112.299 490.883 102.601 470.383C92.4921 448.549 91.1895 420.762 97.8637 405.524C101.159 398.035 105.534 393.196 109.489 384.833C114.454 374.338 116.932 357.745 114.607 341.64C111.868 322.253 103.524 306.352 96.4815 290.046C86.9914 268.236 80.219 244.653 78.4318 220.006C77.3916 206.279 78.3287 192.474 81.2144 179.015C84.2779 165.223 90.0811 151.542 99.1289 140.437C120.498 114.217 154.61 110.708 182.307 104.795C198.224 101.406 215.607 101.14 232.993 98.0453C240.299 96.8975 247.331 94.4149 253.739 90.7212C260.856 86.3058 265.33 80.9392 270.904 76.2942C279.613 69.2436 289.697 64.0923 300.511 61.1701C324.062 54.4568 343.983 62.0084 365.494 71.7923Z" stroke="url(#paint30_linear_200_1345)" stroke-linecap="round" stroke-linejoin="round"/>
<path opacity="0.69" d="M371.723 75.3673C404.23 89.013 434.19 97.5254 463.827 108.837C491.984 119.58 527.57 131.906 547.53 155.561C564.286 175.427 570.941 200.087 573.253 225.372C574.371 237.6 568.955 256.844 569.589 269.553C570.413 286.066 575.343 301.989 576.455 318.593C577.644 337.104 573.814 355.591 565.37 372.097C561.262 380.022 556.036 387.191 552.575 395.673C545.651 412.536 552.685 431.74 548.235 447.903C547.282 451.805 545.859 455.576 543.996 459.133C541.212 463.634 537.789 467.705 533.834 471.218C521.297 483.262 499.501 491.854 484.45 499.442C463.408 510.099 439.745 514.735 418.077 526.034C402.856 533.989 388.398 544.935 371.455 546.371C356.699 547.598 344.665 541.937 330.939 538.565C318.18 535.139 301.239 538.481 287.566 538.577C270.572 538.721 253.581 538.008 236.659 536.44C210.516 533.885 184.631 529.196 161.996 516.395C143.226 505.576 127.794 489.791 117.393 470.772C106.267 450.299 102.592 424.69 105.917 408.808C107.547 401.015 110.164 395.263 112.579 386.657C115.593 375.866 116.839 360.108 114.46 344.684C111.664 326.249 104.658 310.55 99.0192 294.465C91.3965 273 86.3712 250 86.1329 226.252C85.9708 212.712 87.6135 199.212 91.0175 186.109C94.4497 172.451 100.64 159.642 109.206 148.472C129.815 122.388 161.554 115.272 188.863 107.307C204.369 102.798 221.276 101.124 238.337 97.5449C245.455 96.1556 252.342 93.7691 258.794 90.4557C266.026 86.5118 271.167 81.8927 277.212 77.9286C286.511 71.9524 296.791 67.6668 307.579 65.2691C330.425 59.9728 350.441 66.4268 371.723 75.3673Z" stroke="url(#paint31_linear_200_1345)" stroke-linecap="round" stroke-linejoin="round"/>
<path opacity="0.77" d="M377.956 78.9294C409.229 90.9784 437.999 100.38 465.621 112.856C492.689 125.07 524.224 139.692 543.066 163.387C558.476 182.764 565.71 206.158 569.019 230.162C570.741 242.466 567.441 260.061 568.294 272.857C569.356 288.638 573.154 304.016 573.774 320.019C574.431 337.756 570.947 355.4 563.6 371.55C560.034 379.307 555.567 386.452 552.315 394.521C545.727 410.978 549.15 428.927 543.706 444.397C542.528 448.054 540.99 451.584 539.113 454.935C536.403 459.188 533.192 463.099 529.55 466.584C517.576 478.808 498.425 488.181 483.961 496.438C464.355 507.623 442.311 513.689 421.524 524.244C406.894 531.689 392.752 541.028 376.62 542.938C362.571 544.597 350.513 540.833 337.105 538.556C324.58 536.217 308.888 538.714 295.621 538.564C279.398 538.412 263.197 537.305 247.102 535.248C222.098 531.89 197.676 526.244 176.149 513.811C158.251 503.351 143.12 488.744 132.028 471.217C119.952 452.067 113.975 428.641 113.897 412.101C114.035 404.205 114.597 396.321 115.583 388.486C116.85 374.901 116.399 361.21 114.239 347.737C111.381 330.28 105.733 314.761 101.464 298.916C95.3674 277.342 92.7689 254.931 93.7673 232.536C94.4772 219.182 96.824 205.966 100.755 193.186C104.725 179.979 110.984 167.575 119.246 156.54C139.108 130.596 168.485 119.889 195.401 109.885C210.49 104.283 226.9 101.282 243.559 97.0824C250.482 95.471 257.23 93.1829 263.705 90.251C271.066 86.7824 276.876 82.8976 283.396 79.6011C293.225 74.7439 303.703 71.3325 314.507 69.4725C336.746 65.435 356.89 70.8285 377.956 78.9294Z" stroke="url(#paint32_linear_200_1345)" stroke-linecap="round" stroke-linejoin="round"/>
<path opacity="0.85" d="M384.185 82.504C414.206 92.9662 441.77 103.266 467.417 116.862C493.348 130.619 520.898 147.454 538.613 171.217C552.681 190.091 560.449 212.179 564.796 234.954C567.17 247.32 565.91 263.287 566.998 276.161C568.282 291.219 570.952 306.138 571.091 321.443C571.194 338.405 568.031 355.226 561.775 370.987C558.761 378.594 554.993 385.728 551.974 393.405C545.692 409.46 545.555 426.17 539.125 440.92C537.717 444.324 536.058 447.618 534.16 450.775C531.524 454.791 528.521 458.554 525.19 462.014C513.798 474.451 497.236 484.605 483.398 493.443C465.204 505.134 444.802 512.707 424.893 522.474C410.902 529.337 397.035 537.115 381.723 539.516C368.379 541.62 356.285 539.794 343.253 538.556C330.963 537.304 316.502 538.966 303.646 538.557C288.181 538.094 272.767 536.559 257.513 533.962C233.65 529.787 210.713 523.104 190.293 511.153C173.242 501.046 158.412 487.586 146.697 471.586C134.603 454.767 126.154 435.604 121.894 415.327C120.265 407.061 119.182 398.697 118.649 390.289C117.796 377.039 116.268 363.841 114.071 350.747C111.167 334.259 106.839 318.952 104.031 303.328C99.9011 282.083 99.0466 260.332 101.497 238.832C103.094 225.719 106.133 212.823 110.559 200.379C115.022 187.596 121.337 175.54 129.303 164.597C148.39 138.787 175.44 124.512 201.932 112.432C216.633 105.731 232.542 101.259 248.776 96.576C255.509 94.7247 262.142 92.5241 268.646 89.983C276.109 86.9825 282.617 83.7824 289.59 81.2332C299.909 77.4243 310.638 74.837 321.559 73.5242C343.06 70.8665 363.347 75.2465 384.185 82.504Z" stroke="url(#paint33_linear_200_1345)" stroke-linecap="round" stroke-linejoin="round"/>
<path opacity="0.92" d="M390.411 86.0791C419.187 94.9844 445.499 106.199 469.156 120.867C493.902 136.182 517.537 155.18 534.107 179.033C546.862 197.398 555.224 218.167 560.48 239.722C563.525 252.126 564.285 266.489 565.623 279.487C567.099 293.829 568.657 308.236 568.311 322.857C567.897 339.023 565.093 355.038 559.99 370.379C557.501 377.828 554.498 384.969 551.668 392.312C545.682 407.95 542.005 423.453 534.562 437.476C532.91 440.573 531.198 443.681 529.266 446.66C526.703 450.43 523.912 454.039 520.908 457.466C510.128 470.111 496.14 480.998 482.921 490.599C466.116 502.777 447.413 511.858 428.339 520.84C414.964 527.201 401.387 533.365 386.899 536.242C374.287 538.742 362.155 538.811 349.46 538.701C337.415 538.552 324.198 539.383 311.743 538.697C297.028 537.912 282.399 535.948 267.997 532.824C245.272 527.846 223.782 520.158 204.488 508.666C188.252 498.911 173.702 486.584 161.407 472.165C148.034 456.232 137.398 438.186 129.932 418.764C126.582 410.118 123.828 401.252 121.692 392.228C118.924 380.539 116.445 367.292 113.876 353.907C110.926 338.387 107.946 323.243 106.468 307.848C104.323 286.921 105.213 265.795 109.112 245.126C111.595 232.251 115.331 219.65 120.267 207.505C125.225 195.182 131.609 183.484 139.287 172.65C157.61 146.99 182.331 129.161 208.405 114.979C223.005 107.312 238.278 101.005 254.031 96.1372C260.528 94.0429 267.167 91.9443 273.591 89.8021C281.186 87.2635 288.346 84.864 295.784 82.9656C306.519 80.2088 317.489 78.4611 328.55 77.7452C349.466 76.2667 369.848 79.7057 390.411 86.0791Z" stroke="url(#paint34_linear_200_1345)" stroke-linecap="round" stroke-linejoin="round"/>
<path d="M451.811 508.86C561.069 445.684 598.478 305.719 535.366 196.24C472.254 86.7602 332.52 49.2239 223.262 112.4C114.004 175.576 76.5951 315.541 139.707 425.02C202.819 534.5 342.553 572.036 451.811 508.86Z" stroke="url(#paint35_linear_200_1345)" stroke-linecap="round" stroke-linejoin="round"/>
</g>
<defs>
<linearGradient id="paint0_linear_200_1345" x1="91.7305" y1="249.623" x2="527.598" y2="327.077" gradientUnits="userSpaceOnUse">
<stop stop-color="#00F0FF"/>
<stop offset="1" stop-color="#0057E8"/>
</linearGradient>
<linearGradient id="paint1_linear_200_1345" x1="204.573" y1="91.6224" x2="460.007" y2="464.791" gradientUnits="userSpaceOnUse">
<stop stop-color="#00F0FF"/>
<stop offset="1" stop-color="#0057E8"/>
</linearGradient>
<linearGradient id="paint2_linear_200_1345" x1="202.689" y1="89.7746" x2="460.166" y2="472.625" gradientUnits="userSpaceOnUse">
<stop stop-color="#00F0FF"/>
<stop offset="1" stop-color="#0057E8"/>
</linearGradient>
<linearGradient id="paint3_linear_200_1345" x1="200.777" y1="87.8863" x2="460.582" y2="480.558" gradientUnits="userSpaceOnUse">
<stop stop-color="#00F0FF"/>
<stop offset="1" stop-color="#0057E8"/>
</linearGradient>
<linearGradient id="paint4_linear_200_1345" x1="198.768" y1="85.9562" x2="461.321" y2="488.589" gradientUnits="userSpaceOnUse">
<stop stop-color="#00F0FF"/>
<stop offset="1" stop-color="#0057E8"/>
</linearGradient>
<linearGradient id="paint5_linear_200_1345" x1="196.847" y1="83.9711" x2="462.054" y2="496.459" gradientUnits="userSpaceOnUse">
<stop stop-color="#00F0FF"/>
<stop offset="1" stop-color="#0057E8"/>
</linearGradient>
<linearGradient id="paint6_linear_200_1345" x1="195" y1="82.0287" x2="463.269" y2="504.364" gradientUnits="userSpaceOnUse">
<stop stop-color="#00F0FF"/>
<stop offset="1" stop-color="#0057E8"/>
</linearGradient>
<linearGradient id="paint7_linear_200_1345" x1="192.981" y1="79.9964" x2="464.271" y2="512.295" gradientUnits="userSpaceOnUse">
<stop stop-color="#00F0FF"/>
<stop offset="1" stop-color="#0057E8"/>
</linearGradient>
<linearGradient id="paint8_linear_200_1345" x1="191.124" y1="78.0041" x2="465.575" y2="520.163" gradientUnits="userSpaceOnUse">
<stop stop-color="#00F0FF"/>
<stop offset="1" stop-color="#0057E8"/>
</linearGradient>
<linearGradient id="paint9_linear_200_1345" x1="189.203" y1="75.9639" x2="466.834" y2="528.003" gradientUnits="userSpaceOnUse">
<stop stop-color="#00F0FF"/>
<stop offset="1" stop-color="#0057E8"/>
</linearGradient>
<linearGradient id="paint10_linear_200_1345" x1="187.319" y1="73.9255" x2="468.19" y2="535.801" gradientUnits="userSpaceOnUse">
<stop stop-color="#00F0FF"/>
<stop offset="1" stop-color="#0057E8"/>
</linearGradient>
<linearGradient id="paint11_linear_200_1345" x1="185.444" y1="71.8736" x2="469.567" y2="543.615" gradientUnits="userSpaceOnUse">
<stop stop-color="#00F0FF"/>
<stop offset="1" stop-color="#0057E8"/>
</linearGradient>
<linearGradient id="paint12_linear_200_1345" x1="183.544" y1="69.8013" x2="470.974" y2="551.322" gradientUnits="userSpaceOnUse">
<stop stop-color="#00F0FF"/>
<stop offset="1" stop-color="#0057E8"/>
</linearGradient>
<linearGradient id="paint13_linear_200_1345" x1="181.67" y1="67.7311" x2="472.435" y2="559.044" gradientUnits="userSpaceOnUse">
<stop stop-color="#00F0FF"/>
<stop offset="1" stop-color="#0057E8"/>
</linearGradient>
<linearGradient id="paint14_linear_200_1345" x1="179.739" y1="65.6371" x2="473.852" y2="566.774" gradientUnits="userSpaceOnUse">
<stop stop-color="#00F0FF"/>
<stop offset="1" stop-color="#0057E8"/>
</linearGradient>
<linearGradient id="paint15_linear_200_1345" x1="177.901" y1="63.508" x2="475.388" y2="574.408" gradientUnits="userSpaceOnUse">
<stop stop-color="#00F0FF"/>
<stop offset="1" stop-color="#0057E8"/>
</linearGradient>
<linearGradient id="paint16_linear_200_1345" x1="91.73" y1="249.622" x2="527.598" y2="327.076" gradientUnits="userSpaceOnUse">
<stop stop-color="#00F0FF"/>
<stop offset="1" stop-color="#0057E8"/>
</linearGradient>
<linearGradient id="paint17_linear_200_1345" x1="213.612" y1="84.576" x2="472.547" y2="446.07" gradientUnits="userSpaceOnUse">
<stop stop-color="#00F0FF"/>
<stop offset="1" stop-color="#0057E8"/>
</linearGradient>
<linearGradient id="paint18_linear_200_1345" x1="220.35" y1="75.6545" x2="484.491" y2="435.35" gradientUnits="userSpaceOnUse">
<stop stop-color="#00F0FF"/>
<stop offset="1" stop-color="#0057E8"/>
</linearGradient>
<linearGradient id="paint19_linear_200_1345" x1="226.992" y1="66.7763" x2="496.224" y2="424.592" gradientUnits="userSpaceOnUse">
<stop stop-color="#00F0FF"/>
<stop offset="1" stop-color="#0057E8"/>
</linearGradient>
<linearGradient id="paint20_linear_200_1345" x1="228.236" y1="56.6577" x2="503.466" y2="417.381" gradientUnits="userSpaceOnUse">
<stop stop-color="#00F0FF"/>
<stop offset="1" stop-color="#0057E8"/>
</linearGradient>
<linearGradient id="paint21_linear_200_1345" x1="222.681" y1="45.2529" x2="506.351" y2="414.883" gradientUnits="userSpaceOnUse">
<stop stop-color="#00F0FF"/>
<stop offset="1" stop-color="#0057E8"/>
</linearGradient>
<linearGradient id="paint22_linear_200_1345" x1="216.585" y1="33.7687" x2="508.993" y2="412.811" gradientUnits="userSpaceOnUse">
<stop stop-color="#00F0FF"/>
<stop offset="1" stop-color="#0057E8"/>
</linearGradient>
<linearGradient id="paint23_linear_200_1345" x1="104.395" y1="28.2122" x2="415.372" y2="535.869" gradientUnits="userSpaceOnUse">
<stop stop-color="#00F0FF"/>
<stop offset="1" stop-color="#0057E8"/>
</linearGradient>
<linearGradient id="paint24_linear_200_1345" x1="112.39" y1="36.9347" x2="416.002" y2="531.117" gradientUnits="userSpaceOnUse">
<stop stop-color="#00F0FF"/>
<stop offset="1" stop-color="#0057E8"/>
</linearGradient>
<linearGradient id="paint25_linear_200_1345" x1="120.417" y1="45.5948" x2="416.699" y2="526.269" gradientUnits="userSpaceOnUse">
<stop stop-color="#00F0FF"/>
<stop offset="1" stop-color="#0057E8"/>
</linearGradient>
<linearGradient id="paint26_linear_200_1345" x1="128.47" y1="54.0502" x2="417.641" y2="521.274" gradientUnits="userSpaceOnUse">
<stop stop-color="#00F0FF"/>
<stop offset="1" stop-color="#0057E8"/>
</linearGradient>
<linearGradient id="paint27_linear_200_1345" x1="136.921" y1="61.0646" x2="420.123" y2="515.102" gradientUnits="userSpaceOnUse">
<stop stop-color="#00F0FF"/>
<stop offset="1" stop-color="#0057E8"/>
</linearGradient>
<linearGradient id="paint28_linear_200_1345" x1="145.999" y1="65.383" x2="425.368" y2="506.659" gradientUnits="userSpaceOnUse">
<stop stop-color="#00F0FF"/>
<stop offset="1" stop-color="#0057E8"/>
</linearGradient>
<linearGradient id="paint29_linear_200_1345" x1="155.078" y1="69.6729" x2="430.643" y2="498.2" gradientUnits="userSpaceOnUse">
<stop stop-color="#00F0FF"/>
<stop offset="1" stop-color="#0057E8"/>
</linearGradient>
<linearGradient id="paint30_linear_200_1345" x1="164.072" y1="73.923" x2="435.848" y2="489.763" gradientUnits="userSpaceOnUse">
<stop stop-color="#00F0FF"/>
<stop offset="1" stop-color="#0057E8"/>
</linearGradient>
<linearGradient id="paint31_linear_200_1345" x1="172.987" y1="78.1194" x2="440.88" y2="481.351" gradientUnits="userSpaceOnUse">
<stop stop-color="#00F0FF"/>
<stop offset="1" stop-color="#0057E8"/>
</linearGradient>
<linearGradient id="paint32_linear_200_1345" x1="181.896" y1="82.2655" x2="445.894" y2="474.529" gradientUnits="userSpaceOnUse">
<stop stop-color="#00F0FF"/>
<stop offset="1" stop-color="#0057E8"/>
</linearGradient>
<linearGradient id="paint33_linear_200_1345" x1="190.667" y1="86.2744" x2="450.839" y2="468.284" gradientUnits="userSpaceOnUse">
<stop stop-color="#00F0FF"/>
<stop offset="1" stop-color="#0057E8"/>
</linearGradient>
<linearGradient id="paint34_linear_200_1345" x1="198.931" y1="90.0407" x2="455.683" y2="462.327" gradientUnits="userSpaceOnUse">
<stop stop-color="#00F0FF"/>
<stop offset="1" stop-color="#0057E8"/>
</linearGradient>
<linearGradient id="paint35_linear_200_1345" x1="91.7256" y1="249.622" x2="527.593" y2="327.076" gradientUnits="userSpaceOnUse">
<stop stop-color="#00F0FF"/>
<stop offset="1" stop-color="#0057E8"/>
</linearGradient>
<clipPath id="clip0_200_1345">
<rect width="705" height="297" fill="white"/>
</clipPath>
</defs>
</svg>
