<svg width="176" height="124" viewBox="0 0 176 124" fill="none" xmlns="http://www.w3.org/2000/svg">
<path d="M166.601 33.8008L131.096 14.6826L95.5908 33.8008V52.9191L100.661 55.6502L95.5908 58.3814V77.4996L131.096 96.6179L166.601 77.4996V58.3814L161.532 55.6502L166.601 52.9191V33.8008Z" fill="#BBE6DF"/>
<path d="M95.5908 58.3818L131.096 77.5001V96.6183L95.5908 77.5001V58.3818Z" fill="#2565D0"/>
<path d="M131.096 96.6183L166.601 77.5001V58.3818L131.096 77.5001V96.6183Z" fill="#6890D4"/>
<path d="M95.5908 33.8013L131.096 52.9195V72.0377L95.5908 52.9195V33.8013Z" fill="#2565D0"/>
<path d="M131.096 52.9191L166.601 33.8008L131.096 14.6826L95.5908 33.8008L131.096 52.9191Z" fill="#C6DBFF"/>
<path d="M131.096 72.0377L166.601 52.9195V33.8013L131.096 52.9195V72.0377Z" fill="#6890D4"/>
<path d="M106.516 33.8009L131.096 20.145L155.677 33.8009L131.096 47.4568L106.516 33.8009Z" fill="#BBE6DF"/>
<path d="M106.516 33.8009L123.603 43.2917L131.096 39.2632V20.145L106.516 33.8009Z" fill="#1DB29B"/>
<path d="M155.676 33.8009L138.589 43.2917L131.096 39.2632V20.145L155.676 33.8009Z" fill="#8DD6CB"/>
<path d="M112.375 31L62 3.875L11.625 31V58.125L18.818 62L11.625 65.875V93L62 120.125L112.375 93V65.875L105.182 62L112.375 58.125V31Z" fill="#BBE6DF"/>
<path d="M11.625 65.875L62 93V120.125L11.625 93V65.875Z" fill="#2565D0"/>
<path d="M62 120.125L112.375 93V65.875L62 93V120.125Z" fill="#6890D4"/>
<path d="M11.625 31L62 58.125V85.25L11.625 58.125V31Z" fill="#2565D0"/>
<path d="M62 58.125L112.375 31L62 3.875L11.625 31L62 58.125Z" fill="#C6DBFF"/>
<path d="M62 85.25L112.375 58.125V31L62 58.125V85.25Z" fill="#6890D4"/>
<path d="M27.125 31L62 11.625L96.875 31L62 50.375L27.125 31Z" fill="#BBE6DF"/>
<path d="M27.125 31L51.368 44.4656L62 38.75V11.625L27.125 31Z" fill="#1DB29B"/>
<path d="M96.875 31L72.632 44.4656L62 38.75V11.625L96.875 31Z" fill="#8DD6CB"/>
</svg>
