<svg width="60" height="60" viewBox="0 0 60 60" fill="none" xmlns="http://www.w3.org/2000/svg">
<g clip-path="url(#clip0_1_2846)">
<rect width="60" height="60" rx="8" fill="#2565D0"/>
<path d="M24.3343 35.1687H35.6655C44.9952 35.1687 52.553 42.7265 52.553 52.0562V58.8687C52.553 62.8062 49.3593 64 45.4218 64H14.578C10.6405 64 7.44678 62.8062 7.44678 58.8687V52.0562C7.44678 42.7265 15.0046 35.1687 24.3343 35.1687Z" fill="url(#paint0_linear_1_2846)"/>
<path d="M29.9998 32.0406C36.6384 32.0406 42.0201 26.6589 42.0201 20.0203C42.0201 13.3817 36.6384 8 29.9998 8C23.3612 8 17.9795 13.3817 17.9795 20.0203C17.9795 26.6589 23.3612 32.0406 29.9998 32.0406Z" fill="url(#paint1_linear_1_2846)"/>
</g>
<defs>
<linearGradient id="paint0_linear_1_2846" x1="-7.56177" y1="19.1563" x2="50.7471" y2="70.5396" gradientUnits="userSpaceOnUse">
<stop stop-color="#21D1F7"/>
<stop offset="1" stop-color="#2196F3"/>
</linearGradient>
<linearGradient id="paint1_linear_1_2846" x1="8.43095" y1="1.00886" x2="66.7399" y2="52.3921" gradientUnits="userSpaceOnUse">
<stop stop-color="#21D1F7"/>
<stop offset="1" stop-color="#2196F3"/>
</linearGradient>
<clipPath id="clip0_1_2846">
<rect width="60" height="60" fill="white"/>
</clipPath>
</defs>
</svg>
