<svg width="80" height="53" viewBox="0 0 80 53" fill="none" xmlns="http://www.w3.org/2000/svg">
<path d="M4.848 45.952L4.02673 46.5226L4.02959 46.5266L4.848 45.952ZM4.848 7.144L4.03546 6.56109L4.848 7.144ZM32.352 7.144L31.5353 7.72104L31.5395 7.72691L32.352 7.144ZM32.352 45.952L33.1704 46.5266L33.1733 46.5226L32.352 45.952ZM25.8 40.696L24.9142 40.232L24.9114 40.2374L25.8 40.696ZM25.8 12.472L24.9145 12.9365L24.919 12.9453L24.9238 12.9539L25.8 12.472ZM11.4 12.472L12.2762 12.9539L12.2795 12.9478L11.4 12.472ZM11.4 40.696L10.5141 41.16L10.5173 41.1658L11.4 40.696ZM18.6 51.72C12.8921 51.72 8.62862 49.5963 5.66641 45.3774L4.02959 46.5266C7.40338 51.3317 12.3079 53.72 18.6 53.72V51.72ZM5.66926 45.3814C2.66331 41.0547 1.096 34.8063 1.096 26.512H-0.904C-0.904 35.0177 0.696689 41.7293 4.02674 46.5226L5.66926 45.3814ZM1.096 26.512C1.096 18.1156 2.66567 11.9016 5.66054 7.72691L4.03546 6.56109C0.694326 11.2184 -0.904 17.9164 -0.904 26.512H1.096ZM5.66054 7.72691C8.6191 3.60285 12.8833 1.52 18.6 1.52V-0.480002C12.3167 -0.480002 7.4129 1.85314 4.03546 6.56109L5.66054 7.72691ZM18.6 1.52C24.3679 1.52 28.6271 3.60481 31.5353 7.72103L33.1687 6.56697C29.8369 1.85119 24.9281 -0.480002 18.6 -0.480002V1.52ZM31.5395 7.72691C34.5349 11.9023 36.104 18.093 36.104 26.44H38.104C38.104 17.891 36.5051 11.2177 33.1645 6.56109L31.5395 7.72691ZM36.104 26.44C36.104 34.7837 34.5362 41.0555 31.5307 45.3814L33.1733 46.5226C36.5039 41.7285 38.104 34.9923 38.104 26.44H36.104ZM31.5336 45.3774C28.5714 49.5963 24.3079 51.72 18.6 51.72V53.72C24.8921 53.72 29.7966 51.3317 33.1704 46.5266L31.5336 45.3774ZM18.6 46.16C20.3886 46.16 21.9933 45.7505 23.3749 44.8939C24.7551 44.0382 25.8532 42.7732 26.6886 41.1546L24.9114 40.2374C24.2108 41.5948 23.3409 42.5618 22.3211 43.1941C21.3027 43.8255 20.0754 44.16 18.6 44.16V46.16ZM26.6858 41.16C28.3858 37.9147 29.176 32.9611 29.176 26.44H27.176C27.176 32.8789 26.3822 37.4293 24.9142 40.232L26.6858 41.16ZM29.176 26.44C29.176 19.9719 28.3875 15.1015 26.6762 11.9901L24.9238 12.9539C26.3805 15.6025 27.176 20.044 27.176 26.44H29.176ZM26.6855 12.0074C25.8484 10.4116 24.7487 9.16607 23.3688 8.3243C21.9881 7.48208 20.3857 7.08 18.6 7.08V9.08C20.0783 9.08 21.3079 9.40991 22.3272 10.0317C23.3473 10.6539 24.2156 11.6044 24.9145 12.9365L26.6855 12.0074ZM18.6 7.08C16.8353 7.08 15.2456 7.48347 13.8672 8.3243C12.4907 9.16401 11.381 10.4055 10.5205 11.9962L12.2795 12.9478C13.003 11.6105 13.8853 10.656 14.9088 10.0317C15.9304 9.40853 17.1487 9.08 18.6 9.08V7.08ZM10.5238 11.9901C8.8125 15.1015 8.024 19.9719 8.024 26.44H10.024C10.024 20.044 10.8195 15.6025 12.2762 12.9539L10.5238 11.9901ZM8.024 26.44C8.024 32.9611 8.81423 37.9147 10.5142 41.16L12.2858 40.232C10.8178 37.4293 10.024 32.8789 10.024 26.44H8.024ZM10.5173 41.1658C11.3761 42.7794 12.4843 44.0403 13.8611 44.8939C15.2404 45.7491 16.8323 46.16 18.6 46.16V44.16C17.1517 44.16 15.9356 43.8269 14.9149 43.1941C13.8917 42.5597 13.0079 41.5886 12.2827 40.2262L10.5173 41.1658ZM48.0199 52H47.0199V53H48.0199V52ZM48.0199 44.368V43.368H47.0199V44.368H48.0199ZM59.4679 44.368V45.368H60.4679V44.368H59.4679ZM59.4679 11.752H60.4679V9.98335L58.9524 10.8951L59.4679 11.752ZM50.6119 17.08L49.729 17.5496L50.2241 18.4803L51.1274 17.9369L50.6119 17.08ZM47.0119 10.312L46.4974 9.4545L45.683 9.94313L46.129 10.7816L47.0119 10.312ZM62.1319 1.24V0.239997H61.8549L61.6174 0.382504L62.1319 1.24ZM68.6839 1.24H69.6839V0.239997H68.6839V1.24ZM68.6839 44.368H67.6839V45.368H68.6839V44.368ZM79.4119 44.368H80.4119V43.368H79.4119V44.368ZM79.4119 52V53H80.4119V52H79.4119ZM49.0199 52V44.368H47.0199V52H49.0199ZM48.0199 45.368H59.4679V43.368H48.0199V45.368ZM60.4679 44.368V11.752H58.4679V44.368H60.4679ZM58.9524 10.8951L50.0964 16.2231L51.1274 17.9369L59.9834 12.6089L58.9524 10.8951ZM51.4947 16.6104L47.8947 9.84238L46.129 10.7816L49.729 17.5496L51.4947 16.6104ZM47.5264 11.1695L62.6464 2.09749L61.6174 0.382504L46.4974 9.4545L47.5264 11.1695ZM62.1319 2.24H68.6839V0.239997H62.1319V2.24ZM67.6839 1.24V44.368H69.6839V1.24H67.6839ZM68.6839 45.368H79.4119V43.368H68.6839V45.368ZM78.4119 44.368V52H80.4119V44.368H78.4119ZM79.4119 51H48.0199V53H79.4119V51Z" fill="url(#paint0_linear_152_736)"/>
<defs>
<linearGradient id="paint0_linear_152_736" x1="78.3611" y1="60.1" x2="-17.0768" y2="18.3294" gradientUnits="userSpaceOnUse">
<stop stop-color="#2565D0"/>
<stop offset="0.44" stop-color="#2769B3"/>
<stop offset="0.9" stop-color="#3CC9CD"/>
<stop offset="1" stop-color="#42E8E0"/>
</linearGradient>
</defs>
</svg>
