<svg width="80" height="53" viewBox="0 0 80 53" fill="none" xmlns="http://www.w3.org/2000/svg">
<path d="M4.848 45.952L4.02673 46.5226L4.02959 46.5266L4.848 45.952ZM4.848 7.144L4.03546 6.56109L4.848 7.144ZM32.352 7.144L31.5353 7.72104L31.5395 7.72691L32.352 7.144ZM32.352 45.952L33.1704 46.5266L33.1733 46.5226L32.352 45.952ZM25.8 40.696L24.9142 40.232L24.9114 40.2374L25.8 40.696ZM25.8 12.472L24.9145 12.9365L24.919 12.9453L24.9238 12.9539L25.8 12.472ZM11.4 12.472L12.2762 12.9539L12.2795 12.9478L11.4 12.472ZM11.4 40.696L10.5141 41.16L10.5173 41.1658L11.4 40.696ZM18.6 51.72C12.8921 51.72 8.62862 49.5963 5.66641 45.3774L4.02959 46.5266C7.40338 51.3317 12.3079 53.72 18.6 53.72V51.72ZM5.66926 45.3814C2.66331 41.0547 1.096 34.8063 1.096 26.512H-0.904C-0.904 35.0177 0.696689 41.7293 4.02674 46.5226L5.66926 45.3814ZM1.096 26.512C1.096 18.1156 2.66567 11.9016 5.66054 7.72691L4.03546 6.56109C0.694326 11.2184 -0.904 17.9164 -0.904 26.512H1.096ZM5.66054 7.72691C8.6191 3.60285 12.8833 1.52 18.6 1.52V-0.480002C12.3167 -0.480002 7.4129 1.85314 4.03546 6.56109L5.66054 7.72691ZM18.6 1.52C24.3679 1.52 28.6271 3.60481 31.5353 7.72103L33.1687 6.56697C29.8369 1.85119 24.9281 -0.480002 18.6 -0.480002V1.52ZM31.5395 7.72691C34.5349 11.9023 36.104 18.093 36.104 26.44H38.104C38.104 17.891 36.5051 11.2177 33.1645 6.56109L31.5395 7.72691ZM36.104 26.44C36.104 34.7837 34.5362 41.0555 31.5307 45.3814L33.1733 46.5226C36.5039 41.7285 38.104 34.9923 38.104 26.44H36.104ZM31.5336 45.3774C28.5714 49.5963 24.3079 51.72 18.6 51.72V53.72C24.8921 53.72 29.7966 51.3317 33.1704 46.5266L31.5336 45.3774ZM18.6 46.16C20.3886 46.16 21.9933 45.7505 23.3749 44.8939C24.7551 44.0382 25.8532 42.7732 26.6886 41.1546L24.9114 40.2374C24.2108 41.5948 23.3409 42.5618 22.3211 43.1941C21.3027 43.8255 20.0754 44.16 18.6 44.16V46.16ZM26.6858 41.16C28.3858 37.9147 29.176 32.9611 29.176 26.44H27.176C27.176 32.8789 26.3822 37.4293 24.9142 40.232L26.6858 41.16ZM29.176 26.44C29.176 19.9719 28.3875 15.1015 26.6762 11.9901L24.9238 12.9539C26.3805 15.6025 27.176 20.044 27.176 26.44H29.176ZM26.6855 12.0074C25.8484 10.4116 24.7487 9.16607 23.3688 8.3243C21.9881 7.48208 20.3857 7.08 18.6 7.08V9.08C20.0783 9.08 21.3079 9.40991 22.3272 10.0317C23.3473 10.6539 24.2156 11.6044 24.9145 12.9365L26.6855 12.0074ZM18.6 7.08C16.8353 7.08 15.2456 7.48347 13.8672 8.3243C12.4907 9.16401 11.381 10.4055 10.5205 11.9962L12.2795 12.9478C13.003 11.6105 13.8853 10.656 14.9088 10.0317C15.9304 9.40853 17.1487 9.08 18.6 9.08V7.08ZM10.5238 11.9901C8.8125 15.1015 8.024 19.9719 8.024 26.44H10.024C10.024 20.044 10.8195 15.6025 12.2762 12.9539L10.5238 11.9901ZM8.024 26.44C8.024 32.9611 8.81423 37.9147 10.5142 41.16L12.2858 40.232C10.8178 37.4293 10.024 32.8789 10.024 26.44H8.024ZM10.5173 41.1658C11.3761 42.7794 12.4843 44.0403 13.8611 44.8939C15.2404 45.7491 16.8323 46.16 18.6 46.16V44.16C17.1517 44.16 15.9356 43.8269 14.9149 43.1941C13.8917 42.5597 13.0079 41.5886 12.2827 40.2262L10.5173 41.1658ZM45.9319 52H44.9319V53H45.9319V52ZM45.9319 45.16L45.2026 44.4758L44.9319 44.7643V45.16H45.9319ZM62.3479 27.664L63.0772 28.3483L63.0838 28.3411L62.3479 27.664ZM67.0999 21.328L67.9848 21.7938L67.9897 21.7843L67.0999 21.328ZM46.9399 13.48L46.0272 13.8888L46.5848 15.1336L47.6042 14.2274L46.9399 13.48ZM43.8439 6.568L43.173 5.82646L42.6343 6.31383L42.9312 6.97678L43.8439 6.568ZM51.4039 2.176L51.0609 1.23664L51.4039 2.176ZM73.2919 4.192L72.6442 4.95396L72.6505 4.95919L73.2919 4.192ZM75.4519 23.56L74.5666 23.0948L74.5605 23.1068L75.4519 23.56ZM68.6119 32.704L69.3344 33.3953L69.3347 33.395L68.6119 32.704ZM57.4519 44.368L56.7293 43.6767L55.1111 45.368H57.4519V44.368ZM79.6279 44.368H80.6279V43.368H79.6279V44.368ZM79.6279 52V53H80.6279V52H79.6279ZM46.9319 52V45.16H44.9319V52H46.9319ZM46.6611 45.8442L63.0771 28.3482L61.6186 26.9798L45.2026 44.4758L46.6611 45.8442ZM63.0838 28.3411C65.3206 25.9097 66.9682 23.7254 67.9848 21.7937L66.215 20.8623C65.3116 22.5786 63.7911 24.6183 61.6119 26.9869L63.0838 28.3411ZM67.9897 21.7843C69.015 19.7849 69.5399 17.7335 69.5399 15.64H67.5399C67.5399 17.3865 67.1047 19.1271 66.2101 20.8717L67.9897 21.7843ZM69.5399 15.64C69.5399 12.9835 68.73 10.8266 66.9642 9.36224C65.2343 7.92764 62.7492 7.296 59.6839 7.296V9.296C62.5226 9.296 64.4655 9.88836 65.6875 10.9018C66.8737 11.8854 67.5399 13.4005 67.5399 15.64H69.5399ZM59.6839 7.296C54.7991 7.296 50.3213 9.13634 46.2755 12.7326L47.6042 14.2274C51.3345 10.9116 55.3526 9.296 59.6839 9.296V7.296ZM47.8525 13.0712L44.7565 6.15921L42.9312 6.97678L46.0272 13.8888L47.8525 13.0712ZM44.5148 7.30953C46.4194 5.58635 48.822 4.18315 51.7468 3.11536L51.0609 1.23664C47.9378 2.37685 45.3004 3.90165 43.173 5.82646L44.5148 7.30953ZM51.7468 3.11536C54.6594 2.05204 57.6872 1.52 60.8359 1.52V-0.480002C57.4566 -0.480002 54.1964 0.091958 51.0609 1.23664L51.7468 3.11536ZM60.8359 1.52C66.124 1.52 70.0096 2.71452 72.6442 4.95394L73.9395 3.43006C70.8141 0.773474 66.3958 -0.480002 60.8359 -0.480002V1.52ZM72.6505 4.95919C75.3065 7.17979 76.6839 10.3765 76.6839 14.704H78.6839C78.6839 9.91149 77.1333 6.1002 73.9333 3.42481L72.6505 4.95919ZM76.6839 14.704C76.6839 17.6071 75.9825 20.4002 74.5666 23.0949L76.3371 24.0251C77.8973 21.0558 78.6839 17.9448 78.6839 14.704H76.6839ZM74.5605 23.1068C73.179 25.8236 70.9675 28.7925 67.889 32.013L69.3347 33.395C72.4963 30.0875 74.8447 26.9604 76.3433 24.0132L74.5605 23.1068ZM67.8893 32.0127L56.7293 43.6767L58.1744 45.0593L69.3344 33.3953L67.8893 32.0127ZM57.4519 45.368H79.6279V43.368H57.4519V45.368ZM78.6279 44.368V52H80.6279V44.368H78.6279ZM79.6279 51H45.9319V53H79.6279V51Z" fill="url(#paint0_linear_104_1434)"/>
<defs>
<linearGradient id="paint0_linear_104_1434" x1="78.3611" y1="60.1" x2="-17.0768" y2="18.3294" gradientUnits="userSpaceOnUse">
<stop stop-color="#2565D0"/>
<stop offset="0.44" stop-color="#2769B3"/>
<stop offset="0.9" stop-color="#3CC9CD"/>
<stop offset="1" stop-color="#42E8E0"/>
</linearGradient>
</defs>
</svg>
