<svg width="80" height="53" viewBox="0 0 80 53" fill="none" xmlns="http://www.w3.org/2000/svg">
<path d="M4.848 45.952L4.02673 46.5226L4.02959 46.5266L4.848 45.952ZM4.848 7.144L4.03546 6.56109L4.848 7.144ZM32.352 7.144L31.5353 7.72104L31.5395 7.72691L32.352 7.144ZM32.352 45.952L33.1704 46.5266L33.1733 46.5226L32.352 45.952ZM25.8 40.696L24.9142 40.232L24.9114 40.2374L25.8 40.696ZM25.8 12.472L24.9145 12.9365L24.919 12.9453L24.9238 12.9539L25.8 12.472ZM11.4 12.472L12.2762 12.9539L12.2795 12.9478L11.4 12.472ZM11.4 40.696L10.5141 41.16L10.5173 41.1658L11.4 40.696ZM18.6 51.72C12.8921 51.72 8.62862 49.5963 5.66641 45.3774L4.02959 46.5266C7.40338 51.3317 12.3079 53.72 18.6 53.72V51.72ZM5.66926 45.3814C2.66331 41.0547 1.096 34.8063 1.096 26.512H-0.904C-0.904 35.0177 0.696689 41.7293 4.02674 46.5226L5.66926 45.3814ZM1.096 26.512C1.096 18.1156 2.66567 11.9016 5.66054 7.72691L4.03546 6.56109C0.694326 11.2184 -0.904 17.9164 -0.904 26.512H1.096ZM5.66054 7.72691C8.6191 3.60285 12.8833 1.52 18.6 1.52V-0.480002C12.3167 -0.480002 7.4129 1.85314 4.03546 6.56109L5.66054 7.72691ZM18.6 1.52C24.3679 1.52 28.6271 3.60481 31.5353 7.72103L33.1687 6.56697C29.8369 1.85119 24.9281 -0.480002 18.6 -0.480002V1.52ZM31.5395 7.72691C34.5349 11.9023 36.104 18.093 36.104 26.44H38.104C38.104 17.891 36.5051 11.2177 33.1645 6.56109L31.5395 7.72691ZM36.104 26.44C36.104 34.7837 34.5362 41.0555 31.5307 45.3814L33.1733 46.5226C36.5039 41.7285 38.104 34.9923 38.104 26.44H36.104ZM31.5336 45.3774C28.5714 49.5963 24.3079 51.72 18.6 51.72V53.72C24.8921 53.72 29.7966 51.3317 33.1704 46.5266L31.5336 45.3774ZM18.6 46.16C20.3886 46.16 21.9933 45.7505 23.3749 44.8939C24.7551 44.0382 25.8532 42.7732 26.6886 41.1546L24.9114 40.2374C24.2108 41.5948 23.3409 42.5618 22.3211 43.1941C21.3027 43.8255 20.0754 44.16 18.6 44.16V46.16ZM26.6858 41.16C28.3858 37.9147 29.176 32.9611 29.176 26.44H27.176C27.176 32.8789 26.3822 37.4293 24.9142 40.232L26.6858 41.16ZM29.176 26.44C29.176 19.9719 28.3875 15.1015 26.6762 11.9901L24.9238 12.9539C26.3805 15.6025 27.176 20.044 27.176 26.44H29.176ZM26.6855 12.0074C25.8484 10.4116 24.7487 9.16607 23.3688 8.3243C21.9881 7.48208 20.3857 7.08 18.6 7.08V9.08C20.0783 9.08 21.3079 9.40991 22.3272 10.0317C23.3473 10.6539 24.2156 11.6044 24.9145 12.9365L26.6855 12.0074ZM18.6 7.08C16.8353 7.08 15.2456 7.48347 13.8672 8.3243C12.4907 9.16401 11.381 10.4055 10.5205 11.9962L12.2795 12.9478C13.003 11.6105 13.8853 10.656 14.9088 10.0317C15.9304 9.40853 17.1487 9.08 18.6 9.08V7.08ZM10.5238 11.9901C8.8125 15.1015 8.024 19.9719 8.024 26.44H10.024C10.024 20.044 10.8195 15.6025 12.2762 12.9539L10.5238 11.9901ZM8.024 26.44C8.024 32.9611 8.81423 37.9147 10.5142 41.16L12.2858 40.232C10.8178 37.4293 10.024 32.8789 10.024 26.44H8.024ZM10.5173 41.1658C11.3761 42.7794 12.4843 44.0403 13.8611 44.8939C15.2404 45.7491 16.8323 46.16 18.6 46.16V44.16C17.1517 44.16 15.9356 43.8269 14.9149 43.1941C13.8917 42.5597 13.0079 41.5886 12.2827 40.2262L10.5173 41.1658ZM50.8279 51.208L50.5073 52.1552L50.5159 52.1581L50.5247 52.1609L50.8279 51.208ZM43.0519 46.96L42.1327 46.5661L41.844 47.2399L42.3996 47.718L43.0519 46.96ZM46.0759 39.904L46.6898 39.1146L45.6671 38.3192L45.1567 39.5101L46.0759 39.904ZM67.7479 31.984L67.144 32.7811L67.1574 32.7913L67.1712 32.801L67.7479 31.984ZM52.6279 30.184H51.6279V31.184H52.6279V30.184ZM52.6279 22.552V21.552H51.6279V22.552H52.6279ZM66.3079 20.608L66.9411 21.382L66.948 21.3763L66.9548 21.3705L66.3079 20.608ZM66.4519 10.024L65.8272 10.8049L65.8334 10.8098L65.8397 10.8147L66.4519 10.024ZM46.9399 13.48L46.0237 13.8808L46.5827 15.1585L47.6135 14.2191L46.9399 13.48ZM43.9159 6.568L43.2262 5.84386L42.7189 6.327L42.9997 6.96882L43.9159 6.568ZM51.4759 2.104L51.1462 1.15991L51.4759 2.104ZM73.2199 4.12L72.5859 4.89343L72.5936 4.89962L73.2199 4.12ZM75.5239 21.184L74.6948 20.6249L75.5239 21.184ZM69.8359 25.648L69.4807 24.7132L66.6358 25.7943L69.5674 26.6113L69.8359 25.648ZM76.6759 30.184L75.8717 30.7784L75.878 30.7868L76.6759 30.184ZM74.2279 48.832L74.8498 49.6151L74.8567 49.6095L74.2279 48.832ZM60.7639 51.72C57.4067 51.72 54.1972 51.2307 51.1311 50.2551L50.5247 52.1609C53.7946 53.2013 57.2091 53.72 60.7639 53.72V51.72ZM51.1485 50.2608C48.1253 49.2375 45.6526 47.8786 43.7041 46.202L42.3996 47.718C44.5791 49.5934 47.2905 51.0665 50.5073 52.1552L51.1485 50.2608ZM43.971 47.3539L46.995 40.2979L45.1567 39.5101L42.1327 46.5661L43.971 47.3539ZM45.4619 40.6934C49.9506 44.1845 54.9649 45.944 60.4759 45.944V43.944C55.4268 43.944 50.8412 42.3435 46.6898 39.1146L45.4619 40.6934ZM60.4759 45.944C63.8195 45.944 66.5116 45.2923 68.3834 43.8225C70.3013 42.3166 71.1959 40.0833 71.1959 37.312H69.1959C69.1959 39.6287 68.4704 41.2114 67.1483 42.2495C65.7802 43.3237 63.6123 43.944 60.4759 43.944V45.944ZM71.1959 37.312C71.1959 34.6614 70.2775 32.5455 68.3246 31.167L67.1712 32.801C68.4823 33.7265 69.1959 35.1626 69.1959 37.312H71.1959ZM68.3517 31.1869C66.522 29.8008 63.942 29.184 60.7639 29.184V31.184C63.7298 31.184 65.8057 31.7673 67.144 32.7811L68.3517 31.1869ZM60.7639 29.184H52.6279V31.184H60.7639V29.184ZM53.6279 30.184V22.552H51.6279V30.184H53.6279ZM52.6279 23.552H59.8999V21.552H52.6279V23.552ZM59.8999 23.552C62.7457 23.552 65.1291 22.8645 66.9411 21.382L65.6746 19.834C64.3186 20.9435 62.43 21.552 59.8999 21.552V23.552ZM66.9548 21.3705C68.7939 19.8101 69.6839 17.6662 69.6839 15.064H67.6839C67.6839 17.1658 66.9898 18.7179 65.6609 19.8455L66.9548 21.3705ZM69.6839 15.064C69.6839 12.607 68.8408 10.6088 67.064 9.23328L65.8397 10.8147C67.039 11.7432 67.6839 13.105 67.6839 15.064H69.6839ZM67.0766 9.24313C65.3888 7.89292 63.0164 7.296 60.1159 7.296V9.296C62.7834 9.296 64.6349 9.85108 65.8272 10.8049L67.0766 9.24313ZM60.1159 7.296C54.8671 7.296 50.2368 9.12218 46.2663 12.7409L47.6135 14.2191C51.2269 10.9258 55.3806 9.296 60.1159 9.296V7.296ZM47.856 13.0792L44.832 6.16718L42.9997 6.96882L46.0237 13.8808L47.856 13.0792ZM44.6055 7.29214C46.5042 5.48393 48.8957 4.06423 51.8056 3.04809L51.1462 1.15991C48.0081 2.25576 45.3596 3.81207 43.2262 5.84386L44.6055 7.29214ZM51.8056 3.04809C54.7215 2.02981 57.754 1.52 60.9079 1.52V-0.480002C57.5338 -0.480002 54.2782 0.0661898 51.1462 1.15991L51.8056 3.04809ZM60.9079 1.52C66.0469 1.52 69.8958 2.68836 72.5859 4.89339L73.8538 3.34661C70.6879 0.751632 66.3289 -0.480002 60.9079 -0.480002V1.52ZM72.5936 4.89962C75.2539 7.03653 76.6119 10.0203 76.6119 13.984H78.6119C78.6119 9.49972 77.0419 5.90746 73.8461 3.34038L72.5936 4.89962ZM76.6119 13.984C76.6119 16.5413 75.9644 18.7423 74.6948 20.6249L76.353 21.7431C77.8673 19.4977 78.6119 16.8987 78.6119 13.984H76.6119ZM74.6948 20.6249C73.422 22.5121 71.6942 23.8721 69.4807 24.7132L70.1911 26.5828C72.7776 25.5999 74.8418 23.9839 76.353 21.7431L74.6948 20.6249ZM69.5674 26.6113C72.3051 27.3742 74.3864 28.7689 75.8717 30.7784L77.4801 29.5896C75.7013 27.1831 73.2227 25.5538 70.1043 24.6847L69.5674 26.6113ZM75.878 30.7868C77.3594 32.7475 78.1239 35.167 78.1239 38.104H80.1239C80.1239 34.801 79.2563 31.9405 77.4737 29.5812L75.878 30.7868ZM78.1239 38.104C78.1239 42.34 76.6089 45.62 73.599 48.0545L74.8567 49.6095C78.3749 46.764 80.1239 42.892 80.1239 38.104H78.1239ZM73.606 48.0489C70.5743 50.4564 66.3329 51.72 60.7639 51.72V53.72C66.6189 53.72 71.3534 52.3916 74.8498 49.6151L73.606 48.0489Z" fill="url(#paint0_linear_105_1439)"/>
<defs>
<linearGradient id="paint0_linear_105_1439" x1="78.3611" y1="60.1" x2="-17.0768" y2="18.3294" gradientUnits="userSpaceOnUse">
<stop stop-color="#2565D0"/>
<stop offset="0.44" stop-color="#2769B3"/>
<stop offset="0.9" stop-color="#3CC9CD"/>
<stop offset="1" stop-color="#42E8E0"/>
</linearGradient>
</defs>
</svg>
