<svg width="82" height="53" viewBox="0 0 82 53" fill="none" xmlns="http://www.w3.org/2000/svg">
<path d="M4.848 45.952L4.02673 46.5226L4.02959 46.5266L4.848 45.952ZM4.848 7.144L4.03546 6.56109L4.848 7.144ZM32.352 7.144L31.5353 7.72104L31.5395 7.72691L32.352 7.144ZM32.352 45.952L33.1704 46.5266L33.1733 46.5226L32.352 45.952ZM25.8 40.696L24.9142 40.232L24.9114 40.2374L25.8 40.696ZM25.8 12.472L24.9145 12.9365L24.919 12.9453L24.9238 12.9539L25.8 12.472ZM11.4 12.472L12.2762 12.9539L12.2795 12.9478L11.4 12.472ZM11.4 40.696L10.5141 41.16L10.5173 41.1658L11.4 40.696ZM18.6 51.72C12.8921 51.72 8.62862 49.5963 5.66641 45.3774L4.02959 46.5266C7.40338 51.3317 12.3079 53.72 18.6 53.72V51.72ZM5.66926 45.3814C2.66331 41.0547 1.096 34.8063 1.096 26.512H-0.904C-0.904 35.0177 0.696689 41.7293 4.02674 46.5226L5.66926 45.3814ZM1.096 26.512C1.096 18.1156 2.66567 11.9016 5.66054 7.72691L4.03546 6.56109C0.694326 11.2184 -0.904 17.9164 -0.904 26.512H1.096ZM5.66054 7.72691C8.6191 3.60285 12.8833 1.52 18.6 1.52V-0.480002C12.3167 -0.480002 7.4129 1.85314 4.03546 6.56109L5.66054 7.72691ZM18.6 1.52C24.3679 1.52 28.6271 3.60481 31.5353 7.72103L33.1687 6.56697C29.8369 1.85119 24.9281 -0.480002 18.6 -0.480002V1.52ZM31.5395 7.72691C34.5349 11.9023 36.104 18.093 36.104 26.44H38.104C38.104 17.891 36.5051 11.2177 33.1645 6.56109L31.5395 7.72691ZM36.104 26.44C36.104 34.7837 34.5362 41.0555 31.5307 45.3814L33.1733 46.5226C36.5039 41.7285 38.104 34.9923 38.104 26.44H36.104ZM31.5336 45.3774C28.5714 49.5963 24.3079 51.72 18.6 51.72V53.72C24.8921 53.72 29.7966 51.3317 33.1704 46.5266L31.5336 45.3774ZM18.6 46.16C20.3886 46.16 21.9933 45.7505 23.3749 44.8939C24.7551 44.0382 25.8532 42.7732 26.6886 41.1546L24.9114 40.2374C24.2108 41.5948 23.3409 42.5618 22.3211 43.1941C21.3027 43.8255 20.0754 44.16 18.6 44.16V46.16ZM26.6858 41.16C28.3858 37.9147 29.176 32.9611 29.176 26.44H27.176C27.176 32.8789 26.3822 37.4293 24.9142 40.232L26.6858 41.16ZM29.176 26.44C29.176 19.9719 28.3875 15.1015 26.6762 11.9901L24.9238 12.9539C26.3805 15.6025 27.176 20.044 27.176 26.44H29.176ZM26.6855 12.0074C25.8484 10.4116 24.7487 9.16607 23.3688 8.3243C21.9881 7.48208 20.3857 7.08 18.6 7.08V9.08C20.0783 9.08 21.3079 9.40991 22.3272 10.0317C23.3473 10.6539 24.2156 11.6044 24.9145 12.9365L26.6855 12.0074ZM18.6 7.08C16.8353 7.08 15.2456 7.48347 13.8672 8.3243C12.4907 9.16401 11.381 10.4055 10.5205 11.9962L12.2795 12.9478C13.003 11.6105 13.8853 10.656 14.9088 10.0317C15.9304 9.40853 17.1487 9.08 18.6 9.08V7.08ZM10.5238 11.9901C8.8125 15.1015 8.024 19.9719 8.024 26.44H10.024C10.024 20.044 10.8195 15.6025 12.2762 12.9539L10.5238 11.9901ZM8.024 26.44C8.024 32.9611 8.81423 37.9147 10.5142 41.16L12.2858 40.232C10.8178 37.4293 10.024 32.8789 10.024 26.44H8.024ZM10.5173 41.1658C11.3761 42.7794 12.4843 44.0403 13.8611 44.8939C15.2404 45.7491 16.8323 46.16 18.6 46.16V44.16C17.1517 44.16 15.9356 43.8269 14.9149 43.1941C13.8917 42.5597 13.0079 41.5886 12.2827 40.2262L10.5173 41.1658ZM65.2999 52H64.2999V53H65.2999V52ZM65.2999 42.352H66.2999V41.352H65.2999V42.352ZM43.1959 42.352H42.1959V43.352H43.1959V42.352ZM43.1959 35.584L42.3727 35.0162L42.1959 35.2726V35.584H43.1959ZM66.8839 1.24V0.239997H66.3588L66.0607 0.672224L66.8839 1.24ZM74.5159 1.24H75.5159V0.239997H74.5159V1.24ZM74.5159 34.72H73.5159V35.72H74.5159V34.72ZM81.6439 34.72H82.6439V33.72H81.6439V34.72ZM81.6439 42.352V43.352H82.6439V42.352H81.6439ZM74.5159 42.352V41.352H73.5159V42.352H74.5159ZM74.5159 52V53H75.5159V52H74.5159ZM65.2999 34.72V35.72H66.2999V34.72H65.2999ZM65.2999 15.352H66.2999V12.1188L64.4745 14.7874L65.2999 15.352ZM52.0519 34.72L51.2265 34.1554L50.1563 35.72H52.0519V34.72ZM66.2999 52V42.352H64.2999V52H66.2999ZM65.2999 41.352H43.1959V43.352H65.2999V41.352ZM44.1959 42.352V35.584H42.1959V42.352H44.1959ZM44.0191 36.1518L67.7071 1.80777L66.0607 0.672224L42.3727 35.0162L44.0191 36.1518ZM66.8839 2.24H74.5159V0.239997H66.8839V2.24ZM73.5159 1.24V34.72H75.5159V1.24H73.5159ZM74.5159 35.72H81.6439V33.72H74.5159V35.72ZM80.6439 34.72V42.352H82.6439V34.72H80.6439ZM81.6439 41.352H74.5159V43.352H81.6439V41.352ZM73.5159 42.352V52H75.5159V42.352H73.5159ZM74.5159 51H65.2999V53H74.5159V51ZM66.2999 34.72V15.352H64.2999V34.72H66.2999ZM64.4745 14.7874L51.2265 34.1554L52.8773 35.2846L66.1253 15.9166L64.4745 14.7874ZM52.0519 35.72H65.2999V33.72H52.0519V35.72Z" fill="url(#paint0_linear_20_49)"/>
<defs>
<linearGradient id="paint0_linear_20_49" x1="78.3611" y1="60.1" x2="-17.0768" y2="18.3294" gradientUnits="userSpaceOnUse">
<stop stop-color="#2565D0"/>
<stop offset="0.44" stop-color="#2769B3"/>
<stop offset="0.9" stop-color="#3CC9CD"/>
<stop offset="1" stop-color="#42E8E0"/>
</linearGradient>
</defs>
</svg>
