<svg width="156" height="118" viewBox="0 0 156 118" fill="none" xmlns="http://www.w3.org/2000/svg">
<path d="M56.3176 3.51978L102.076 28.159V84.4772L56.3176 109.116L10.5591 84.4772V28.159L56.3176 3.51978Z" fill="#C6DBFF"/>
<path d="M102.076 28.1592L56.3176 52.7984V109.117L102.076 84.4774V28.1592Z" fill="#2565D0"/>
<path d="M56.3174 109.117L10.5589 84.4774V28.1592L56.3174 52.7984V109.117Z" fill="#6890D4"/>
<path d="M119.788 45.2559L150.294 61.682V99.2275L119.788 115.654L89.2826 99.2275V61.682L119.788 45.2559Z" fill="#C6DBFF"/>
<path d="M141.055 61.6819L119.789 49.949L98.6694 61.6819L119.789 73.4149L141.055 61.6819Z" fill="#8DD6CB"/>
<path d="M150.294 61.6819L119.788 78.108V115.653L150.294 99.2273V61.6819Z" fill="#2565D0"/>
<path d="M141.055 61.6819L119.789 49.949V73.4149L141.055 61.6819Z" fill="#1DB29B"/>
<path d="M145.895 96.5873V69.0149L124.189 80.7478V108.32L145.895 96.5873Z" fill="#BBE6DF"/>
<path d="M145.895 96.5873L124.189 84.8544V80.7478L145.895 69.0149V96.5873Z" fill="#1DB29B"/>
<path d="M89.2824 61.6819L119.788 78.108V115.653L89.2824 99.2273V61.6819Z" fill="#6890D4"/>
<path d="M93.6827 96.5873V69.0149L115.389 80.7478V108.32L93.6827 96.5873Z" fill="#BBE6DF"/>
<path d="M93.6827 96.5873L115.389 84.8544V80.7478L93.6827 69.0149V96.5873Z" fill="#8DD6CB"/>
</svg>
