<svg width="156" height="118" viewBox="0 0 156 118" fill="none" xmlns="http://www.w3.org/2000/svg">
<path d="M99.0154 3.51978L53.2568 28.159V84.4772L99.0154 109.116L144.774 84.4772V28.159L99.0154 3.51978Z" fill="#C6DBFF"/>
<path d="M53.2568 28.1592L99.0154 52.7984V109.117L53.2568 84.4774V28.1592Z" fill="#2565D0"/>
<path d="M99.0156 109.117L144.774 84.4774V28.1592L99.0156 52.7984V109.117Z" fill="#6890D4"/>
<path d="M35.3165 45.3633L4.99707 61.6891V99.0053L35.3165 115.331L65.6359 99.0053V61.6891L35.3165 45.3633Z" fill="#C6DBFF"/>
<path d="M35.3154 115.332L65.6348 99.0057V61.6895L35.3154 78.0153V115.332Z" fill="#6890D4"/>
<path d="M4.99707 61.6895L35.3165 78.0153V115.332L4.99707 99.0057V61.6895Z" fill="#2565D0"/>
<path d="M9.37012 96.3819V68.9778L30.9436 80.6391V108.043L9.37012 96.3819Z" fill="#BBE6DF"/>
<path d="M9.37012 96.3819L30.9436 84.7206V80.6391L9.37012 68.9778V96.3819Z" fill="#1DB29B"/>
</svg>
