<svg width="63" height="57" viewBox="0 0 63 57" fill="none" xmlns="http://www.w3.org/2000/svg">
<path d="M61.6373 -39.0852L39.4654 -51.179C39.0119 -51.4309 38.4576 -51.4309 38.0293 -51.179L32.184 -48.0043V-53.8749C32.184 -54.4292 31.8816 -54.9331 31.4029 -55.2102L9.23105 -67.304C8.77754 -67.5559 8.22324 -67.5559 7.79492 -67.304L-14.377 -55.2102C-14.8557 -54.9331 -15.158 -54.4292 -15.158 -53.8749V-48.0043L-20.9781 -51.179C-21.4316 -51.4309 -21.9859 -51.4309 -22.4143 -51.179L-44.5861 -39.0852C-45.0648 -38.8081 -45.3672 -38.3041 -45.3672 -37.7499V26.7501C-45.3672 27.3044 -45.0648 27.8083 -44.5861 28.0855L-22.4143 40.1792C-21.9607 40.4312 -21.4064 40.4312 -20.9781 40.1792L-15.158 37.0046V42.8751C-15.158 43.4294 -14.8557 43.9333 -14.377 44.2105L7.79492 56.3042C8.24844 56.5562 8.80273 56.5562 9.23105 56.3042L31.4029 44.2105C31.8816 43.9333 32.184 43.4294 32.184 42.8751V36.9794L38.0041 40.1541C38.4576 40.406 39.0119 40.406 39.4402 40.1541L61.6121 28.0603C62.0908 27.7832 62.3932 27.2792 62.3932 26.7249V-37.7499C62.4184 -38.3041 62.116 -38.8081 61.6373 -39.0852ZM38.7348 -48.1303L57.7572 -37.7499L38.7348 -27.3694L19.7123 -37.7499L38.7348 -48.1303ZM32.184 -21.6249C32.184 -22.1791 31.8816 -22.6831 31.4029 -22.9602L18.0746 -30.2165V-35.2051L37.223 -24.7743V36.274L32.184 33.5529V-21.6249ZM8.50039 -11.2444L-10.5221 -21.6249L8.50039 -32.0053L27.5228 -21.6249L8.50039 -11.2444ZM1.94961 -37.7499C1.94961 -38.3041 1.64726 -38.8081 1.16855 -39.0852L-12.1598 -46.3415V-51.3301L6.98867 -40.8993V-34.6256L1.94961 -31.8793V-37.7499ZM29.1605 -46.3415L15.8322 -39.0852C15.3535 -38.8081 15.0512 -38.3041 15.0512 -37.7499V-31.8542L10.0121 -34.6004V-40.8741L29.1605 -51.3049V-46.3415ZM8.50039 -64.2553L27.5228 -53.8749L8.50039 -43.4944L-10.5221 -53.8749L8.50039 -64.2553ZM-21.734 -48.1303L-2.71152 -37.7499L-21.734 -27.3694L-40.7564 -37.7499L-21.734 -48.1303ZM-42.3941 -35.2051L-23.2457 -24.7743V36.274L-42.3941 25.8179V-35.2051ZM-20.2223 36.2992V-24.7491L-1.07383 -35.1799V-30.1913L-14.4021 -22.935C-14.8809 -22.6579 -15.1832 -22.154 -15.1832 -21.5997V33.5781L-20.2223 36.2992ZM-12.1598 -19.0801L6.98867 -8.64927V52.399L-12.1598 41.9429V-19.0801ZM29.1605 41.9681L10.0121 52.4242V-8.62407L29.1605 -19.0549V41.9681ZM40.2465 36.2992V-24.7491L59.3949 -35.1799V25.8683L40.2465 36.2992Z" fill="url(#paint0_linear_152_2245)"/>
<defs>
<linearGradient id="paint0_linear_152_2245" x1="-34.5141" y1="-53.1469" x2="54.3514" y2="11.9055" gradientUnits="userSpaceOnUse">
<stop stop-color="#00F0FF"/>
<stop offset="1" stop-color="#0057E8"/>
</linearGradient>
</defs>
</svg>
