<svg width="134" height="155" viewBox="0 0 134 155" fill="none" xmlns="http://www.w3.org/2000/svg">
<path d="M132.036 -21.9636L91.1301 -44.2761C90.2934 -44.741 89.2707 -44.741 88.4805 -44.2761L77.6961 -38.4191V-49.25C77.6961 -50.2726 77.1383 -51.2023 76.2551 -51.7136L35.3488 -74.0261C34.5121 -74.491 33.4895 -74.491 32.6992 -74.0261L-8.20703 -51.7136C-9.09023 -51.2023 -9.64804 -50.2726 -9.64804 -49.25V-38.4191L-20.3859 -44.2761C-21.2227 -44.741 -22.2453 -44.741 -23.0355 -44.2761L-63.9418 -21.9636C-64.825 -21.4523 -65.3828 -20.5226 -65.3828 -19.5V99.5C-65.3828 100.523 -64.825 101.452 -63.9418 101.964L-23.0355 124.276C-22.1988 124.741 -21.1762 124.741 -20.3859 124.276L-9.64804 118.419V129.25C-9.64804 130.273 -9.09023 131.202 -8.20703 131.714L32.6992 154.026C33.5359 154.491 34.5586 154.491 35.3488 154.026L76.2551 131.714C77.1383 131.202 77.6961 130.273 77.6961 129.25V118.373L88.434 124.23C89.2707 124.695 90.2934 124.695 91.0836 124.23L131.99 101.917C132.873 101.406 133.431 100.476 133.431 99.4536V-19.5C133.477 -20.5226 132.92 -21.4523 132.036 -21.9636ZM89.782 -38.6515L124.878 -19.5L89.782 -0.348396L54.6863 -19.5L89.782 -38.6515ZM77.6961 10.25C77.6961 9.22739 77.1383 8.2977 76.2551 7.78637L51.6648 -5.60113V-14.805L86.993 4.4395V117.071L77.6961 112.051V10.25ZM34.0008 29.4016L-1.09492 10.25L34.0008 -8.90151L69.0965 10.25L34.0008 29.4016ZM21.9148 -19.5C21.9148 -20.5226 21.357 -21.4523 20.4738 -21.9636L-4.11641 -35.3511V-44.555L31.2117 -25.3105V-13.7359L21.9148 -8.66909V-19.5ZM72.118 -35.3511L47.5277 -21.9636C46.6445 -21.4523 46.0867 -20.5226 46.0867 -19.5V-8.62261L36.7898 -13.6894V-25.264L72.118 -44.5085V-35.3511ZM34.0008 -68.4015L69.0965 -49.25L34.0008 -30.0984L-1.09492 -49.25L34.0008 -68.4015ZM-21.7805 -38.6515L13.3152 -19.5L-21.7805 -0.348396L-56.8762 -19.5L-21.7805 -38.6515ZM-59.8977 -14.805L-24.5695 4.4395V117.071L-59.8977 97.7801V-14.805ZM-18.9914 117.118V4.48598L16.3367 -14.7585V-5.55464L-8.25351 7.83286C-9.13671 8.34418 -9.69453 9.27387 -9.69453 10.2965V112.097L-18.9914 117.118ZM-4.11641 14.945L31.2117 34.1895V146.821L-4.11641 127.53V14.945ZM72.118 127.577L36.7898 146.868V34.236L72.118 14.9914V127.577ZM92.5711 117.118V4.48598L127.899 -14.7585V97.8731L92.5711 117.118Z" fill="url(#paint0_linear_152_2217)"/>
<defs>
<linearGradient id="paint0_linear_152_2217" x1="-45.3592" y1="-47.907" x2="118.594" y2="72.1122" gradientUnits="userSpaceOnUse">
<stop stop-color="#00F0FF"/>
<stop offset="1" stop-color="#0057E8"/>
</linearGradient>
</defs>
</svg>
