<svg width="195" height="155" viewBox="0 0 195 155" fill="none" xmlns="http://www.w3.org/2000/svg">
<path d="M193.036 -21.9636L152.13 -44.2761C151.293 -44.741 150.271 -44.741 149.48 -44.2761L138.696 -38.4191V-49.25C138.696 -50.2726 138.138 -51.2023 137.255 -51.7136L96.3488 -74.0261C95.5121 -74.491 94.4895 -74.491 93.6992 -74.0261L52.793 -51.7136C51.9098 -51.2023 51.352 -50.2726 51.352 -49.25V-38.4191L40.6141 -44.2761C39.7773 -44.741 38.7547 -44.741 37.9645 -44.2761L-2.9418 -21.9636C-3.825 -21.4523 -4.38281 -20.5226 -4.38281 -19.5V99.5C-4.38281 100.523 -3.825 101.452 -2.9418 101.964L37.9645 124.276C38.8012 124.741 39.8238 124.741 40.6141 124.276L51.352 118.419V129.25C51.352 130.273 51.9098 131.202 52.793 131.714L93.6992 154.026C94.5359 154.491 95.5586 154.491 96.3488 154.026L137.255 131.714C138.138 131.202 138.696 130.273 138.696 129.25V118.373L149.434 124.23C150.271 124.695 151.293 124.695 152.084 124.23L192.99 101.917C193.873 101.406 194.431 100.476 194.431 99.4536V-19.5C194.477 -20.5226 193.92 -21.4523 193.036 -21.9636ZM150.782 -38.6515L185.878 -19.5L150.782 -0.348396L115.686 -19.5L150.782 -38.6515ZM138.696 10.25C138.696 9.22739 138.138 8.2977 137.255 7.78637L112.665 -5.60113V-14.805L147.993 4.4395V117.071L138.696 112.051V10.25ZM95.0008 29.4016L59.9051 10.25L95.0008 -8.90151L130.096 10.25L95.0008 29.4016ZM82.9148 -19.5C82.9148 -20.5226 82.357 -21.4523 81.4738 -21.9636L56.8836 -35.3511V-44.555L92.2117 -25.3105V-13.7359L82.9148 -8.66909V-19.5ZM133.118 -35.3511L108.528 -21.9636C107.645 -21.4523 107.087 -20.5226 107.087 -19.5V-8.62261L97.7898 -13.6894V-25.264L133.118 -44.5085V-35.3511ZM95.0008 -68.4015L130.096 -49.25L95.0008 -30.0984L59.9051 -49.25L95.0008 -68.4015ZM39.2195 -38.6515L74.3152 -19.5L39.2195 -0.348396L4.12383 -19.5L39.2195 -38.6515ZM1.10234 -14.805L36.4305 4.4395V117.071L1.10234 97.7801V-14.805ZM42.0086 117.118V4.48598L77.3367 -14.7585V-5.55464L52.7465 7.83286C51.8633 8.34418 51.3055 9.27387 51.3055 10.2965V112.097L42.0086 117.118ZM56.8836 14.945L92.2117 34.1895V146.821L56.8836 127.53V14.945ZM133.118 127.577L97.7898 146.868V34.236L133.118 14.9914V127.577ZM153.571 117.118V4.48598L188.899 -14.7585V97.8731L153.571 117.118Z" fill="url(#paint0_linear_55_476)"/>
<defs>
<linearGradient id="paint0_linear_55_476" x1="15.6408" y1="-47.907" x2="179.594" y2="72.1122" gradientUnits="userSpaceOnUse">
<stop stop-color="#00F0FF"/>
<stop offset="1" stop-color="#0057E8"/>
</linearGradient>
</defs>
</svg>
