<svg width="194" height="156" viewBox="0 0 194 156" fill="none" xmlns="http://www.w3.org/2000/svg">
<path d="M198.036 53.0364L157.13 30.7239C156.293 30.259 155.271 30.259 154.48 30.7239L143.696 36.5809V25.75C143.696 24.7274 143.138 23.7977 142.255 23.2864L101.349 0.973877C100.512 0.509033 99.4895 0.509033 98.6992 0.973877L57.793 23.2864C56.9098 23.7977 56.352 24.7274 56.352 25.75V36.5809L45.6141 30.7239C44.7773 30.259 43.7547 30.259 42.9645 30.7239L2.0582 53.0364C1.175 53.5477 0.617188 54.4774 0.617188 55.5V174.5C0.617188 175.523 1.175 176.452 2.0582 176.964L42.9645 199.276C43.8012 199.741 44.8238 199.741 45.6141 199.276L56.352 193.419V204.25C56.352 205.273 56.9098 206.202 57.793 206.714L98.6992 229.026C99.5359 229.491 100.559 229.491 101.349 229.026L142.255 206.714C143.138 206.202 143.696 205.273 143.696 204.25V193.373L154.434 199.23C155.271 199.695 156.293 199.695 157.084 199.23L197.99 176.917C198.873 176.406 199.431 175.476 199.431 174.454V55.5C199.477 54.4774 198.92 53.5477 198.036 53.0364ZM155.782 36.3485L190.878 55.5L155.782 74.6516L120.686 55.5L155.782 36.3485ZM143.696 85.25C143.696 84.2274 143.138 83.2977 142.255 82.7864L117.665 69.3989V60.195L152.993 79.4395V192.071L143.696 187.051V85.25ZM100.001 104.402L64.9051 85.25L100.001 66.0985L135.096 85.25L100.001 104.402ZM87.9148 55.5C87.9148 54.4774 87.357 53.5477 86.4738 53.0364L61.8836 39.6489V30.445L97.2117 49.6895V61.2641L87.9148 66.3309V55.5ZM138.118 39.6489L113.528 53.0364C112.645 53.5477 112.087 54.4774 112.087 55.5V66.3774L102.79 61.3106V49.736L138.118 30.4915V39.6489ZM100.001 6.59849L135.096 25.75L100.001 44.9016L64.9051 25.75L100.001 6.59849ZM44.2195 36.3485L79.3152 55.5L44.2195 74.6516L9.12383 55.5L44.2195 36.3485ZM6.10234 60.195L41.4305 79.4395V192.071L6.10234 172.78V60.195ZM47.0086 192.118V79.486L82.3367 60.2415V69.4454L57.7465 82.8329C56.8633 83.3442 56.3055 84.2739 56.3055 85.2965V187.097L47.0086 192.118ZM61.8836 89.945L97.2117 109.189V221.821L61.8836 202.53V89.945ZM138.118 202.577L102.79 221.868V109.236L138.118 89.9914V202.577ZM158.571 192.118V79.486L193.899 60.2415V172.873L158.571 192.118Z" fill="url(#paint0_linear_55_474)"/>
<defs>
<linearGradient id="paint0_linear_55_474" x1="20.6408" y1="27.093" x2="184.594" y2="147.112" gradientUnits="userSpaceOnUse">
<stop stop-color="#00F0FF"/>
<stop offset="1" stop-color="#0057E8"/>
</linearGradient>
</defs>
</svg>
