<svg width="59" height="64" viewBox="0 0 59 64" fill="none" xmlns="http://www.w3.org/2000/svg">
<path d="M118.493 32.03L94.0867 18.7175C93.5875 18.4402 92.9773 18.4402 92.5059 18.7175L86.0715 22.2121V15.75C86.0715 15.1398 85.7387 14.5851 85.2117 14.28L60.8055 0.967529C60.3062 0.690186 59.6961 0.690186 59.2246 0.967529L34.8184 14.28C34.2914 14.5851 33.9586 15.1398 33.9586 15.75V22.2121L27.552 18.7175C27.0527 18.4402 26.4426 18.4402 25.9711 18.7175L1.56484 32.03C1.03789 32.3351 0.705078 32.8898 0.705078 33.5V104.5C0.705078 105.11 1.03789 105.665 1.56484 105.97L25.9711 119.282C26.4703 119.56 27.0805 119.56 27.552 119.282L33.9586 115.788V122.25C33.9586 122.86 34.2914 123.415 34.8184 123.72L59.2246 137.032C59.7238 137.31 60.334 137.31 60.8055 137.032L85.2117 123.72C85.7387 123.415 86.0715 122.86 86.0715 122.25V115.76L92.4781 119.255C92.9773 119.532 93.5875 119.532 94.059 119.255L118.465 105.942C118.992 105.637 119.325 105.082 119.325 104.472V33.5C119.353 32.8898 119.02 32.3351 118.493 32.03ZM93.2824 22.0734L114.222 33.5L93.2824 44.9265L72.343 33.5L93.2824 22.0734ZM86.0715 51.25C86.0715 50.6398 85.7387 50.0851 85.2117 49.78L70.5402 41.7925V36.3011L91.6184 47.7832V114.984L86.0715 111.988V51.25ZM60.0012 62.6765L39.0617 51.25L60.0012 39.8234L80.9406 51.25L60.0012 62.6765ZM52.7902 33.5C52.7902 32.8898 52.4574 32.3351 51.9305 32.03L37.259 24.0425V18.5511L58.3371 30.0332V36.939L52.7902 39.9621V33.5ZM82.7434 24.0425L68.0719 32.03C67.5449 32.3351 67.2121 32.8898 67.2121 33.5V39.9898L61.6652 36.9667V30.0609L82.7434 18.5789V24.0425ZM60.0012 4.32339L80.9406 15.75L60.0012 27.1765L39.0617 15.75L60.0012 4.32339ZM26.7199 22.0734L47.6594 33.5L26.7199 44.9265L5.78047 33.5L26.7199 22.0734ZM3.97773 36.3011L25.0559 47.7832V114.984L3.97773 103.474V36.3011ZM28.384 115.011V47.8109L49.4621 36.3289V41.8203L34.7906 49.8078C34.2637 50.1128 33.9309 50.6675 33.9309 51.2777V112.016L28.384 115.011ZM37.259 54.0511L58.3371 65.5332V132.734L37.259 121.224V54.0511ZM82.7434 121.252L61.6652 132.761V65.5609L82.7434 54.0789V121.252ZM94.9465 115.011V47.8109L116.025 36.3289V103.529L94.9465 115.011Z" fill="url(#paint0_linear_152_2243)"/>
<defs>
<linearGradient id="paint0_linear_152_2243" x1="12.6519" y1="16.5512" x2="110.473" y2="88.1593" gradientUnits="userSpaceOnUse">
<stop stop-color="#00F0FF"/>
<stop offset="1" stop-color="#0057E8"/>
</linearGradient>
</defs>
</svg>
