<svg width="172" height="124" viewBox="0 0 172 124" fill="none" xmlns="http://www.w3.org/2000/svg">
<path d="M166.601 33.8012L131.096 14.683L95.5908 33.8012V52.9195L100.661 55.6506L95.5908 58.3818V77.5L131.096 96.6183L166.601 77.5V58.3818L161.532 55.6506L166.601 52.9195V33.8012Z" fill="#BBE6DF"/>
<path d="M95.5908 58.3818L131.096 77.5V96.6183L95.5908 77.5V58.3818Z" fill="#2565D0"/>
<path d="M131.096 96.6183L166.601 77.5V58.3818L131.096 77.5V96.6183Z" fill="#6890D4"/>
<path d="M95.5908 33.8012L131.096 52.9195V72.0377L95.5908 52.9195V33.8012Z" fill="#2565D0"/>
<path d="M131.096 52.9195L166.601 33.8012L131.096 14.683L95.5908 33.8012L131.096 52.9195Z" fill="#C6DBFF"/>
<path d="M131.096 72.0377L166.601 52.9195V33.8012L131.096 52.9195V72.0377Z" fill="#6890D4"/>
<path d="M106.516 33.8012L131.096 20.1454L155.677 33.8012L131.096 47.4571L106.516 33.8012Z" fill="#BBE6DF"/>
<path d="M106.516 33.8012L123.603 43.2921L131.096 39.2636V20.1454L106.516 33.8012Z" fill="#1DB29B"/>
<path d="M155.677 33.8012L138.59 43.2921L131.096 39.2636V20.1454L155.677 33.8012Z" fill="#8DD6CB"/>
<path d="M112.375 31L61.9995 3.875L11.6245 31V58.125L18.8175 62L11.6245 65.875V93L61.9995 120.125L112.375 93V65.875L105.182 62L112.375 58.125V31Z" fill="#BBE6DF"/>
<path d="M11.6245 65.875L61.9995 93V120.125L11.6245 93V65.875Z" fill="#2565D0"/>
<path d="M61.9995 120.125L112.375 93V65.875L61.9995 93V120.125Z" fill="#6890D4"/>
<path d="M11.6245 31L61.9995 58.125V85.25L11.6245 58.125V31Z" fill="#2565D0"/>
<path d="M61.9995 58.125L112.375 31L61.9995 3.875L11.6245 31L61.9995 58.125Z" fill="#C6DBFF"/>
<path d="M61.9995 85.25L112.375 58.125V31L61.9995 58.125V85.25Z" fill="#6890D4"/>
<path d="M27.1245 31L61.9995 11.625L96.8745 31L61.9995 50.375L27.1245 31Z" fill="#BBE6DF"/>
<path d="M27.1245 31L51.3675 44.4656L61.9995 38.75V11.625L27.1245 31Z" fill="#1DB29B"/>
<path d="M96.8745 31L72.6315 44.4656L61.9995 38.75V11.625L96.8745 31Z" fill="#8DD6CB"/>
</svg>
