<svg width="522" height="521" viewBox="0 0 522 521" fill="none" xmlns="http://www.w3.org/2000/svg">
<path d="M260.247 39.5883L40.188 260.904L261.507 480.975L481.566 259.66L260.247 39.5883Z" stroke="url(#paint0_linear_200_1188)" stroke-width="2" stroke-linecap="round" stroke-linejoin="round"/>
<path d="M258.934 46.4337L47.0044 262.269L262.843 474.21L474.773 258.375L258.934 46.4337Z" stroke="url(#paint1_linear_200_1188)" stroke-width="2" stroke-linecap="round" stroke-linejoin="round"/>
<path d="M257.586 53.2519L53.8125 263.626L264.19 467.411L467.963 257.037L257.586 53.2519Z" stroke="url(#paint2_linear_200_1188)" stroke-width="2" stroke-linecap="round" stroke-linejoin="round"/>
<path d="M256.229 60.0436L60.6211 264.973L265.553 460.592L461.162 255.663L256.229 60.0436Z" stroke="url(#paint3_linear_200_1188)" stroke-width="2" stroke-linecap="round" stroke-linejoin="round"/>
<path d="M254.859 66.8325L67.4209 266.316L266.907 453.765L454.345 254.281L254.859 66.8325Z" stroke="url(#paint4_linear_200_1188)" stroke-width="2" stroke-linecap="round" stroke-linejoin="round"/>
<path d="M253.504 73.6351L74.2261 267.666L268.259 446.954L447.537 252.923L253.504 73.6351Z" stroke="url(#paint5_linear_200_1188)" stroke-width="2" stroke-linecap="round" stroke-linejoin="round"/>
<path d="M252.177 80.4735L81.042 269.031L269.602 440.176L440.737 251.618L252.177 80.4735Z" stroke="url(#paint6_linear_200_1188)" stroke-width="2" stroke-linecap="round" stroke-linejoin="round"/>
<path d="M250.804 87.2521L87.8438 270.368L270.962 433.338L433.922 250.222L250.804 87.2521Z" stroke="url(#paint7_linear_200_1188)" stroke-width="2" stroke-linecap="round" stroke-linejoin="round"/>
<path d="M249.455 94.0608L94.6519 271.723L272.316 426.536L427.119 248.874L249.455 94.0608Z" stroke="url(#paint8_linear_200_1188)" stroke-width="2" stroke-linecap="round" stroke-linejoin="round"/>
<path d="M248.103 100.867L101.458 273.072L273.665 419.726L420.31 247.521L248.103 100.867Z" stroke="url(#paint9_linear_200_1188)" stroke-width="2" stroke-linecap="round" stroke-linejoin="round"/>
<path d="M246.78 107.712L108.274 274.443L275.008 412.958L413.514 246.226L246.78 107.712Z" stroke="url(#paint10_linear_200_1188)" stroke-width="2" stroke-linecap="round" stroke-linejoin="round"/>
<path d="M245.388 114.471L115.066 275.768L276.365 406.097L406.686 244.8L245.388 114.471Z" stroke="url(#paint11_linear_200_1188)" stroke-width="2" stroke-linecap="round" stroke-linejoin="round"/>
<path d="M244.056 121.301L121.88 277.135L277.716 399.319L399.892 243.484L244.056 121.301Z" stroke="url(#paint12_linear_200_1188)" stroke-width="2" stroke-linecap="round" stroke-linejoin="round"/>
<path d="M242.696 128.093L128.686 278.477L279.071 392.495L393.081 242.111L242.696 128.093Z" stroke="url(#paint13_linear_200_1188)" stroke-width="2" stroke-linecap="round" stroke-linejoin="round"/>
<path d="M241.356 134.917L135.495 279.84L280.419 385.707L386.279 240.785L241.356 134.917Z" stroke="url(#paint14_linear_200_1188)" stroke-width="2" stroke-linecap="round" stroke-linejoin="round"/>
<path d="M240.02 141.748L142.31 281.207L281.769 378.925L379.48 239.466L240.02 141.748Z" stroke="url(#paint15_linear_200_1188)" stroke-width="2" stroke-linecap="round" stroke-linejoin="round"/>
<path d="M238.641 148.516L149.106 282.532L283.122 372.073L372.657 238.058L238.641 148.516Z" stroke="url(#paint16_linear_200_1188)" stroke-width="2" stroke-linecap="round" stroke-linejoin="round"/>
<path d="M237.301 155.339L155.917 283.895L284.473 365.286L365.857 236.73L237.301 155.339Z" stroke="url(#paint17_linear_200_1188)" stroke-width="2" stroke-linecap="round" stroke-linejoin="round"/>
<path d="M235.957 162.153L162.729 285.254L285.831 358.487L359.058 235.386L235.957 162.153Z" stroke="url(#paint18_linear_200_1188)" stroke-width="2" stroke-linecap="round" stroke-linejoin="round"/>
<path d="M234.6 168.959L169.533 286.603L287.176 351.675L352.244 234.032L234.6 168.959Z" stroke="url(#paint19_linear_200_1188)" stroke-width="2" stroke-linecap="round" stroke-linejoin="round"/>
<path d="M233.248 175.765L176.339 287.956L288.529 344.87L345.438 232.679L233.248 175.765Z" stroke="url(#paint20_linear_200_1188)" stroke-width="2" stroke-linecap="round" stroke-linejoin="round"/>
<path d="M231.89 182.565L183.143 289.3L289.878 338.052L338.625 231.316L231.89 182.565Z" stroke="url(#paint21_linear_200_1188)" stroke-width="2" stroke-linecap="round" stroke-linejoin="round"/>
<path d="M230.531 189.359L189.946 290.642L291.228 331.231L331.812 229.948L230.531 189.359Z" stroke="url(#paint22_linear_200_1188)" stroke-width="2" stroke-linecap="round" stroke-linejoin="round"/>
<path d="M229.186 196.178L196.758 292.003L292.582 324.435L325.01 228.61L229.186 196.178Z" stroke="url(#paint23_linear_200_1188)" stroke-width="2" stroke-linecap="round" stroke-linejoin="round"/>
<path d="M227.853 202.999L203.577 293.369L293.945 317.648L318.221 227.279L227.853 202.999Z" stroke="url(#paint24_linear_200_1188)" stroke-width="2" stroke-linecap="round" stroke-linejoin="round"/>
<path d="M226.496 209.803L210.38 294.717L295.293 310.836L311.408 225.922L226.496 209.803Z" stroke="url(#paint25_linear_200_1188)" stroke-width="2" stroke-linecap="round" stroke-linejoin="round"/>
<path d="M225.135 216.601L217.181 296.06L296.639 304.017L304.593 224.558L225.135 216.601Z" stroke="url(#paint26_linear_200_1188)" stroke-width="2" stroke-linecap="round" stroke-linejoin="round"/>
<path d="M223.758 223.397L223.969 297.399L297.97 297.191L297.759 223.188L223.758 223.397Z" stroke="url(#paint27_linear_200_1188)" stroke-width="2" stroke-linecap="round" stroke-linejoin="round"/>
<defs>
<linearGradient id="paint0_linear_200_1188" x1="47.6531" y1="268.327" x2="468.274" y2="189.094" gradientUnits="userSpaceOnUse">
<stop stop-color="#00C9D6"/>
<stop offset="1" stop-color="#2565D0"/>
</linearGradient>
<linearGradient id="paint1_linear_200_1188" x1="54.2847" y1="269.417" x2="461.46" y2="190.065" gradientUnits="userSpaceOnUse">
<stop stop-color="#00C9D6"/>
<stop offset="1" stop-color="#2565D0"/>
</linearGradient>
<linearGradient id="paint2_linear_200_1188" x1="60.9086" y1="270.499" x2="454.623" y2="190.985" gradientUnits="userSpaceOnUse">
<stop stop-color="#00C9D6"/>
<stop offset="1" stop-color="#2565D0"/>
</linearGradient>
<linearGradient id="paint3_linear_200_1188" x1="67.5335" y1="271.571" x2="447.79" y2="191.869" gradientUnits="userSpaceOnUse">
<stop stop-color="#00C9D6"/>
<stop offset="1" stop-color="#2565D0"/>
</linearGradient>
<linearGradient id="paint4_linear_200_1188" x1="74.1496" y1="272.638" x2="440.942" y2="192.746" gradientUnits="userSpaceOnUse">
<stop stop-color="#00C9D6"/>
<stop offset="1" stop-color="#2565D0"/>
</linearGradient>
<linearGradient id="paint5_linear_200_1188" x1="80.7709" y1="273.713" x2="434.105" y2="193.646" gradientUnits="userSpaceOnUse">
<stop stop-color="#00C9D6"/>
<stop offset="1" stop-color="#2565D0"/>
</linearGradient>
<linearGradient id="paint6_linear_200_1188" x1="87.4022" y1="274.804" x2="427.281" y2="194.599" gradientUnits="userSpaceOnUse">
<stop stop-color="#00C9D6"/>
<stop offset="1" stop-color="#2565D0"/>
</linearGradient>
<linearGradient id="paint7_linear_200_1188" x1="94.0203" y1="275.865" x2="420.433" y2="195.462" gradientUnits="userSpaceOnUse">
<stop stop-color="#00C9D6"/>
<stop offset="1" stop-color="#2565D0"/>
</linearGradient>
<linearGradient id="paint8_linear_200_1188" x1="100.644" y1="276.945" x2="413.602" y2="196.371" gradientUnits="userSpaceOnUse">
<stop stop-color="#00C9D6"/>
<stop offset="1" stop-color="#2565D0"/>
</linearGradient>
<linearGradient id="paint9_linear_200_1188" x1="107.267" y1="278.018" x2="406.764" y2="197.277" gradientUnits="userSpaceOnUse">
<stop stop-color="#00C9D6"/>
<stop offset="1" stop-color="#2565D0"/>
</linearGradient>
<linearGradient id="paint10_linear_200_1188" x1="113.898" y1="279.115" x2="399.946" y2="198.238" gradientUnits="userSpaceOnUse">
<stop stop-color="#00C9D6"/>
<stop offset="1" stop-color="#2565D0"/>
</linearGradient>
<linearGradient id="paint11_linear_200_1188" x1="120.507" y1="280.164" x2="393.082" y2="199.073" gradientUnits="userSpaceOnUse">
<stop stop-color="#00C9D6"/>
<stop offset="1" stop-color="#2565D0"/>
</linearGradient>
<linearGradient id="paint12_linear_200_1188" x1="127.137" y1="281.257" x2="386.262" y2="200.013" gradientUnits="userSpaceOnUse">
<stop stop-color="#00C9D6"/>
<stop offset="1" stop-color="#2565D0"/>
</linearGradient>
<linearGradient id="paint13_linear_200_1188" x1="133.759" y1="282.323" x2="379.421" y2="200.899" gradientUnits="userSpaceOnUse">
<stop stop-color="#00C9D6"/>
<stop offset="1" stop-color="#2565D0"/>
</linearGradient>
<linearGradient id="paint14_linear_200_1188" x1="140.383" y1="283.411" x2="372.594" y2="201.83" gradientUnits="userSpaceOnUse">
<stop stop-color="#00C9D6"/>
<stop offset="1" stop-color="#2565D0"/>
</linearGradient>
<linearGradient id="paint15_linear_200_1188" x1="147.014" y1="284.503" x2="365.768" y2="202.768" gradientUnits="userSpaceOnUse">
<stop stop-color="#00C9D6"/>
<stop offset="1" stop-color="#2565D0"/>
</linearGradient>
<linearGradient id="paint16_linear_200_1188" x1="153.626" y1="285.552" x2="358.913" y2="203.62" gradientUnits="userSpaceOnUse">
<stop stop-color="#00C9D6"/>
<stop offset="1" stop-color="#2565D0"/>
</linearGradient>
<linearGradient id="paint17_linear_200_1188" x1="160.253" y1="286.64" x2="352.086" y2="204.549" gradientUnits="userSpaceOnUse">
<stop stop-color="#00C9D6"/>
<stop offset="1" stop-color="#2565D0"/>
</linearGradient>
<linearGradient id="paint18_linear_200_1188" x1="166.882" y1="287.724" x2="345.259" y2="205.463" gradientUnits="userSpaceOnUse">
<stop stop-color="#00C9D6"/>
<stop offset="1" stop-color="#2565D0"/>
</linearGradient>
<linearGradient id="paint19_linear_200_1188" x1="173.501" y1="288.797" x2="338.416" y2="206.368" gradientUnits="userSpaceOnUse">
<stop stop-color="#00C9D6"/>
<stop offset="1" stop-color="#2565D0"/>
</linearGradient>
<linearGradient id="paint20_linear_200_1188" x1="180.123" y1="289.875" x2="331.582" y2="207.272" gradientUnits="userSpaceOnUse">
<stop stop-color="#00C9D6"/>
<stop offset="1" stop-color="#2565D0"/>
</linearGradient>
<linearGradient id="paint21_linear_200_1188" x1="186.743" y1="290.945" x2="324.74" y2="208.168" gradientUnits="userSpaceOnUse">
<stop stop-color="#00C9D6"/>
<stop offset="1" stop-color="#2565D0"/>
</linearGradient>
<linearGradient id="paint22_linear_200_1188" x1="193.362" y1="292.011" x2="317.898" y2="209.059" gradientUnits="userSpaceOnUse">
<stop stop-color="#00C9D6"/>
<stop offset="1" stop-color="#2565D0"/>
</linearGradient>
<linearGradient id="paint23_linear_200_1188" x1="199.99" y1="293.097" x2="311.068" y2="209.979" gradientUnits="userSpaceOnUse">
<stop stop-color="#00C9D6"/>
<stop offset="1" stop-color="#2565D0"/>
</linearGradient>
<linearGradient id="paint24_linear_200_1188" x1="206.625" y1="294.188" x2="304.252" y2="210.904" gradientUnits="userSpaceOnUse">
<stop stop-color="#00C9D6"/>
<stop offset="1" stop-color="#2565D0"/>
</linearGradient>
<linearGradient id="paint25_linear_200_1188" x1="213.244" y1="295.26" x2="297.411" y2="211.806" gradientUnits="userSpaceOnUse">
<stop stop-color="#00C9D6"/>
<stop offset="1" stop-color="#2565D0"/>
</linearGradient>
<linearGradient id="paint26_linear_200_1188" x1="219.861" y1="296.328" x2="290.567" y2="212.7" gradientUnits="userSpaceOnUse">
<stop stop-color="#00C9D6"/>
<stop offset="1" stop-color="#2565D0"/>
</linearGradient>
<linearGradient id="paint27_linear_200_1188" x1="226.465" y1="297.392" x2="283.705" y2="213.589" gradientUnits="userSpaceOnUse">
<stop stop-color="#00C9D6"/>
<stop offset="1" stop-color="#2565D0"/>
</linearGradient>
</defs>
</svg>
